<svg enable-background="new 0 0 792 612" viewBox="0 0 792 612" xmlns="http://www.w3.org/2000/svg"><g fill="#fff"><path d="m297.28 286.48v-3.9h-33.39v3.77h28.46l-30.54 38.72v3.9h36.12v-3.77h-31.18z"/><path d="m316.83 326.5c-7.8 0-11.76-7.21-11.76-14.29s3.96-14.29 11.76-14.29c5.39 0 8.38 3.05 9.49 8.05h4.09c-.98-7.73-6.37-11.5-13.58-11.5-10.2 0-15.85 8.12-15.85 17.74s5.65 17.74 15.85 17.74c7.54 0 12.74-4.87 13.84-12.99h-4.09c-.52 5.51-4.75 9.54-9.75 9.54z"/><path d="m361.91 323.06v-17.8c0-9.03-6.43-10.79-12.35-10.79-7.73 0-13.12 3.38-13.58 11.24h4.09c.19-5.46 3.83-7.8 8.96-7.8 4.87 0 8.77 1.36 8.77 6.89 0 3.64-1.88 4.22-5.26 4.55-8.84 1.04-18 1.43-18 10.78 0 6.76 5 9.81 11.24 9.81 6.5 0 9.29-2.47 12.21-6.82h.13c0 3.44.65 5.85 4.81 5.85 1.1 0 1.69-.06 2.66-.26v-3.44c-.46.2-.84.26-1.3.26-1.6 0-2.38-.85-2.38-2.47zm-4.09-7.08c0 6.56-5.39 10.53-11.69 10.53-3.9 0-7.47-2.53-7.47-6.63 0-6.5 8.64-6.5 15.59-7.73 1.1-.19 2.93-.52 3.44-1.49h.13z"/><path d="m385.87 310.59-5.46-1.23c-2.86-.72-6.95-2.08-6.95-5.65 0-4.35 4.29-5.78 7.93-5.78 4.68 0 8.58 2.27 8.77 7.34h4.09c-.32-7.28-5.52-10.79-12.28-10.79-5.91 0-12.6 2.6-12.6 9.42 0 5.65 4.03 7.6 9.36 8.97l5.26 1.17c3.7.91 7.34 2.21 7.34 6.11 0 4.68-5.26 6.37-9.16 6.37-5.46 0-9.55-2.86-9.88-8.38h-4.09c.71 8.25 5.91 11.83 13.77 11.83 6.24 0 13.45-2.79 13.45-10.07 0-5.87-4.87-8.6-9.55-9.31z"/><path d="m416.21 294.47c-4.74 0-9.16 2.73-10.72 6.76h-.13v-18.65h-4.09v46.39h4.09v-19.55c.2-6.56 3.96-11.5 10.53-11.5 6.63 0 8.51 4.42 8.51 10.13v20.92h4.09v-21.57c-.01-7.99-2.86-12.93-12.28-12.93z"/><path d="m436.76 305.41v23.48h-1.31v-46.31h1.31v21.53h32.75v-21.53h1.31v46.31h-1.31v-23.48z"/><path d="m476.52 312.48c.2 8.95 3.73 15.89 13.3 15.89 7.01 0 12.05-3.76 13.17-11.03h1.31c-.85 7.65-6.75 12.32-14.35 12.32-10.42.19-14.74-7.59-14.74-17.45 0-11.09 7.14-17.45 14.74-17.45 10.48 0 15.07 8.63 14.74 17.71h-28.17zm26.85-1.29c0-8.17-4.59-15.11-13.3-15.11-7.34 0-13.04 5.77-13.56 15.11z"/><path d="m509.05 305.87c.33-6.29 4.52-11.09 12.84-11.09 5.96 0 10.94 2.27 11.14 9.53v21.21c0 2.53 2.42 2.27 4.26 2.08v1.3c-.65.06-1.31.06-1.96.06-1.9 0-3.6-.78-3.6-3.31v-4.35h-.13c-1.38 4.28-6.35 8.37-13.36 8.37-6.75 0-11.27-3.05-11.27-9.02 0-8.24 5.96-9.66 11.6-9.99 9.24-.52 13.17-.39 13.17-5.38 0-3.96-.85-9.21-9.83-9.21-7.07 0-11.07 3.57-11.53 9.79h-1.33zm22.66 3.44h-.13c-1.7 2.46-7.73 2.34-13.04 2.66s-10.29 1.56-10.29 8.69c0 3.83 2.49 7.72 9.83 7.72 8.78 0 13.63-6.36 13.63-12.91z"/><path d="m541.26 328.89h-1.31v-33.34h1.31v8.24h.13c1.24-4.93 5.18-9.21 13.23-9.02v1.3c-9.24-.52-13.36 6.68-13.36 13.94z"/><path d="m564.15 296.85v25.55c0 4.99 2.49 5.19 4.52 5.19 1.31 0 2.42 0 2.88-.19v1.3c-.79.06-1.18.19-3.21.19-3.08 0-5.5-1.49-5.5-6.23v-25.81h-6.22v-1.3h6.22v-10.51h1.31v10.51h7.6v1.3z"/><path d="m619.3 295.56h1.31l-10.74 33.34h-1.7l-10.48-32.04h-.13l-10.55 32.04h-1.83l-10.48-33.34h1.3l10.02 32.04h.13l10.42-32.04h2.03l10.35 32.04h.13z"/><path d="m635.53 294.78c9.76 0 15.13 8.37 15.13 17.45 0 9.15-5.31 17.45-15.2 17.45-9.83 0-15.13-8.3-15.13-17.45 0-9.09 5.3-17.45 15.2-17.45zm0 33.59c8.97 0 13.82-7.65 13.82-16.15 0-8.3-4.85-16.15-13.82-16.15-9.11 0-13.89 7.85-13.89 16.15 0 8.5 4.78 16.15 13.89 16.15z"/><path d="m668.67 294.78c9.76 0 15.13 8.37 15.13 17.45 0 9.15-5.31 17.45-15.2 17.45-9.83 0-15.13-8.3-15.13-17.45 0-9.09 5.31-17.45 15.2-17.45zm0 33.59c8.97 0 13.82-7.65 13.82-16.15 0-8.3-4.85-16.15-13.82-16.15-9.11 0-13.89 7.85-13.89 16.15 0 8.5 4.79 16.15 13.89 16.15z"/><path d="m714.59 282.58h1.31v46.31h-1.31v-9.34h-.13c-1.77 5.84-6.62 10.12-13.49 10.12-8.91 0-14.35-7.33-14.35-17.38 0-9.34 5.04-17.51 14.35-17.51 7.14 0 11.92 4.09 13.49 10.12h.13zm-13.63 13.49c-9.17 0-13.04 8.5-13.04 16.21 0 8.56 4.32 16.09 13.04 16.09 8.65 0 13.63-7.46 13.63-16.09 0-10.37-5.44-16.21-13.63-16.21z"/><path d="m208.92 280.39c-7.58-7.54-16.82-11.86-25.39-11.86-.05 0-.11 0-.16 0-13.41.08-23.38 5.34-27.85 9.82-7.33 7.34-7.38 17.53-7.42 27.38v.74c-.05 10.21 1.48 17.3 9.74 25.51 7.91 7.86 16.02 11.53 25.53 11.53h.01c19.29 0 37.55-18.22 37.58-37.5.02-8.52-4.48-18.1-12.04-25.62zm-9.16 45.14c-5.25 5.17-11.87 8.11-18.19 8.11-.09 0-.17 0-.26 0-6.69-.08-13.1-3.06-18.05-8.37-4.77-5.12-7.45-11.76-7.37-18.22.11-8.15 2.25-14.66 6.36-19.35 4.38-5 10.79-7.64 19.05-7.86 5.91-.15 12.48 2.86 18.02 8.27 5.68 5.56 9.06 12.52 9.04 18.63-.01 6.59-3.15 13.43-8.6 18.79z"/><path d="m198.61 288.86c-5.13-5.02-11.4-7.98-16.87-7.98-.13 0-.26 0-.4.01-15.51.41-24.18 9.71-24.4 26.18-.08 6.19 2.5 12.57 7.09 17.49 4.75 5.1 10.9 7.96 17.3 8.04 6.11.08 12.58-2.77 17.7-7.81 5.25-5.17 8.28-11.74 8.3-18.05.03-5.83-3.23-12.52-8.72-17.88zm-.38 18.14c-1.59 1.49-3.09 3.98-4.69 6.63-3.11 5.17-6.64 11.02-12.03 11.02-.03 0-.07 0-.1 0-3.76-.05-7.52-1.83-10.59-5.02-3.42-3.56-5.49-8.42-5.38-12.68.28-11.46 6.11-18.06 16-18.1h.02c4.39 0 15.83 5.54 18.3 11.75.93 2.37.41 4.59-1.53 6.4z"/><path d="m181.45 289.89c-.01 0-.01 0-.02 0-13.14.05-14.84 11.97-14.96 17.08-.1 4 1.86 8.57 5.09 11.94 2.87 2.99 6.38 4.66 9.86 4.7h.08c4.81 0 8.17-5.59 11.14-10.52 1.63-2.71 3.17-5.27 4.87-6.85 1.65-1.54 2.06-3.26 1.27-5.26-2.28-5.75-13.27-11.09-17.33-11.09z"/><path d="m222.84 274.1c-1.51-1.7-3.19-3.46-5.14-5.4-1.69-1.68-3.25-3.17-4.78-4.54-10.62-9.56-19.68-13.46-31.25-13.46h-.43c-7.12.07-14.89 1.34-21.87 3.59-7.92 2.55-14.4 6.22-18.73 10.61-9.48 9.6-10.44 22.36-10.61 34.6-.03 1.86-.03 3.72-.03 5.57v.87.06.1c-.02 15.51 2.08 25 14.09 36.98 11.2 11.18 23.36 16.66 37.16 16.74h.27c13.18 0 26.82-6.03 37.4-16.54 10.79-10.71 16.98-24.57 16.99-38.03-.01-11.71-3.79-20.74-13.07-31.15zm-8.28 63.44c-9.06 9.74-20.71 15.18-32.8 15.32-.18 0-.36 0-.54 0-12.12 0-23-4.83-33.26-14.77-11-10.65-13.06-19.72-13.02-32.74v-.24c.04-12.31.08-26.27 10.01-35.85 8.97-8.66 25.09-12.56 36.45-12.56h.37c11.34.09 23.09 5.46 32.25 14.74 9.15 9.27 14.38 21.09 14.36 32.42-.03 12-5.06 24.27-13.82 33.68z"/><path d="m213.27 272.18c-8.97-9.09-20.45-14.35-31.52-14.43-.12 0-.24 0-.36 0-11.15 0-26.96 3.81-35.72 12.27-9.61 9.28-9.65 22.41-9.69 35.11v.24c-.05 14.87 3.04 22.64 12.7 32 10.2 9.88 21 14.62 33.06 14.47 11.81-.14 23.19-5.46 32.05-14.99 8.58-9.23 13.51-21.24 13.54-32.96.02-11.08-5.1-22.63-14.06-31.71zm-3.18 60.53c-7.51 7.49-17.24 11.78-26.71 11.78h-.01c-9.78 0-18.11-3.76-26.21-11.81-8.5-8.45-10.08-15.73-10.03-26.21v-.74c.04-9.58.09-20.44 7.71-28.07 7.36-7.37 19.97-10.05 28.53-10.11h.17c8.82 0 18.31 4.42 26.07 12.14 7.73 7.7 12.34 17.54 12.32 26.33-.01 9.48-4.33 19.2-11.84 26.69z"/><path d="m224.91 272.28c-1.64-1.84-3.4-3.67-5.27-5.54-1.65-1.64-3.27-3.19-4.89-4.65-9.84-8.86-19.48-14.17-33.09-14.17-.15 0-.3 0-.45 0-13.93.13-32.49 4.82-42.56 15.02-9.94 10.07-11.21 23.26-11.39 36.5-.03 1.88-.03 3.75-.03 5.62v.88.16c-.03 15.95 2.29 26.37 14.89 38.95 11.75 11.73 24.54 17.47 39.1 17.56h.28c13.91 0 28.24-6.31 39.35-17.35 11.31-11.23 17.8-25.81 17.82-40 0-13.69-5.14-23.31-13.76-32.98zm-5.62 71.43c-10.7 10.62-24.47 16.71-37.8 16.71h-.27c-13.95-.09-26.24-5.62-37.56-16.92-12.14-12.12-14.27-21.71-14.24-37.38v-1.04c0-1.83.01-3.72.03-5.62.17-12.37 1.14-25.27 10.74-34.98 4.38-4.44 10.93-8.14 18.94-10.73 7.06-2.28 14.9-3.56 22.09-3.63h.43c11.71 0 20.86 3.94 31.6 13.6 1.54 1.39 3.12 2.89 4.82 4.58 1.97 1.96 3.67 3.74 5.19 5.46 9.38 10.52 13.2 19.65 13.19 31.51 0 13.6-6.26 27.61-17.16 38.44z"/></g></svg>