<?xml version="1.0" encoding="utf-8"?>
<!-- Generator: Adobe Illustrator 24.0.3, SVG Export Plug-In . SVG Version: 6.00 Build 0)  -->
<svg version="1.1" id="Layer_1" xmlns="http://www.w3.org/2000/svg" xmlns:xlink="http://www.w3.org/1999/xlink" x="0px" y="0px"
	 viewBox="0 0 493.3 490.2" style="enable-background:new 0 0 493.3 490.2;" xml:space="preserve">
<style type="text/css">
	.st0{fill:#0A1C2B;}
	.st1{fill:#76BC43;}
	.st2{fill:#FFFFFF;}
</style>
<g>
	<path class="st0" d="M409.1,124.4c-6-6.8-12.7-13.8-20.5-21.5c-6.7-6.7-12.9-12.6-19-18.1c-42.3-38.1-78.3-53.6-124.4-53.6l-1.7,0
		c-28.3,0.3-59.3,5.3-87.1,14.3C124.8,55.7,99,70.3,81.8,87.8C44,126,40.2,176.8,39.5,225.5c-0.1,7.4-0.1,14.8-0.1,22.2l0,3.5l0,0.3
		l0,0.4c-0.1,61.7,8.3,99.5,56.1,147.2c44.6,44.5,93,66.3,147.9,66.7l1.1,0c52.5,0,106.8-24,148.9-65.8
		c42.9-42.6,67.6-97.8,67.6-151.4C461.1,201.8,446,165.8,409.1,124.4z"/>
	<path class="st1" d="M416.5,117.8c-6.5-7.3-13.5-14.6-20.9-22c-6.5-6.5-13-12.6-19.4-18.4c-39-35.1-77.2-56.1-131.1-56.1
		c-0.6,0-1.2,0-1.8,0c-55.2,0.5-128.8,19.1-168.7,59.5c-39.4,39.9-44.4,92.2-45.1,144.7c-0.1,7.4-0.1,14.9-0.1,22.3l0,3.5
		c0,0.2,0,0.4,0,0.6c-0.1,63.2,9.1,104.5,59,154.3c46.5,46.5,97.2,69.2,154.9,69.6c0.4,0,0.7,0,1.1,0c55.1,0,111.9-25,155.9-68.7
		c44.8-44.5,70.6-102.3,70.6-158.5C471,194.2,450.7,156.1,416.5,117.8z M244.5,465.7l-1.1,0c-54.9-0.3-103.3-22.1-147.9-66.7
		c-47.8-47.7-56.2-85.5-56.1-147.2l0-0.4l0-0.3l0-3.5c0-7.4,0-14.8,0.1-22.2C40.2,176.8,44,126,81.8,87.8
		c17.2-17.5,43-32.1,74.6-42.2c27.8-9,58.7-14,87.1-14.3l1.7,0c46.1,0,82.1,15.5,124.4,53.6c6.1,5.5,12.3,11.4,19,18.1
		c7.8,7.7,14.5,14.8,20.5,21.5c36.9,41.4,52,77.4,52,124.1c0,53.6-24.7,108.8-67.6,151.4C351.2,441.7,297,465.7,244.5,465.7z"/>
	<path class="st2" d="M243.4,437.1c-48,0-91.2-19.2-131.8-58.5C68,336.4,59.8,300.4,60,248.8l0-0.9c0.1-48.8,0.3-104.1,39.7-142.1
		C135.2,71.5,199.1,56,244.1,56c0.5,0,1,0,1.5,0c44.9,0.3,91.5,21.6,127.8,58.4c36.2,36.7,57,83.6,56.9,128.5l0,0
		c-0.1,47.5-20,96.1-54.7,133.4c-35.9,38.6-82.1,60.2-130,60.7C244.8,437.1,244.1,437.1,243.4,437.1z M244.1,60.2
		c-44.2,0-106.8,15.1-141.6,48.6c-38.1,36.8-38.2,88.8-38.4,139.1l0,0.9c-0.2,58.9,12.1,89.7,50.3,126.8
		c40.4,39.2,83.2,57.9,131,57.4c46.8-0.5,91.9-21.6,127-59.4c34-36.6,53.6-84.2,53.6-130.6l0,0c0.1-43.8-20.2-89.6-55.7-125.6
		c-35.5-36-81.1-56.9-124.9-57.2C245,60.2,244.5,60.2,244.1,60.2z"/>
	<path class="st2" d="M251.9,403.9C251.9,403.9,251.9,403.9,251.9,403.9c-38.8,0-71.8-14.9-103.9-46.8
		c-33.7-33.5-40-62.3-39.8-103.8l0-2.9c0.2-38,0.4-81,30.5-111.2C168,109.9,218,99.3,251.9,99c0.2,0,0.4,0,0.7,0
		c35,0,72.6,17.5,103.3,48.1c30.6,30.5,48.9,69.5,48.8,104.3l0,0c-0.1,37.5-17.2,76.1-46.9,105.7
		C328.1,386.9,289.5,403.9,251.9,403.9z M252.6,102.9c-0.2,0-0.4,0-0.6,0c-53.1,0.3-92.7,21.2-110.4,38.9
		c-29,29.1-29.2,69.5-29.4,108.5l0,2.9c-0.2,40.5,5.9,68.6,38.6,101.1c31.3,31.2,63.5,45.7,101.2,45.7c0,0,0,0,0,0
		c76.4,0,148.8-72.2,148.9-148.6c0.1-33.8-17.8-71.8-47.7-101.6C323.1,120,286.5,102.9,252.6,102.9z"/>
	<path class="st2" d="M244.8,360.9c-0.3,0-0.7,0-1,0c-26.5-0.3-51.9-12.1-71.5-33.2c-18.9-20.3-29.5-46.6-29.2-72.2
		c0.4-32.3,8.9-58.1,25.2-76.7c17.4-19.8,42.8-30.3,75.5-31.2c23.4-0.6,49.5,11.3,71.4,32.8c22.5,22,35.9,49.6,35.8,73.8l0,0
		c-0.1,26.1-12.5,53.2-34.1,74.4C296,349.2,269.8,360.9,244.8,360.9z M245.4,151.8c-0.5,0-1,0-1.6,0c-61.5,1.6-95.8,38.5-96.7,103.8
		c-0.3,24.5,9.9,49.8,28.1,69.3c18.8,20.2,43.2,31.5,68.6,31.9c24.2,0.3,49.8-11,70.2-31c20.8-20.5,32.8-46.5,32.9-71.5
		c0.1-23.1-12.8-49.6-34.6-70.9C291.9,163.6,267.1,151.8,245.4,151.8z"/>
	<g id="XMLID_5_">
		<g>
		</g>
		<g>
			<g>
				<path class="st2" d="M244.5,325.3c-0.1,0-0.3,0-0.4,0c-14.9-0.2-29.8-7.3-42-19.9c-13.6-14.1-21.7-33.3-21.3-50.3
					c1.1-45.4,24.2-71.6,63.4-71.7c0,0,0.1,0,0.1,0c17.4,0,62.7,21.9,72.5,46.6c3.7,9.4,1.6,18.2-6,25.4
					c-6.3,5.9-12.3,15.8-18.6,26.3C279.9,302.1,265.9,325.3,244.5,325.3z M244.3,187.5C244.3,187.5,244.3,187.5,244.3,187.5
					c-52.1,0.2-58.9,47.4-59.4,67.7c-0.4,15.8,7.4,34,20.2,47.3c11.4,11.8,25.3,18.5,39.1,18.6c0.1,0,0.2,0,0.3,0
					c19.1,0,32.4-22.1,44.2-41.7c6.5-10.7,12.6-20.9,19.3-27.2l0,0c6.5-6.1,8.2-12.9,5-20.9C303.9,208.7,260.4,187.5,244.3,187.5z"
					/>
			</g>
		</g>
	</g>
</g>
</svg>
