<svg enable-background="new 0 0 538.3 612" viewBox="0 0 538.3 612" xmlns="http://www.w3.org/2000/svg"><path d="m67.7 533.7h31.3v3.7l-28.7 36.4h29.3v3.5h-33.9v-3.7l28.7-36.4h-26.7z"/><path d="m124.2 555.7c-1-4.7-3.8-7.6-8.9-7.6-7.3 0-11 6.8-11 13.4s3.7 13.4 11 13.4c4.7 0 8.7-3.8 9.2-9h3.8c-1 7.6-5.9 12.2-13 12.2-9.6 0-14.9-7.6-14.9-16.7s5.3-16.7 14.9-16.7c6.8 0 11.8 3.5 12.8 10.8h-3.9z"/><path d="m132.6 555.4c.4-7.4 5.5-10.6 12.8-10.6 5.6 0 11.6 1.6 11.6 10.1v16.7c0 1.5.7 2.3 2.3 2.3.4 0 .8-.1 1.2-.2v3.2c-.9.2-1.5.2-2.5.2-3.9 0-4.5-2.3-4.5-5.5h-.1c-2.7 4.1-5.4 6.4-11.5 6.4-5.9 0-10.6-2.9-10.6-9.2 0-8.8 8.6-9.2 16.9-10.1 3.2-.3 4.9-.9 4.9-4.3 0-5.2-3.7-6.5-8.2-6.5-4.8 0-8.2 2.2-8.4 7.3h-3.9zm20.5 4.7h-.1c-.5.9-2.2 1.2-3.2 1.4-6.5 1.2-14.6 1.2-14.6 7.3 0 3.8 3.4 6.2 7 6.2 5.9 0 11-3.7 11-9.9v-5z"/><path d="m182.6 555c-.2-4.8-3.8-6.9-8.2-6.9-3.4 0-7.4 1.3-7.4 5.4 0 3.4 3.8 4.6 6.5 5.3l5.1 1.2c4.4.7 9 3.2 9 8.7 0 6.8-6.8 9.5-12.6 9.5-7.4 0-12.3-3.4-12.9-11.1h3.8c.3 5.2 4.1 7.9 9.3 7.9 3.7 0 8.6-1.6 8.6-6 0-3.7-3.4-4.9-6.9-5.7l-4.9-1.1c-5-1.3-8.8-3.1-8.8-8.4 0-6.4 6.3-8.8 11.8-8.8 6.3 0 11.2 3.3 11.5 10.1h-3.9z"/><path d="m192.2 533.7h3.8v17.5h.1c1.5-3.8 5.6-6.3 10.1-6.3 8.8 0 11.5 4.6 11.5 12.1v20.3h-3.8v-19.6c0-5.4-1.8-9.5-8-9.5s-9.7 4.6-9.9 10.8v18.4h-3.8z"/><path d="m225.4 555.2v22.1h-1.2v-43.6h1.2v20.3h30.8v-20.3h1.2v43.6h-1.2v-22.1z"/><path d="m262.8 561.8c.2 8.4 3.5 14.9 12.5 14.9 6.6 0 11.3-3.5 12.4-10.4h1.2c-.8 7.2-6.3 11.6-13.5 11.6-9.8.2-13.9-7.1-13.9-16.4 0-10.4 6.7-16.4 13.9-16.4 9.9 0 14.2 8.1 13.9 16.7zm25.3-1.2c0-7.7-4.3-14.2-12.5-14.2-6.9 0-12.3 5.4-12.8 14.2z"/><path d="m293.4 555.6c.3-5.9 4.3-10.4 12.1-10.4 5.6 0 10.3 2.1 10.5 9v19.9c0 2.4 2.3 2.1 4 2v1.2c-.6.1-1.2.1-1.8.1-1.8 0-3.4-.7-3.4-3.1v-4.1h-.1c-1.3 4-6 7.9-12.6 7.9-6.3 0-10.6-2.9-10.6-8.5 0-7.7 5.6-9.1 10.9-9.4 8.7-.5 12.4-.4 12.4-5.1 0-3.7-.8-8.7-9.2-8.7-6.7 0-10.4 3.4-10.8 9.2zm21.4 3.3h-.1c-1.6 2.3-7.3 2.2-12.3 2.5s-9.7 1.5-9.7 8.2c0 3.6 2.3 7.3 9.2 7.3 8.3 0 12.8-6 12.8-12.1v-5.9z"/><path d="m323.7 577.3h-1.2v-31.4h1.2v7.7h.1c1.2-4.6 4.9-8.7 12.4-8.5v1.2c-8.7-.5-12.6 6.3-12.6 13.1v17.9z"/><path d="m345.3 547.1v24c0 4.7 2.3 4.9 4.3 4.9 1.2 0 2.3 0 2.7-.2v1.2c-.7.1-1.1.2-3 .2-2.9 0-5.2-1.4-5.2-5.9v-24.3h-5.9v-1.2h5.9v-9.8h1.2v9.9h7.1v1.2z"/><path d="m397.1 545.9h1.2l-10.1 31.4h-1.6l-9.9-30.1h-.1l-9.9 30.1h-1.7l-9.9-31.4h1.2l9.4 30.1h.1l9.8-30.1h1.9l9.7 30.1h.1z"/><path d="m412.4 545.2c9.2 0 14.2 7.9 14.2 16.4 0 8.6-5 16.4-14.3 16.4-9.2 0-14.2-7.8-14.2-16.4 0-8.5 5-16.4 14.3-16.4zm0 31.6c8.4 0 13-7.2 13-15.2 0-7.8-4.6-15.2-13-15.2-8.6 0-13.1 7.4-13.1 15.2 0 8 4.5 15.2 13.1 15.2z"/><path d="m443.6 545.2c9.2 0 14.2 7.9 14.2 16.4 0 8.6-5 16.4-14.3 16.4-9.2 0-14.2-7.8-14.2-16.4 0-8.5 5-16.4 14.3-16.4zm0 31.6c8.4 0 13-7.2 13-15.2 0-7.8-4.6-15.2-13-15.2-8.6 0-13.1 7.4-13.1 15.2 0 8 4.5 15.2 13.1 15.2z"/><path d="m486.8 533.7h1.2v43.6h-1.2v-8.8h-.1c-1.7 5.5-6.2 9.5-12.7 9.5-8.4 0-13.5-6.9-13.5-16.3 0-8.8 4.7-16.5 13.5-16.5 6.7 0 11.2 3.8 12.7 9.5h.1zm-12.9 12.7c-8.6 0-12.3 8-12.3 15.3 0 8.1 4.1 15.1 12.3 15.1 8.1 0 12.8-7 12.8-15.1.1-9.8-5-15.3-12.8-15.3z"/><path d="m404.2 162.2c-4.8-5.4-10.2-11-16.4-17.2-5.4-5.4-10.4-10.1-15.2-14.5-33.9-30.5-62.7-42.9-99.6-42.9h-1.4c-22.7.2-47.5 4.3-69.7 11.5-25.3 8.1-45.9 19.8-59.7 33.8-30.2 30.6-33.3 71.3-33.8 110.3-.1 5.9-.1 11.9-.1 17.8v2.8.2.3c-.1 49.4 6.6 79.7 44.9 117.9 35.7 35.7 74.5 53.1 118.5 53.4h.8c42 0 85.5-19.2 119.2-52.7 34.4-34.2 54.1-78.3 54.2-121.3 0-37.4-12.1-66.2-41.7-99.4z" fill="#0a1c2b"/><path d="m410.2 156.9c-5.2-5.8-10.8-11.7-16.7-17.6-5.2-5.2-10.4-10.1-15.5-14.8-31.2-28.1-61.8-45-105-45-.5 0-.9 0-1.4 0-44.2.4-103.1 15.3-135.1 47.6-31.6 31.9-35.6 73.8-36.1 115.8-.1 6-.1 11.9-.1 17.8v2.8.5c-.1 50.6 7.3 83.7 47.3 123.6 37.3 37.2 77.9 55.4 124.1 55.7h.9c44.1 0 89.6-20 124.9-55.1 35.9-35.6 56.5-81.9 56.5-126.9-.1-43.2-16.5-73.7-43.8-104.4zm-137.8 278.7h-.8c-44-.3-82.8-17.7-118.5-53.4-38.3-38.2-45-68.5-44.9-117.9v-.3-.2-2.8c0-5.9 0-11.8.1-17.8.5-39 3.6-79.7 33.8-110.3 13.8-14 34.5-25.7 59.7-33.8 22.3-7.2 47-11.3 69.7-11.5h1.4c36.9 0 65.8 12.4 99.6 42.9 4.9 4.4 9.8 9.1 15.2 14.5 6.2 6.2 11.6 11.8 16.4 17.2 29.6 33.2 41.6 62 41.6 99.4 0 42.9-19.8 87.1-54.2 121.3-33.6 33.4-77 52.7-119.1 52.7z" fill="#76bc43"/><g fill="#fff"><path d="m271.6 412.6c-38.5 0-73-15.3-105.5-46.9-34.9-33.8-41.4-62.6-41.3-103.9v-.7c.1-39.1.2-83.4 31.8-113.8 28.5-27.5 79.6-39.9 115.7-39.9h1.2c36 .3 73.3 17.3 102.3 46.8 29 29.4 45.6 66.9 45.6 102.9-.1 38-16 77-43.8 106.8-28.7 30.9-65.7 48.2-104.1 48.6-.8.1-1.4.1-1.9.1zm.5-301.8c-35.4 0-85.6 12.1-113.4 38.9-30.5 29.4-30.6 71.1-30.7 111.4v.7c-.1 47.2 9.7 71.8 40.3 101.5 32.4 31.4 66.6 46.4 104.9 45.9 37.5-.4 73.6-17.3 101.7-47.6 27.2-29.3 42.9-67.4 43-104.6.1-35.1-16.2-71.8-44.6-100.6-28.5-28.8-64.9-45.5-100-45.8-.4.2-.8.2-1.2.2z"/><path d="m278.4 386.1c-31.1 0-57.5-11.9-83.2-37.5-27-26.8-32-49.9-31.8-83.2v-2.4c.1-30.4.3-64.9 24.5-89.1 23.4-23.4 63.4-31.9 90.5-32.1h.5c28 0 58.1 14 82.7 38.5 24.5 24.4 39.2 55.7 39.1 83.5-.1 30-13.7 60.9-37.6 84.7-23.7 23.9-54.6 37.6-84.7 37.6zm.5-241.1c-.2 0-.3 0-.5 0-42.5.3-74.2 17-88.4 31.2-23.3 23.3-23.4 55.6-23.6 86.9v2.4c-.2 32.4 4.7 54.9 30.9 81 25.1 24.9 50.8 36.6 81 36.6 61.2 0 119.1-57.8 119.3-119 0-27.1-14.2-57.5-38.2-81.3-24-24.1-53.3-37.8-80.5-37.8z"/><path d="m272.7 351.6c-.3 0-.5 0-.8 0-21.2-.3-41.6-9.7-57.3-26.6-15.1-16.2-23.7-37.3-23.4-57.8.4-25.9 7.1-46.5 20.2-61.4 13.9-15.9 34.2-24.3 60.5-24.9 18.7-.5 39.6 9.1 57.2 26.2 18 17.6 28.8 39.7 28.7 59.1-.1 20.9-10 42.6-27.3 59.6-16.8 16.5-37.8 25.8-57.8 25.8zm.5-167.4c-.4 0-.8 0-1.3 0-49.2 1.3-76.7 30.8-77.4 83.1-.3 19.6 7.9 39.9 22.5 55.5 15.1 16.2 34.6 25.2 54.9 25.5 19.4.2 39.9-8.8 56.2-24.8 16.7-16.4 26.3-37.3 26.3-57.3.1-18.5-10.3-39.7-27.7-56.8-16.3-15.8-36.2-25.2-53.5-25.2z"/><path d="m272.5 323.1c-.1 0-.2 0-.3 0-11.9-.2-23.9-5.8-33.6-15.9-10.9-11.3-17.4-26.7-17.1-40.2.9-36.4 19.4-57.3 50.8-57.4h.1c13.9 0 50.2 17.6 58.1 37.3 3 7.5 1.3 14.6-4.8 20.3-5 4.7-9.8 12.6-14.9 21-10 16.3-21.2 34.9-38.3 34.9zm-.2-110.3c-41.7.2-47.2 38-47.5 54.2-.3 12.7 5.9 27.2 16.2 37.9 9.1 9.5 20.2 14.8 31.3 14.9h.3c15.3 0 25.9-17.7 35.4-33.4 5.2-8.6 10.1-16.7 15.4-21.7 5.2-4.9 6.5-10.4 4-16.7-7.4-18.3-42.2-35.2-55.1-35.2z"/></g></svg>