<?xml version="1.0" encoding="utf-8"?>
<!-- Generator: Adobe Illustrator 23.0.1, SVG Export Plug-In . SVG Version: 6.00 Build 0)  -->
<svg version="1.1" id="Layer_1" xmlns="http://www.w3.org/2000/svg" xmlns:xlink="http://www.w3.org/1999/xlink" x="0px" y="0px"
	 viewBox="0 0 792 612" style="enable-background:new 0 0 792 612;" xml:space="preserve">
<style type="text/css">
	.st0{fill:#76BC21;}
	.st1{fill:#FFFFFF;}
</style>
<path class="st0" d="M459.23,283.53c0,34.48-27.95,62.44-62.44,62.44c-34.48,0-62.43-27.95-62.43-62.44
	c0-34.48,27.95-62.44,62.43-62.44C431.27,221.1,459.23,249.05,459.23,283.53"/>
<path class="st1" d="M440.21,275.11c-0.25-1.29-0.57-2.55-0.93-3.79c-4.18-14.47-15.58-25.87-30.05-30.04
	c-1.23-0.36-2.47-0.67-3.74-0.92c-5.43,5.43-8.45,14.06-8.45,21.05c0-6.88-2.05-14.64-8.45-21.05c-1.27,0.25-2.52,0.57-3.75,0.92
	c-14.47,4.18-25.87,15.58-30.05,30.04c-0.36,1.24-0.68,2.5-0.93,3.79c5.38,5.38,13.74,8.42,21.03,8.42c-7.2,0-15.18,2.58-21.03,8.43
	c0.25,1.29,0.57,2.55,0.93,3.8c4.19,14.47,15.59,25.87,30.05,30.05c1.22,0.35,2.46,0.67,3.72,0.92c6.33-6.33,8.47-14.41,8.47-21.08
	c0,6.67,2.7,15.32,8.46,21.08c1.26-0.25,2.49-0.56,3.71-0.91c14.46-4.18,25.86-15.58,30.05-30.05c0.36-1.25,0.68-2.51,0.94-3.81
	c-5.83-5.83-14.21-8.43-21.02-8.43C425.59,283.53,434.59,280.72,440.21,275.11 M397.04,293.55c-5.53,0-10.02-4.49-10.02-10.02
	c0-5.53,4.49-10.02,10.02-10.02c5.53,0,10.02,4.49,10.02,10.02C407.06,289.07,402.57,293.55,397.04,293.55"/>
<path d="M397.04,273.51c-5.53,0-10.02,4.49-10.02,10.02c0,5.53,4.49,10.02,10.02,10.02c5.53,0,10.02-4.49,10.02-10.02
	C407.06,278,402.57,273.51,397.04,273.51"/>
<g>
	<path d="M307,369.37h15.18v1.77l-13.88,17.61h14.18v1.71h-16.42v-1.77l13.88-17.61H307V369.37z"/>
	<path d="M335.38,380c-0.5-2.27-1.86-3.66-4.31-3.66c-3.54,0-5.35,3.28-5.35,6.5c0,3.22,1.8,6.5,5.35,6.5c2.28,0,4.2-1.83,4.43-4.34
		h1.86c-0.5,3.69-2.87,5.91-6.29,5.91c-4.64,0-7.21-3.69-7.21-8.07c0-4.37,2.57-8.06,7.21-8.06c3.28,0,5.73,1.71,6.17,5.23H335.38z"
		/>
	<path d="M339.78,379.88c0.21-3.58,2.66-5.11,6.17-5.11c2.69,0,5.61,0.8,5.61,4.9v8.09c0,0.74,0.35,1.12,1.09,1.12
		c0.21,0,0.38-0.03,0.59-0.12v1.57c-0.44,0.09-0.71,0.12-1.21,0.12c-1.89,0-2.19-1.09-2.19-2.66h-0.06c-1.33,1.98-2.6,3.1-5.55,3.1
		c-2.84,0-5.11-1.39-5.11-4.46c0-4.25,4.17-4.43,8.18-4.9c1.54-0.15,2.39-0.41,2.39-2.07c0-2.51-1.77-3.13-3.99-3.13
		c-2.33,0-3.99,1.06-4.08,3.54H339.78z M349.7,382.13h-0.06c-0.24,0.44-1.06,0.59-1.57,0.68c-3.16,0.56-7.09,0.56-7.09,3.52
		c0,1.86,1.62,3.01,3.4,3.01c2.87,0,5.32-1.8,5.32-4.79V382.13z"/>
	<path d="M364.41,379.68c-0.09-2.3-1.86-3.34-3.99-3.34c-1.65,0-3.6,0.65-3.6,2.63c0,1.62,1.86,2.25,3.16,2.57l2.48,0.56
		c2.13,0.33,4.34,1.57,4.34,4.22c0,3.31-3.28,4.58-6.11,4.58c-3.58,0-5.94-1.62-6.26-5.38h1.86c0.15,2.51,2.01,3.81,4.49,3.81
		c1.77,0,4.17-0.77,4.17-2.9c0-1.77-1.65-2.36-3.34-2.78l-2.39-0.53c-2.42-0.62-4.25-1.51-4.25-4.08c0-3.1,3.04-4.28,5.73-4.28
		c3.07,0,5.44,1.6,5.58,4.9H364.41z"/>
	<path d="M369.46,369.37h1.86v8.48h0.06c0.71-1.83,2.72-3.07,4.87-3.07c4.28,0,5.58,2.25,5.58,5.88v9.81h-1.86v-9.51
		c0-2.6-0.86-4.61-3.87-4.61c-2.98,0-4.7,2.24-4.79,5.23v8.89h-1.86V369.37z"/>
</g>
<g>
	<path d="M384.98,369.37h9.16c3.34,0,6,1.74,6,5.26c0,2.54-1.91,4.67-4.5,4.82v0.06c2.77,0.09,5.16,2.01,5.16,5.23
		c0,3.78-2.92,5.73-7.01,5.73h-8.8V369.37z M385.57,379.17h8.56c2.83,0,5.4-1.54,5.4-4.55c0-3.19-2.39-4.67-5.4-4.67h-8.56V379.17z
		 M385.57,389.87h8.47c3.46,0,6.15-1.65,6.15-5.11c0-3.66-3.04-4.99-6.06-4.99h-8.56V389.87z"/>
	<path d="M403.47,369.37h0.6v21.09h-0.6V369.37z"/>
	<path d="M413.49,374.92c4.45,0,6.89,3.81,6.89,7.95c0,4.17-2.42,7.95-6.92,7.95c-4.47,0-6.89-3.78-6.89-7.95
		C406.57,378.73,408.99,374.92,413.49,374.92z M413.49,390.22c4.09,0,6.29-3.49,6.29-7.36c0-3.78-2.21-7.36-6.29-7.36
		c-4.15,0-6.32,3.58-6.32,7.36C407.17,386.74,409.35,390.22,413.49,390.22z"/>
	<path d="M432.88,379.76c0-3.04-2-4.25-4.95-4.25c-4.3,0-4.59,2.69-4.59,3.22c0,1.51,0.66,2.21,1.7,2.66
		c1.07,0.44,2.27,0.68,3.94,1.12c2.39,0.62,4.92,1.18,4.92,4.08c0,3.04-2.89,4.22-5.55,4.22c-4.06,0-6.21-1.74-6.21-5.55h0.6
		c0,3.4,2.03,4.96,5.61,4.96c2.24,0,4.95-0.97,4.95-3.57c0-2.69-2.66-3.13-5.28-3.75c-1.46-0.35-2.57-0.65-3.43-1.03
		c-1.28-0.56-1.85-1.48-1.85-3.13c0-1.68,1.37-3.81,5.19-3.81c3.43,0,5.55,1.45,5.55,4.84H432.88z"/>
	<path d="M446.69,379.76c0-3.04-2-4.25-4.95-4.25c-4.3,0-4.59,2.69-4.59,3.22c0,1.51,0.66,2.21,1.7,2.66
		c1.07,0.44,2.27,0.68,3.94,1.12c2.39,0.62,4.92,1.18,4.92,4.08c0,3.04-2.89,4.22-5.55,4.22c-4.06,0-6.21-1.74-6.21-5.55h0.6
		c0,3.4,2.03,4.96,5.61,4.96c2.24,0,4.95-0.97,4.95-3.57c0-2.69-2.66-3.13-5.28-3.75c-1.46-0.35-2.57-0.65-3.43-1.03
		c-1.28-0.56-1.85-1.48-1.85-3.13c0-1.68,1.37-3.81,5.19-3.81c3.43,0,5.55,1.45,5.55,4.84H446.69z"/>
	<path d="M456.63,374.92c4.45,0,6.89,3.81,6.89,7.95c0,4.17-2.42,7.95-6.92,7.95c-4.47,0-6.89-3.78-6.89-7.95
		C449.7,378.73,452.12,374.92,456.63,374.92z M456.63,390.22c4.09,0,6.29-3.49,6.29-7.36c0-3.78-2.21-7.36-6.29-7.36
		c-4.15,0-6.32,3.58-6.32,7.36C450.3,386.74,452.48,390.22,456.63,390.22z"/>
	<path d="M466.02,375.27h0.6v3.75h0.06c0.54-2.33,2.54-4.11,4.89-4.11c2.39-0.09,4.09,1.3,4.59,3.54h0.06
		c0.6-2.13,2.51-3.54,4.86-3.54c3.7,0,4.86,2.27,4.86,5.55v9.99h-0.6v-9.99c0-2.98-0.92-4.96-4.27-4.96c-2.98,0-4.8,2.48-4.8,5.32
		v9.63h-0.6v-9.75c0-2.84-0.69-5.2-4.12-5.2c-3.04,0-4.95,2.96-4.95,6.35v8.6h-0.6V375.27z"/>
</g>
</svg>
