<svg enable-background="new 0 0 792 612" viewBox="0 0 792 612" xmlns="http://www.w3.org/2000/svg"><path d="m459.23 283.53c0 34.48-27.95 62.44-62.44 62.44-34.48 0-62.43-27.95-62.43-62.44 0-34.48 27.95-62.44 62.43-62.44 34.48.01 62.44 27.96 62.44 62.44" fill="#76bc21"/><path d="m440.21 275.11c-.25-1.29-.57-2.55-.93-3.79-4.18-14.47-15.58-25.87-30.05-30.04-1.23-.36-2.47-.67-3.74-.92-5.43 5.43-8.45 14.06-8.45 21.05 0-6.88-2.05-14.64-8.45-21.05-1.27.25-2.52.57-3.75.92-14.47 4.18-25.87 15.58-30.05 30.04-.36 1.24-.68 2.5-.93 3.79 5.38 5.38 13.74 8.42 21.03 8.42-7.2 0-15.18 2.58-21.03 8.43.25 1.29.57 2.55.93 3.8 4.19 14.47 15.59 25.87 30.05 30.05 1.22.35 2.46.67 3.72.92 6.33-6.33 8.47-14.41 8.47-21.08 0 6.67 2.7 15.32 8.46 21.08 1.26-.25 2.49-.56 3.71-.91 14.46-4.18 25.86-15.58 30.05-30.05.36-1.25.68-2.51.94-3.81-5.83-5.83-14.21-8.43-21.02-8.43 6.42 0 15.42-2.81 21.04-8.42m-43.17 18.44c-5.53 0-10.02-4.49-10.02-10.02s4.49-10.02 10.02-10.02 10.02 4.49 10.02 10.02c0 5.54-4.49 10.02-10.02 10.02" fill="#fff"/><path d="m397.04 273.51c-5.53 0-10.02 4.49-10.02 10.02s4.49 10.02 10.02 10.02 10.02-4.49 10.02-10.02-4.49-10.02-10.02-10.02"/><path d="m307 369.37h15.18v1.77l-13.88 17.61h14.18v1.71h-16.42v-1.77l13.88-17.61h-12.94z"/><path d="m335.38 380c-.5-2.27-1.86-3.66-4.31-3.66-3.54 0-5.35 3.28-5.35 6.5s1.8 6.5 5.35 6.5c2.28 0 4.2-1.83 4.43-4.34h1.86c-.5 3.69-2.87 5.91-6.29 5.91-4.64 0-7.21-3.69-7.21-8.07 0-4.37 2.57-8.06 7.21-8.06 3.28 0 5.73 1.71 6.17 5.23h-1.86z"/><path d="m339.78 379.88c.21-3.58 2.66-5.11 6.17-5.11 2.69 0 5.61.8 5.61 4.9v8.09c0 .74.35 1.12 1.09 1.12.21 0 .38-.03.59-.12v1.57c-.44.09-.71.12-1.21.12-1.89 0-2.19-1.09-2.19-2.66h-.06c-1.33 1.98-2.6 3.1-5.55 3.1-2.84 0-5.11-1.39-5.11-4.46 0-4.25 4.17-4.43 8.18-4.9 1.54-.15 2.39-.41 2.39-2.07 0-2.51-1.77-3.13-3.99-3.13-2.33 0-3.99 1.06-4.08 3.54h-1.84zm9.92 2.25h-.06c-.24.44-1.06.59-1.57.68-3.16.56-7.09.56-7.09 3.52 0 1.86 1.62 3.01 3.4 3.01 2.87 0 5.32-1.8 5.32-4.79z"/><path d="m364.41 379.68c-.09-2.3-1.86-3.34-3.99-3.34-1.65 0-3.6.65-3.6 2.63 0 1.62 1.86 2.25 3.16 2.57l2.48.56c2.13.33 4.34 1.57 4.34 4.22 0 3.31-3.28 4.58-6.11 4.58-3.58 0-5.94-1.62-6.26-5.38h1.86c.15 2.51 2.01 3.81 4.49 3.81 1.77 0 4.17-.77 4.17-2.9 0-1.77-1.65-2.36-3.34-2.78l-2.39-.53c-2.42-.62-4.25-1.51-4.25-4.08 0-3.1 3.04-4.28 5.73-4.28 3.07 0 5.44 1.6 5.58 4.9h-1.87z"/><path d="m369.46 369.37h1.86v8.48h.06c.71-1.83 2.72-3.07 4.87-3.07 4.28 0 5.58 2.25 5.58 5.88v9.81h-1.86v-9.51c0-2.6-.86-4.61-3.87-4.61-2.98 0-4.7 2.24-4.79 5.23v8.89h-1.86v-21.1z"/><path d="m384.98 369.37h9.16c3.34 0 6 1.74 6 5.26 0 2.54-1.91 4.67-4.5 4.82v.06c2.77.09 5.16 2.01 5.16 5.23 0 3.78-2.92 5.73-7.01 5.73h-8.8v-21.1zm.59 9.8h8.56c2.83 0 5.4-1.54 5.4-4.55 0-3.19-2.39-4.67-5.4-4.67h-8.56zm0 10.7h8.47c3.46 0 6.15-1.65 6.15-5.11 0-3.66-3.04-4.99-6.06-4.99h-8.56z"/><path d="m403.47 369.37h.6v21.09h-.6z"/><path d="m413.49 374.92c4.45 0 6.89 3.81 6.89 7.95 0 4.17-2.42 7.95-6.92 7.95-4.47 0-6.89-3.78-6.89-7.95 0-4.14 2.42-7.95 6.92-7.95zm0 15.3c4.09 0 6.29-3.49 6.29-7.36 0-3.78-2.21-7.36-6.29-7.36-4.15 0-6.32 3.58-6.32 7.36 0 3.88 2.18 7.36 6.32 7.36z"/><path d="m432.88 379.76c0-3.04-2-4.25-4.95-4.25-4.3 0-4.59 2.69-4.59 3.22 0 1.51.66 2.21 1.7 2.66 1.07.44 2.27.68 3.94 1.12 2.39.62 4.92 1.18 4.92 4.08 0 3.04-2.89 4.22-5.55 4.22-4.06 0-6.21-1.74-6.21-5.55h.6c0 3.4 2.03 4.96 5.61 4.96 2.24 0 4.95-.97 4.95-3.57 0-2.69-2.66-3.13-5.28-3.75-1.46-.35-2.57-.65-3.43-1.03-1.28-.56-1.85-1.48-1.85-3.13 0-1.68 1.37-3.81 5.19-3.81 3.43 0 5.55 1.45 5.55 4.84h-.6z"/><path d="m446.69 379.76c0-3.04-2-4.25-4.95-4.25-4.3 0-4.59 2.69-4.59 3.22 0 1.51.66 2.21 1.7 2.66 1.07.44 2.27.68 3.94 1.12 2.39.62 4.92 1.18 4.92 4.08 0 3.04-2.89 4.22-5.55 4.22-4.06 0-6.21-1.74-6.21-5.55h.6c0 3.4 2.03 4.96 5.61 4.96 2.24 0 4.95-.97 4.95-3.57 0-2.69-2.66-3.13-5.28-3.75-1.46-.35-2.57-.65-3.43-1.03-1.28-.56-1.85-1.48-1.85-3.13 0-1.68 1.37-3.81 5.19-3.81 3.43 0 5.55 1.45 5.55 4.84h-.6z"/><path d="m456.63 374.92c4.45 0 6.89 3.81 6.89 7.95 0 4.17-2.42 7.95-6.92 7.95-4.47 0-6.89-3.78-6.89-7.95-.01-4.14 2.41-7.95 6.92-7.95zm0 15.3c4.09 0 6.29-3.49 6.29-7.36 0-3.78-2.21-7.36-6.29-7.36-4.15 0-6.32 3.58-6.32 7.36-.01 3.88 2.17 7.36 6.32 7.36z"/><path d="m466.02 375.27h.6v3.75h.06c.54-2.33 2.54-4.11 4.89-4.11 2.39-.09 4.09 1.3 4.59 3.54h.06c.6-2.13 2.51-3.54 4.86-3.54 3.7 0 4.86 2.27 4.86 5.55v9.99h-.6v-9.99c0-2.98-.92-4.96-4.27-4.96-2.98 0-4.8 2.48-4.8 5.32v9.63h-.6v-9.75c0-2.84-.69-5.2-4.12-5.2-3.04 0-4.95 2.96-4.95 6.35v8.6h-.6v-15.18z"/></svg>