<?xml version="1.0" encoding="utf-8"?>
<!-- Generator: Adobe Illustrator 22.0.1, SVG Export Plug-In . SVG Version: 6.00 Build 0)  -->
<svg version="1.1" id="Layer_1" xmlns="http://www.w3.org/2000/svg" xmlns:xlink="http://www.w3.org/1999/xlink" x="0px" y="0px"
	 viewBox="0 0 900 432" style="enable-background:new 0 0 900 432;" xml:space="preserve">
<style type="text/css">
	.st0{fill:url(#SVGID_1_);}
	.st1{fill:url(#SVGID_2_);}
	.st2{fill:#595A5C;}
	.st3{fill:#010101;}
	.st4{fill:url(#XMLID_2_);}
	.st5{display:none;fill:#595A5C;}
	.st6{font-family:'UniversFiftyEightBDI';}
	.st7{font-size:46.3758px;}
	.st8{display:none;}
	.st9{display:inline;fill:#010101;}
	.st10{display:inline;fill:url(#XMLID_4_);}
	.st11{display:inline;}
	.st12{display:inline;fill:#231F20;}
	.st13{font-family:'UniversFiftySevenBDI';}
	.st14{font-size:19.8481px;}
</style>
<g>
	<g>
		<linearGradient id="SVGID_1_" gradientUnits="userSpaceOnUse" x1="451.1542" y1="4.5033" x2="451.1542" y2="428.5033">
			<stop  offset="0.2667" style="stop-color:#F2F2F2"/>
			<stop  offset="0.4183" style="stop-color:#FAFAFA"/>
			<stop  offset="1" style="stop-color:#BFBFBF"/>
		</linearGradient>
		<path class="st0" d="M818.6,428.5H83.7c-44.1,0-79.9-35.8-79.9-79.9V84.4c0-44.1,35.8-79.9,79.9-79.9h734.8
			c44.1,0,79.9,35.8,79.9,79.9v264.1C898.5,392.7,862.7,428.5,818.6,428.5z"/>
		<linearGradient id="SVGID_2_" gradientUnits="userSpaceOnUse" x1="451.1539" y1="3.5029" x2="451.1539" y2="429.5029">
			<stop  offset="0.264" style="stop-color:#F2F2F2"/>
			<stop  offset="1" style="stop-color:#CCCCCC"/>
		</linearGradient>
		<path class="st1" d="M818.6,429.5H83.7c-44.6,0-80.9-36.3-80.9-80.9V84.4c0-44.6,36.3-80.9,80.9-80.9h734.8
			c44.6,0,80.9,36.3,80.9,80.9v264.1C899.5,393.2,863.2,429.5,818.6,429.5z M83.7,5.5C40.2,5.5,4.8,40.9,4.8,84.4v264.1
			c0,43.5,35.4,78.9,78.9,78.9h734.8c43.5,0,78.9-35.4,78.9-78.9V84.4c0-43.5-35.4-78.9-78.9-78.9H83.7z"/>
	</g>
	<g>
		<path class="st2" d="M520.8,304.6h5.4l3.8,33.5h-4.8l-0.7-8h-12.9l-4.2,8h-4.3L520.8,304.6z M522.6,308.6L522.6,308.6l-9.1,17.9
			h10.7L522.6,308.6z"/>
		<path class="st2" d="M552.3,313.9c0.5-1.9,0.7-3.8,0-4.9c-0.6-1.1-2.5-1.4-3.4-1.4c-3.5,0-5.4,2.1-5.6,2.6c-0.2,0.4-1.2,1.2-2.5,7
			l-1.9,8.9c-1.7,8.2,0.7,9.2,4,9.2c1.3,0,5.3-0.5,6.8-7h4.4c-2,10.6-9.5,10.6-11.7,10.6c-4.2,0-10.5-0.3-7.7-13.3l2-9.5
			c2-9.5,6.8-12.1,13.4-12.1c6.6,0,8.4,3.4,6.6,9.9H552.3z"/>
		<path class="st2" d="M576.2,313.9c0.5-1.9,0.7-3.8,0-4.9c-0.6-1.1-2.5-1.4-3.4-1.4c-3.5,0-5.4,2.1-5.6,2.6c-0.2,0.4-1.2,1.2-2.5,7
			l-1.9,8.9c-1.7,8.2,0.7,9.2,4,9.2c1.3,0,5.3-0.5,6.8-7h4.4c-2,10.6-9.5,10.6-11.7,10.6c-4.2,0-10.5-0.3-7.7-13.3l2-9.5
			c2-9.5,6.8-12.1,13.4-12.1c6.6,0,8.4,3.4,6.6,9.9H576.2z"/>
		<path class="st2" d="M581,338.1l7.1-33.5h17.2l-0.8,3.7h-13l-2.3,10.8h12.1l-0.8,3.7h-12.1l-2.5,11.6h13.3l-0.8,3.7H581z"/>
		<path class="st2" d="M604.2,338.1l7.1-33.5h9.9c4.5,0,9,1.7,7.3,9.6c-1.6,7.6-7.9,9.2-11.3,9.2h-5.6l-3.2,14.7H604.2z
			 M612.4,319.6h4.7c1.8,0,6-0.5,7.1-5.7c1.1-5.1-2.6-5.6-3.6-5.6h-5.9L612.4,319.6z"/>
		<path class="st2" d="M654.6,304.6l-0.8,3.7H645l-6.3,29.8h-4.3l6.3-29.8h-8.8l0.8-3.7H654.6z"/>
		<path class="st2" d="M651.4,338.1l7.1-33.5h17.2l-0.8,3.7h-13l-2.3,10.8h12.1l-0.8,3.7h-12.1l-2.5,11.6h13.3l-0.8,3.7H651.4z"/>
		<path class="st2" d="M681.7,304.6H692c4.3,0,7,1.5,7.9,5.1c0.7,2.8-0.5,9.5-0.7,10.6c-1.5,7.1-3.1,11.3-4.9,13.5
			c-2.4,2.9-6.1,4.3-12,4.3h-7.7L681.7,304.6z M679.7,334.4h4c5.9,0,8.6-2.2,10.2-10l1.4-6.8c1.4-6.8-0.1-9.3-4.6-9.3h-5.6
			L679.7,334.4z"/>
		<path class="st2" d="M711.7,338.1l7.1-33.5h4.3l-3.1,14.5h11.7l3.1-14.5h4.3l-7.1,33.5h-4.3l3.2-15.3h-11.7l-3.2,15.3H711.7z"/>
		<path class="st2" d="M738.5,338.1l7.1-33.5h17.2l-0.8,3.7h-13l-2.3,10.8h12.1l-0.8,3.7H746l-2.5,11.6h13.3l-0.8,3.7H738.5z"/>
		<path class="st2" d="M769.2,322.7l-3.3,15.4h-4.3l7.1-33.5h11.5c5.9,0,7.1,4.2,6.3,8.3c-0.8,3.9-3.7,7-7.7,7.7v0.1
			c3.7,0.6,4.8,1.9,3.6,8.6c-0.2,1.4-0.9,6.7-0.7,8.8h-4.5c-0.7-2.3,0.5-6.7,1.1-11.1c0.6-4.1-2.7-4.3-4.1-4.3H769.2z M770,319h6.4
			c3.1,0,5.1-2.6,5.7-5.6c0.5-2.4-0.1-5.1-3.4-5.1h-6.4L770,319z"/>
		<path class="st2" d="M786.7,338.1l7.1-33.5h17.2l-0.8,3.7h-13l-2.3,10.8h12.1l-0.8,3.7h-12.1l-2.5,11.6h13.3l-0.8,3.7H786.7z"/>
	</g>
	<g>
		<circle id="XMLID_5_" class="st3" cx="192.3" cy="218" r="127.5"/>
		
			<linearGradient id="XMLID_2_" gradientUnits="userSpaceOnUse" x1="262.5038" y1="827.8627" x2="122.1426" y2="968.2238" gradientTransform="matrix(1 0 0 1 0 -680)">
			<stop  offset="0" style="stop-color:#FFD35D"/>
			<stop  offset="1" style="stop-color:#CC842A"/>
		</linearGradient>
		<circle id="XMLID_3_" class="st4" cx="192.3" cy="218" r="99.3"/>
		<path class="st3" d="M240.1,249.1h-52.9v-0.5c6.3-6.7,11.9-14.4,18-22.4l33.1-46.1v-22.6h-32.7v-22.2h-27.4v22.2h-29.8v29.9h48.3
			v0.5c-6.3,7.4-11.2,13.4-17.5,21.6l-34.6,48v21.6h33.6v21.6h27.4v-21.6h34.5V249.1z"/>
		<g>
			<path class="st3" d="M458.1,239.8l0.3,0.6c0.3,13-4,23.7-12.7,31.8c-8.6,8.3-20.6,12.3-35.4,12.3c-15.1,0-27.4-4.9-36.7-15.1
				c-9.6-10.2-14.2-23.1-14.2-38.9v-24.6c0-15.7,4.6-28.7,13.9-38.9c9.3-10.2,21.3-15.4,36.4-15.4c15.1,0,27.1,4,36.1,12
				c8.9,8,13,18.8,13,32.4l-0.3,0.6h-20.9c0-8.6-2.5-15.4-7.1-20.3c-4.6-4.9-11.7-7.4-20.6-7.4s-15.7,3.4-20.9,10.5
				c-5.3,7.1-7.7,15.7-7.7,26.2v24.7c0,10.5,2.8,19.4,8,26.5c5.3,7.1,12.3,10.5,21.3,10.5c8.9,0,15.7-2.5,20.3-7.1
				s6.8-11.4,6.8-20.3C437.4,239.8,458.1,239.8,458.1,239.8z"/>
			<path class="st3" d="M549.3,252.4h-50.6l-10.2,30.2h-21.9l47.5-128.9h20.3l46.8,128.8h-21.9L549.3,252.4z M504.9,234.2h38.2
				L524.3,179h-0.6L504.9,234.2z"/>
			<path class="st3" d="M666.1,249.3c0-5.3-1.8-9.9-5.9-13.2c-4-3.4-11.1-6.5-21.3-9.2c-14.5-3.7-25.6-8.6-33.3-15.1
				c-7.7-6.2-11.7-14.5-11.7-24.4c0-10.5,4.3-18.8,13-25.6c8.6-6.8,19.8-10.2,33.3-10.2c14.2,0,25.6,3.7,34.2,11.4
				c8.6,7.7,12.7,17,12.3,27.4l-0.3,0.6h-20.6c0-6.5-2.1-12-6.8-16s-10.8-6.2-19.1-6.2c-7.7,0-13.9,1.8-18.2,5.3
				c-4.3,3.4-6.5,7.7-6.5,13.2c0,4.9,2.1,8.9,6.8,12.3c4.6,3.4,12,6.2,22.8,9.2c13.9,3.7,24.4,8.9,31.8,15.4
				c7.4,6.5,10.8,14.8,10.8,25c0,10.8-4.3,19.4-13,25.6c-8.6,6.5-20,9.6-33.9,9.6c-13.5,0-25.3-3.7-35.4-10.8
				c-10.2-7.1-15.1-17-14.8-29.3l0.3-0.6h20.6c0,7.7,2.8,13.5,8,17.6c5.6,4,12.7,5.9,21.3,5.9c8,0,14.2-1.5,18.5-4.9
				C664,258.9,666.1,254.6,666.1,249.3z"/>
			<path class="st3" d="M811,282.3h-21.6v-54.9h-57.7v54.9h-21.6V153.5h21.6v56.7h57.7v-56.7H811V282.3z"/>
		</g>
	</g>
	<text transform="matrix(1 0 0 1 506.3329 338.1057)" class="st5 st6 st7">ACCEPTED HERE</text>
	<g class="st8">
		<circle id="XMLID_10_" class="st9" cx="190.8" cy="216.5" r="126"/>
		
			<linearGradient id="XMLID_4_" gradientUnits="userSpaceOnUse" x1="260.1164" y1="827.1701" x2="121.4501" y2="965.8365" gradientTransform="matrix(1 0 0 1 0 -680)">
			<stop  offset="0" style="stop-color:#FFD35D"/>
			<stop  offset="1" style="stop-color:#CC842A"/>
		</linearGradient>
		<circle id="XMLID_9_" class="st10" cx="190.8" cy="216.5" r="98.1"/>
		<path class="st9" d="M238,247.1h-52.2v-0.5c6.2-6.6,11.8-14.2,17.7-22.1l32.7-45.5v-22.4h-32.3v-21.9h-27.1v21.9h-29.4v29.6h47.8
			v0.5c-6.2,7.4-11.1,13.2-17.3,21.4l-34.2,47.5v21.3h33.2v21.3h27.1v-21.3H238V247.1z"/>
		<g class="st11">
			<path class="st3" d="M453.3,238l0.3,0.6c0.3,12.8-4,23.4-12.5,31.4c-8.5,8.2-20.4,12.2-35,12.2c-14.9,0-27.1-4.9-36.2-14.9
				c-9.5-10.1-14-22.8-14-38.4v-24.3c0-15.5,4.6-28.3,13.7-38.4c9.2-10.1,21-15.2,35.9-15.2c14.9,0,26.8,4,35.6,11.9
				c8.8,7.9,12.8,18.6,12.8,32l-0.3,0.6H433c0-8.5-2.5-15.2-7-20.1c-4.6-4.9-11.6-7.3-20.4-7.3s-15.5,3.3-20.7,10.3
				c-5.2,7-7.6,15.5-7.6,25.9v24.4c0,10.3,2.7,19.2,7.9,26.2c5.2,7,12.2,10.3,21,10.3c8.8,0,15.5-2.5,20.1-7
				c4.6-4.6,6.7-11.3,6.7-20.1C432.9,238,453.3,238,453.3,238z"/>
			<path class="st3" d="M543.5,250.5h-50l-10.1,29.9h-21.6L508.8,153h20.1l46.3,127.3h-21.6L543.5,250.5z M499.6,232.5h37.8
				L518.8,178h-0.6L499.6,232.5z"/>
			<path class="st3" d="M658.9,247.4c0-5.2-1.8-9.8-5.8-13.1c-4-3.3-11-6.4-21-9.1c-14.3-3.7-25.3-8.5-32.9-14.9
				c-7.6-6.1-11.6-14.3-11.6-24.1c0-10.3,4.3-18.6,12.8-25.3c8.5-6.7,19.5-10.1,32.9-10.1c14,0,25.3,3.7,33.8,11.3
				c8.5,7.6,12.5,16.8,12.2,27.1l-0.3,0.6h-20.4c0-6.4-2.1-11.9-6.7-15.8s-10.6-6.1-18.9-6.1c-7.6,0-13.7,1.8-17.9,5.2
				c-4.3,3.3-6.4,7.6-6.4,13.1c0,4.9,2.1,8.8,6.7,12.2c4.6,3.3,11.9,6.1,22.6,9.1c13.7,3.7,24.1,8.8,31.4,15.2
				c7.3,6.4,10.6,14.6,10.6,24.7c0,10.6-4.3,19.2-12.8,25.3c-8.5,6.4-19.8,9.5-33.5,9.5c-13.4,0-25-3.7-35-10.6
				c-10.1-7-14.9-16.8-14.6-28.9l0.3-0.6h20.4c0,7.6,2.7,13.4,7.9,17.4c5.5,4,12.5,5.8,21,5.8c7.9,0,14-1.5,18.3-4.9
				C656.7,256.9,658.9,252.6,658.9,247.4z"/>
			<path class="st3" d="M802,280h-21.3v-54.2h-57V280h-21.3V152.7h21.3v56h57v-56H802V280z"/>
		</g>
		<text transform="matrix(1 0 0 1 811.2783 167.1455)" class="st12 st13 st14">TM</text>
	</g>
</g>
</svg>
