<?xml version="1.0" encoding="utf-8"?>
<!-- Generator: Adobe Illustrator 22.0.1, SVG Export Plug-In . SVG Version: 6.00 Build 0)  -->
<svg version="1.1" id="Layer_1" xmlns="http://www.w3.org/2000/svg" xmlns:xlink="http://www.w3.org/1999/xlink" x="0px" y="0px"
	 viewBox="0 0 519.7 520.1" style="enable-background:new 0 0 519.7 520.1;" xml:space="preserve">
<style type="text/css">
	.st0{fill:#FFFFFF;}
	.st1{display:none;fill:#FFFFFF;}
	.st2{font-family:'UniversFiftySevenBDI';}
	.st3{font-size:21.48px;}
</style>
<g>
	<g>
		<g>
			<path class="st0" d="M259.1,1.9c-141.9,0-257,115.1-257,257s115.1,257,257,257s257-115.1,257-257S401,1.9,259.1,1.9z
				 M259.1,458.9c-110.5,0-200-89.5-200-200s89.5-200,200-200s200,89.5,200,200S369.6,458.9,259.1,458.9z"/>
		</g>
	</g>
	<path class="st0" d="M355.4,321.4H248.9v-1c12.6-13.5,24-29,36.2-45.1l66.6-92.8v-45.6h-65.9V92.2h-55.3v44.7h-60v60.3h97.4v1
		c-12.6,15-22.6,27-35.3,43.6l-69.8,96.8v43.5h67.7v43.5h55.3v-43.5h69.6V321.4z"/>
	<text transform="matrix(1 0 0 1 458.841 455.2736)" class="st1 st2 st3">TM</text>
</g>
</svg>
