<?xml version="1.0" encoding="UTF-8" standalone="no"?>
<!-- Generator: Adobe Illustrator 18.1.1, SVG Export Plug-In . SVG Version: 6.00 Build 0)  -->
<!-- Modified by Duncan Bristow for Yellow/Gold Gradient  -->
<svg
  xmlns:dc="http://purl.org/dc/elements/1.1/"
  xmlns:cc="http://creativecommons.org/ns#"
  xmlns:rdf="http://www.w3.org/1999/02/22-rdf-syntax-ns#"
  xmlns:svg="http://www.w3.org/2000/svg"
  xmlns="http://www.w3.org/2000/svg"
  version="1.1"
  id="Layer_1"
  x="0px"
  y="0px"
  viewBox="0 0 90 90"
  enable-background="new 0 0 90 90"
  xml:space="preserve">
  <metadata id="metadata30">
    <rdf:RDF>
      <cc:Work rdf:about="">
        <dc:format>
          image/svg+xml
        </dc:format>
        <dc:type rdf:resource="http://purl.org/dc/dcmitype/StillImage" />
      </cc:Work>
    </rdf:RDF>
  </metadata>
  <defs id="defs28">
    <linearGradient
      id="grad1"
      x1="0%"
      y1="100%"
      x2="100%"
      y2="0%">
      <stop offset="0%"   style="stop-color:rgb(207, 135, 36);stop-opacity:1" />
      <stop offset="24%"  style="stop-color:rgb(207, 135, 36);stop-opacity:1" />
      <stop offset="76%"  style="stop-color:rgb(254, 208, 90);stop-opacity:1" />
      <stop offset="100%" style="stop-color:rgb(255, 216, 94);stop-opacity:1" />
    </linearGradient>
  </defs>
  <g id="g13">
    <g id="tgmAOB_1_">
      <g id="g8">
        <g id="_x34_o0Zdu.tif">
          <g id="g5">
            <g id="B0wFFZ.tif">
              <circle
                fill="url(#grad1)"
                stroke="#000000"
                stroke-width="10"
                stroke-miterlimit="10"
                cx="45"
                cy="45"
                r="40"
                id="circle2"
              />
            </g>
          </g>
        </g>
      </g>
    </g>
    <path
      d="M42.3,56.2c6.7,0,13,0,19.5,0c0,3.3,0,6.5,0,9.8c-3.9,0-7.8,0-12,0c0.2,2.8,0.3,5.4,0.5,8.2c-3.4,0-6.6,0-10.1,0   c0-2.6,0-5.3,0-8.1c-4.1,0-7.9,0-12,0c0-3.2-0.4-6.4,0.2-9.4c0.3-1.6,2.1-3,3.2-4.4c3.8-4.5,7.6-8.9,11.5-13.4   c1.5-1.7,3-3.3,4.7-5.2c-6.4,0-12.5,0-18.7,0c0-3.3,0-6.5,0-9.8c3.6,0,7.3,0,11.1,0c0-2.8,0-5.4,0-8.2c3.3,0,6.4,0,9.7,0   c0,2.6,0,5.2,0,8c4,0,7.9,0,12.1,0c0,3.3,0.4,6.5-0.2,9.5c-0.3,1.6-2.1,3-3.3,4.4c-3.8,4.5-7.6,8.9-11.5,13.4   C45.5,52.8,44,54.4,42.3,56.2z"
      id="path11"
    />
  </g>
</svg>