<?xml version="1.0" encoding="UTF-8" standalone="no"?>
<!-- Generator: Adobe Illustrator 18.1.1, SVG Export Plug-In . SVG Version: 6.00 Build 0)  -->
<!-- Modified by Duncan Bristow for Yellow/Gold Gradient  -->
<svg
  xmlns:dc="http://purl.org/dc/elements/1.1/"
  xmlns:cc="http://creativecommons.org/ns#"
  xmlns:rdf="http://www.w3.org/1999/02/22-rdf-syntax-ns#"
  xmlns:svg="http://www.w3.org/2000/svg"
  xmlns="http://www.w3.org/2000/svg"
  version="1.1"
  id="Layer_1"
  x="0px"
  y="0px"
  viewBox="0 0 90 90"
  enable-background="new 0 0 90 90"
  xml:space="preserve">
  <metadata id="metadata30">
    <rdf:RDF>
      <cc:Work rdf:about="">
        <dc:format>
          image/svg+xml
        </dc:format>
        <dc:type rdf:resource="http://purl.org/dc/dcmitype/StillImage" />
      </cc:Work>
    </rdf:RDF>
  </metadata>
  <defs id="defs28">
    <linearGradient
      id="grad1"
      x1="0%"
      y1="100%"
      x2="100%"
      y2="0%">
      <stop offset="0%"   style="stop-color:rgb(207, 135, 36);stop-opacity:1" />
      <stop offset="24%"  style="stop-color:rgb(207, 135, 36);stop-opacity:1" />
      <stop offset="76%"  style="stop-color:rgb(254, 208, 90);stop-opacity:1" />
      <stop offset="100%" style="stop-color:rgb(255, 216, 94);stop-opacity:1" />
    </linearGradient>
  </defs>
  <g id="g13">
    <g id="tgmAOB_1_">
      <g id="g8">
        <g id="_x34_o0Zdu.tif">
          <g id="g5">
            <g id="B0wFFZ.tif">
              <circle
                fill="url(#grad1)"
                stroke="#000000"
                stroke-width="10"
                stroke-miterlimit="10"
                cx="45"
                cy="45"
                r="40"
                id="circle2"
              />
            </g>
          </g>
        </g>
      </g>
    </g>
    <path
      d="M 42.3,56.2 H 61.8 V 66 H 49.9 c 0,2.464193 0,4.805599 0,8.2 h -9.7 v -8.1 h -12 c 0,-3.2 -0.4,-6.4 0.2,-9.4 0.3,-1.6 2.1,-3 3.2,-4.4 3.8,-4.5 7.6,-8.9 11.5,-13.4 1.5,-1.7 3,-3.3 4.7,-5.2 H 29.1 v -9.8 h 11.1 v -8.2 h 9.7 v 8 H 62 c 0,3.3 0.4,6.5 -0.2,9.5 -0.3,1.6 -2.1,3 -3.3,4.4 -3.8,4.5 -7.6,8.9 -11.5,13.4 -1.5,1.8 -3,3.4 -4.7,5.2 z"
      id="path11"
    />
  </g>
</svg>