<svg enable-background="new 0 0 538.3 612" viewBox="0 0 538.3 612" xmlns="http://www.w3.org/2000/svg"><g fill="#fff"><path d="m270.5 10.4c-108.9 0-197.5 88.6-197.5 197.5s88.6 197.4 197.5 197.4 197.4-88.6 197.4-197.4-88.6-197.5-197.4-197.5zm0 362.3c-90.9 0-164.9-73.9-164.9-164.9s74-164.8 164.9-164.8 164.9 74 164.9 164.9-74 164.8-164.9 164.8z"/><path d="m122.7 454.7v12.4l-96.9 122.9h99v12h-114.7v-12.4l96.9-122.9h-90.3v-12z"/><path d="m202.8 510.2c-4.8-4.5-11.5-6.8-20.2-6.8-5.7-.1-11.3 1.2-16.3 3.9-4.6 2.5-8.6 6.1-11.6 10.3-3.2 4.4-5.5 9.3-7 14.5-3.2 10.8-3.2 22.4 0 33.2 1.5 5.2 3.8 10.1 7 14.5 3.1 4.2 7.1 7.8 11.6 10.3 5 2.7 10.6 4 16.3 3.9 3.9 0 7.8-.7 11.4-2.3 3.5-1.5 6.7-3.6 9.5-6.3 2.8-2.8 5.1-6 6.8-9.6 1.8-3.8 2.9-7.9 3.3-12.2h13c-1.8 12.9-6.5 23-14.2 30.2s-17.6 10.8-29.7 10.8c-7.4.1-14.8-1.4-21.5-4.4-6.1-2.8-11.5-6.9-15.8-12.1-4.4-5.3-7.6-11.3-9.7-17.8-4.4-14.2-4.4-29.3 0-43.5 2-6.5 5.3-12.6 9.7-17.8 4.3-5.1 9.7-9.3 15.8-12.2 6.7-3.1 14.1-4.7 21.5-4.5 11.4 0 21.1 3 29 9.1 7.9 6 12.6 15.2 14.1 27.5h-13c-1.9-7.9-5.2-14.2-10-18.7z"/><path d="m245.3 512c2.1-4.4 5.2-8.2 9-11.1 4-3 8.5-5.2 13.3-6.4 5.5-1.4 11.2-2.1 16.9-2.1 4.7 0 9.4.4 14 1.3 4.5.8 8.8 2.5 12.6 5 3.9 2.6 7 6.2 9.1 10.4 2.3 4.5 3.5 10.3 3.5 17.4v56.5c0 5.2 2.5 7.8 7.6 7.8 1.4 0 2.8-.3 4.1-.8v10.9c-1.5.3-2.9.5-4 .6-1.5.2-3 .2-4.4.2-2.7.1-5.4-.4-7.9-1.3-1.9-.8-3.5-2.1-4.6-3.8-1.1-1.8-1.9-3.8-2.2-5.9-.4-2.5-.5-5-.5-7.5h-.4c-2.2 3.2-4.5 6.3-7.1 9.2-2.3 2.6-5 4.9-8 6.7-3.2 1.9-6.6 3.3-10.2 4.1-4.4 1-9 1.5-13.5 1.4-4.7 0-9.4-.6-13.9-1.8-4.1-1.1-8-3-11.3-5.6s-5.9-5.9-7.6-9.7c-2-4.4-2.9-9.1-2.8-13.9 0-7.4 1.6-13.2 4.9-17.4 3.4-4.3 8-7.6 13.1-9.6 5.9-2.3 12.1-3.9 18.4-4.6 6.8-.9 13.7-1.8 20.7-2.6 2.8-.3 5.2-.6 7.2-1 1.9-.3 3.6-1.1 5.1-2.2 1.4-1.1 2.5-2.6 3.2-4.2.8-2.2 1.2-4.6 1.1-7 .1-3.7-.6-7.4-2.2-10.8-1.4-2.7-3.4-5-6-6.7-2.7-1.7-5.7-2.9-8.9-3.4-3.6-.6-7.2-.9-10.8-.9-8.2 0-15 2-20.2 5.9s-8 10.2-8.2 18.9h-13c.2-5.4 1.6-10.9 3.9-16zm64.9 31.8c-1.1 1.7-2.8 2.9-4.7 3.3-2 .6-4.1 1.1-6.2 1.4-5.5 1-11.2 1.8-17 2.6-5.4.7-10.8 1.8-16 3.4-4.4 1.3-8.4 3.5-11.8 6.5-3.1 2.8-4.6 6.8-4.6 12.1 0 3 .6 6 2 8.8 1.3 2.5 3.1 4.8 5.3 6.6 2.2 1.9 4.8 3.3 7.6 4.2 2.9 1 5.8 1.4 8.9 1.4 4.8 0 9.6-.7 14.2-2.3 4.3-1.4 8.4-3.6 11.9-6.6 7.2-6.1 11.2-15.1 11-24.5v-16.9z"/><path d="m408.8 516.3c-1.4-2.9-3.5-5.4-6.1-7.3-2.6-2-5.6-3.4-8.8-4.2-3.4-.9-7-1.4-10.5-1.3-2.9 0-5.9.3-8.8.9s-5.6 1.6-8.1 3.1c-2.4 1.4-4.5 3.3-6 5.7-1.6 2.6-2.4 5.6-2.3 8.7-.1 2.6.7 5.2 2.2 7.3 1.5 2 3.3 3.7 5.5 5 2.3 1.4 4.7 2.6 7.2 3.4 2.6.9 5 1.6 7.2 2.2l17.3 3.9c3.8.6 7.5 1.6 11 3s6.8 3.3 9.7 5.7 5.2 5.3 6.9 8.7c1.9 3.8 2.8 7.9 2.8 12.2.1 5.2-1.3 10.3-4 14.7-2.6 4-6 7.4-10 9.9-4.2 2.6-8.9 4.5-13.7 5.5-4.9 1.1-10 1.6-15 1.7-12.5 0-22.6-3-30.4-8.9s-12.2-15.4-13.3-28.5h13c.5 8.8 3.7 15.4 9.6 19.9 5.8 4.5 13.1 6.7 21.7 6.7 3.3 0 6.6-.3 9.8-1 3.3-.7 6.5-1.8 9.4-3.5 2.8-1.6 5.2-3.7 7.1-6.3 1.9-2.7 2.9-6.1 2.8-9.4.1-2.8-.6-5.5-2-7.9-1.3-2.2-3.1-4-5.3-5.4-2.4-1.5-4.9-2.7-7.5-3.6-2.8-1-5.7-1.8-8.5-2.5l-16.7-3.7c-4-1-7.9-2.3-11.8-3.8-3.4-1.3-6.5-3.1-9.4-5.4-2.7-2.1-4.8-4.8-6.3-7.8-1.6-3.6-2.4-7.5-2.3-11.4-.1-4.9 1.1-9.6 3.6-13.8 2.3-3.8 5.6-7 9.4-9.3 4-2.4 8.3-4.1 12.9-5.1 4.6-1.1 9.4-1.6 14.1-1.6 5.1 0 10.1.6 14.9 2.1 4.4 1.3 8.6 3.5 12.2 6.4 3.5 2.9 6.4 6.6 8.4 10.7 2.2 4.7 3.4 9.8 3.5 15h-13c0-3.9-.8-7.5-2.4-10.7z"/><path d="m457.4 454.7v59.2h.4c2.5-6.5 7.2-12 13.2-15.6 6.2-3.9 13.5-5.9 20.8-5.9 7.4 0 13.6 1 18.7 2.9 4.6 1.7 8.8 4.5 12 8.1 3.1 3.7 5.3 8.1 6.4 12.9 1.3 5.6 1.9 11.4 1.8 17.1v68.5h-13v-66.4c0-4.3-.4-8.5-1.2-12.7-.7-3.7-2.2-7.1-4.3-10.2-2.1-3-5-5.3-8.4-6.8-4.1-1.8-8.6-2.6-13.1-2.5-4.8-.1-9.5.9-13.9 2.8-3.9 1.8-7.5 4.4-10.3 7.6-2.9 3.4-5.2 7.3-6.6 11.5-1.6 4.7-2.5 9.6-2.6 14.5v62.1h-13v-147.1z"/><path d="m340.9 146.3v-30.1h-53.9v-33.1h-33.1v33.1h-53.8v39.9h83.5l-83.5 113.3v30.1h53.8v33h33.1v-33h53.9v-39.9h-83.5z"/></g></svg>