<?xml version="1.0" encoding="utf-8"?>
<!-- Generator: Adobe Illustrator 23.0.2, SVG Export Plug-In . SVG Version: 6.00 Build 0)  -->
<svg version="1.1" id="Layer_1" xmlns="http://www.w3.org/2000/svg" xmlns:xlink="http://www.w3.org/1999/xlink" x="0px" y="0px"
	 viewBox="0 0 538.3 612" style="enable-background:new 0 0 538.3 612;" xml:space="preserve">
<style type="text/css">
	.st0{fill:#FFFFFF;}
</style>
<title>headerArtboard 7</title>
<path class="st0" d="M270.5,10.4C161.6,10.4,73,99,73,207.9s88.6,197.4,197.5,197.4s197.4-88.6,197.4-197.4S379.3,10.4,270.5,10.4z
	 M270.5,372.7c-90.9,0-164.9-73.9-164.9-164.9S179.6,43,270.5,43s164.9,74,164.9,164.9S361.4,372.7,270.5,372.7z"/>
<path class="st0" d="M122.7,454.7v12.4L25.8,590h99v12H10.1v-12.4L107,466.7H16.7v-12L122.7,454.7z"/>
<path class="st0" d="M202.8,510.2c-4.8-4.5-11.5-6.8-20.2-6.8c-5.7-0.1-11.3,1.2-16.3,3.9c-4.6,2.5-8.6,6.1-11.6,10.3
	c-3.2,4.4-5.5,9.3-7,14.5c-3.2,10.8-3.2,22.4,0,33.2c1.5,5.2,3.8,10.1,7,14.5c3.1,4.2,7.1,7.8,11.6,10.3c5,2.7,10.6,4,16.3,3.9
	c3.9,0,7.8-0.7,11.4-2.3c3.5-1.5,6.7-3.6,9.5-6.3c2.8-2.8,5.1-6,6.8-9.6c1.8-3.8,2.9-7.9,3.3-12.2h13c-1.8,12.9-6.5,23-14.2,30.2
	c-7.7,7.2-17.6,10.8-29.7,10.8c-7.4,0.1-14.8-1.4-21.5-4.4c-6.1-2.8-11.5-6.9-15.8-12.1c-4.4-5.3-7.6-11.3-9.7-17.8
	c-4.4-14.2-4.4-29.3,0-43.5c2-6.5,5.3-12.6,9.7-17.8c4.3-5.1,9.7-9.3,15.8-12.2c6.7-3.1,14.1-4.7,21.5-4.5c11.4,0,21.1,3,29,9.1
	c7.9,6,12.6,15.2,14.1,27.5h-13C210.9,521,207.6,514.7,202.8,510.2z"/>
<path class="st0" d="M245.3,512c2.1-4.4,5.2-8.2,9-11.1c4-3,8.5-5.2,13.3-6.4c5.5-1.4,11.2-2.1,16.9-2.1c4.7,0,9.4,0.4,14,1.3
	c4.5,0.8,8.8,2.5,12.6,5c3.9,2.6,7,6.2,9.1,10.4c2.3,4.5,3.5,10.3,3.5,17.4v56.5c0,5.2,2.5,7.8,7.6,7.8c1.4,0,2.8-0.3,4.1-0.8v10.9
	c-1.5,0.3-2.9,0.5-4,0.6c-1.5,0.2-3,0.2-4.4,0.2c-2.7,0.1-5.4-0.4-7.9-1.3c-1.9-0.8-3.5-2.1-4.6-3.8c-1.1-1.8-1.9-3.8-2.2-5.9
	c-0.4-2.5-0.5-5-0.5-7.5h-0.4c-2.2,3.2-4.5,6.3-7.1,9.2c-2.3,2.6-5,4.9-8,6.7c-3.2,1.9-6.6,3.3-10.2,4.1c-4.4,1-9,1.5-13.5,1.4
	c-4.7,0-9.4-0.6-13.9-1.8c-4.1-1.1-8-3-11.3-5.6c-3.3-2.6-5.9-5.9-7.6-9.7c-2-4.4-2.9-9.1-2.8-13.9c0-7.4,1.6-13.2,4.9-17.4
	c3.4-4.3,8-7.6,13.1-9.6c5.9-2.3,12.1-3.9,18.4-4.6c6.8-0.9,13.7-1.8,20.7-2.6c2.8-0.3,5.2-0.6,7.2-1c1.9-0.3,3.6-1.1,5.1-2.2
	c1.4-1.1,2.5-2.6,3.2-4.2c0.8-2.2,1.2-4.6,1.1-7c0.1-3.7-0.6-7.4-2.2-10.8c-1.4-2.7-3.4-5-6-6.7c-2.7-1.7-5.7-2.9-8.9-3.4
	c-3.6-0.6-7.2-0.9-10.8-0.9c-8.2,0-15,2-20.2,5.9s-8,10.2-8.2,18.9h-13C241.6,522.6,243,517.1,245.3,512z M310.2,543.8
	c-1.1,1.7-2.8,2.9-4.7,3.3c-2,0.6-4.1,1.1-6.2,1.4c-5.5,1-11.2,1.8-17,2.6c-5.4,0.7-10.8,1.8-16,3.4c-4.4,1.3-8.4,3.5-11.8,6.5
	c-3.1,2.8-4.6,6.8-4.6,12.1c0,3,0.6,6,2,8.8c1.3,2.5,3.1,4.8,5.3,6.6c2.2,1.9,4.8,3.3,7.6,4.2c2.9,1,5.8,1.4,8.9,1.4
	c4.8,0,9.6-0.7,14.2-2.3c4.3-1.4,8.4-3.6,11.9-6.6c7.2-6.1,11.2-15.1,11-24.5v-16.9H310.2z"/>
<path class="st0" d="M408.8,516.3c-1.4-2.9-3.5-5.4-6.1-7.3c-2.6-2-5.6-3.4-8.8-4.2c-3.4-0.9-7-1.4-10.5-1.3c-2.9,0-5.9,0.3-8.8,0.9
	c-2.9,0.6-5.6,1.6-8.1,3.1c-2.4,1.4-4.5,3.3-6,5.7c-1.6,2.6-2.4,5.6-2.3,8.7c-0.1,2.6,0.7,5.2,2.2,7.3c1.5,2,3.3,3.7,5.5,5
	c2.3,1.4,4.7,2.6,7.2,3.4c2.6,0.9,5,1.6,7.2,2.2l17.3,3.9c3.8,0.6,7.5,1.6,11,3c3.5,1.4,6.8,3.3,9.7,5.7c2.9,2.4,5.2,5.3,6.9,8.7
	c1.9,3.8,2.8,7.9,2.8,12.2c0.1,5.2-1.3,10.3-4,14.7c-2.6,4-6,7.4-10,9.9c-4.2,2.6-8.9,4.5-13.7,5.5c-4.9,1.1-10,1.6-15,1.7
	c-12.5,0-22.6-3-30.4-8.9s-12.2-15.4-13.3-28.5h13c0.5,8.8,3.7,15.4,9.6,19.9c5.8,4.5,13.1,6.7,21.7,6.7c3.3,0,6.6-0.3,9.8-1
	c3.3-0.7,6.5-1.8,9.4-3.5c2.8-1.6,5.2-3.7,7.1-6.3c1.9-2.7,2.9-6.1,2.8-9.4c0.1-2.8-0.6-5.5-2-7.9c-1.3-2.2-3.1-4-5.3-5.4
	c-2.4-1.5-4.9-2.7-7.5-3.6c-2.8-1-5.7-1.8-8.5-2.5l-16.7-3.7c-4-1-7.9-2.3-11.8-3.8c-3.4-1.3-6.5-3.1-9.4-5.4
	c-2.7-2.1-4.8-4.8-6.3-7.8c-1.6-3.6-2.4-7.5-2.3-11.4c-0.1-4.9,1.1-9.6,3.6-13.8c2.3-3.8,5.6-7,9.4-9.3c4-2.4,8.3-4.1,12.9-5.1
	c4.6-1.1,9.4-1.6,14.1-1.6c5.1,0,10.1,0.6,14.9,2.1c4.4,1.3,8.6,3.5,12.2,6.4c3.5,2.9,6.4,6.6,8.4,10.7c2.2,4.7,3.4,9.8,3.5,15h-13
	C411.2,523.1,410.4,519.5,408.8,516.3z"/>
<path class="st0" d="M457.4,454.7v59.2h0.4c2.5-6.5,7.2-12,13.2-15.6c6.2-3.9,13.5-5.9,20.8-5.9c7.4,0,13.6,1,18.7,2.9
	c4.6,1.7,8.8,4.5,12,8.1c3.1,3.7,5.3,8.1,6.4,12.9c1.3,5.6,1.9,11.4,1.8,17.1v68.5h-13v-66.4c0-4.3-0.4-8.5-1.2-12.7
	c-0.7-3.7-2.2-7.1-4.3-10.2c-2.1-3-5-5.3-8.4-6.8c-4.1-1.8-8.6-2.6-13.1-2.5c-4.8-0.1-9.5,0.9-13.9,2.8c-3.9,1.8-7.5,4.4-10.3,7.6
	c-2.9,3.4-5.2,7.3-6.6,11.5c-1.6,4.7-2.5,9.6-2.6,14.5v62.1h-13V454.7H457.4z"/>
<polygon class="st0" points="340.9,146.3 340.9,116.2 287,116.2 287,83.1 253.9,83.1 253.9,116.2 200.1,116.2 200.1,156.1 
	283.6,156.1 200.1,269.4 200.1,299.5 253.9,299.5 253.9,332.5 287,332.5 287,299.5 340.9,299.5 340.9,259.6 257.4,259.6 "/>
</svg>
