<svg enable-background="new 0 0 792 612" viewBox="0 0 792 612" xmlns="http://www.w3.org/2000/svg"><path d="m458.44 306c0 34.48-27.95 62.43-62.44 62.43-34.48 0-62.43-27.95-62.43-62.43s27.95-62.43 62.43-62.43 62.44 27.95 62.44 62.43" fill="#76bc21"/><path d="m439.42 297.57c-.25-1.29-.57-2.55-.93-3.79-4.18-14.47-15.58-25.87-30.05-30.04-1.23-.36-2.47-.67-3.74-.92-5.43 5.43-8.45 14.06-8.45 21.05 0-6.88-2.05-14.64-8.45-21.05-1.27.25-2.52.57-3.75.92-14.47 4.18-25.87 15.58-30.05 30.04-.36 1.24-.68 2.5-.93 3.79 5.38 5.38 13.74 8.42 21.03 8.42-7.2 0-15.18 2.58-21.03 8.43.25 1.29.57 2.55.93 3.8 4.19 14.47 15.59 25.86 30.05 30.05 1.22.35 2.46.67 3.72.92 6.33-6.33 8.47-14.41 8.47-21.08 0 6.67 2.7 15.32 8.46 21.08 1.26-.25 2.49-.56 3.71-.91 14.46-4.18 25.86-15.58 30.05-30.04.36-1.25.68-2.51.94-3.8-5.83-5.83-14.21-8.43-21.02-8.43 6.42-.02 15.42-2.82 21.04-8.44m-43.17 18.45c-5.53 0-10.02-4.49-10.02-10.02s4.49-10.02 10.02-10.02 10.02 4.49 10.02 10.02-4.49 10.02-10.02 10.02" fill="#fff"/><path d="m396.25 295.98c-5.53 0-10.02 4.49-10.02 10.02s4.49 10.02 10.02 10.02 10.02-4.49 10.02-10.02-4.49-10.02-10.02-10.02"/></svg>