<?xml version="1.0" encoding="utf-8"?>
<!-- Generator: Adobe Illustrator 23.0.1, SVG Export Plug-In . SVG Version: 6.00 Build 0)  -->
<svg version="1.1" id="Layer_1" xmlns="http://www.w3.org/2000/svg" xmlns:xlink="http://www.w3.org/1999/xlink" x="0px" y="0px"
	 viewBox="0 0 792 612" style="enable-background:new 0 0 792 612;" xml:space="preserve">
<style type="text/css">
	.st0{fill:#76BC21;}
	.st1{fill:#FFFFFF;}
</style>
<path class="st0" d="M458.44,306c0,34.48-27.95,62.43-62.44,62.43c-34.48,0-62.43-27.95-62.43-62.43s27.95-62.43,62.43-62.43
	C430.48,243.57,458.44,271.52,458.44,306"/>
<path class="st1" d="M439.42,297.57c-0.25-1.29-0.57-2.55-0.93-3.79c-4.18-14.47-15.58-25.87-30.05-30.04
	c-1.23-0.36-2.47-0.67-3.74-0.92c-5.43,5.43-8.45,14.06-8.45,21.05c0-6.88-2.05-14.64-8.45-21.05c-1.27,0.25-2.52,0.57-3.75,0.92
	c-14.47,4.18-25.87,15.58-30.05,30.04c-0.36,1.24-0.68,2.5-0.93,3.79c5.38,5.38,13.74,8.42,21.03,8.42c-7.2,0-15.18,2.58-21.03,8.43
	c0.25,1.29,0.57,2.55,0.93,3.8c4.19,14.47,15.59,25.86,30.05,30.05c1.22,0.35,2.46,0.67,3.72,0.92c6.33-6.33,8.47-14.41,8.47-21.08
	c0,6.67,2.7,15.32,8.46,21.08c1.26-0.25,2.49-0.56,3.71-0.91c14.46-4.18,25.86-15.58,30.05-30.04c0.36-1.25,0.68-2.51,0.94-3.8
	c-5.83-5.83-14.21-8.43-21.02-8.43C424.8,305.99,433.8,303.19,439.42,297.57 M396.25,316.02c-5.53,0-10.02-4.49-10.02-10.02
	c0-5.53,4.49-10.02,10.02-10.02c5.53,0,10.02,4.49,10.02,10.02C406.27,311.53,401.78,316.02,396.25,316.02"/>
<path d="M396.25,295.98c-5.53,0-10.02,4.49-10.02,10.02c0,5.53,4.49,10.02,10.02,10.02c5.53,0,10.02-4.49,10.02-10.02
	C406.27,300.47,401.78,295.98,396.25,295.98"/>
</svg>
