<?xml version="1.0" encoding="utf-8"?>
<!-- Generator: Adobe Illustrator 24.0.3, SVG Export Plug-In . SVG Version: 6.00 Build 0)  -->
<svg version="1.1" id="Layer_1" xmlns="http://www.w3.org/2000/svg" xmlns:xlink="http://www.w3.org/1999/xlink" x="0px" y="0px"
	 viewBox="0 0 792 612" style="enable-background:new 0 0 792 612;" xml:space="preserve">
<style type="text/css">
	.st0{fill:#0A1C2B;}
	.st1{fill:#76BC43;}
	.st2{fill:#FFFFFF;}
</style>
<polygon points="297.28,286.48 297.28,282.58 263.89,282.58 263.89,286.35 292.35,286.35 261.81,325.07 261.81,328.97 
	297.93,328.97 297.93,325.2 266.75,325.2 "/>
<path d="M316.83,326.5c-7.8,0-11.76-7.21-11.76-14.29c0-7.08,3.96-14.29,11.76-14.29c5.39,0,8.38,3.05,9.49,8.05h4.09
	c-0.98-7.73-6.37-11.5-13.58-11.5c-10.2,0-15.85,8.12-15.85,17.74c0,9.62,5.65,17.74,15.85,17.74c7.54,0,12.74-4.87,13.84-12.99
	h-4.09C326.06,322.47,321.83,326.5,316.83,326.5z"/>
<path d="M361.91,323.06v-17.8c0-9.03-6.43-10.79-12.35-10.79c-7.73,0-13.12,3.38-13.58,11.24h4.09c0.19-5.46,3.83-7.8,8.96-7.8
	c4.87,0,8.77,1.36,8.77,6.89c0,3.64-1.88,4.22-5.26,4.55c-8.84,1.04-18,1.43-18,10.78c0,6.76,5,9.81,11.24,9.81
	c6.5,0,9.29-2.47,12.21-6.82h0.13c0,3.44,0.65,5.85,4.81,5.85c1.1,0,1.69-0.06,2.66-0.26v-3.44c-0.46,0.2-0.84,0.26-1.3,0.26
	C362.69,325.53,361.91,324.68,361.91,323.06z M357.82,315.98c0,6.56-5.39,10.53-11.69,10.53c-3.9,0-7.47-2.53-7.47-6.63
	c0-6.5,8.64-6.5,15.59-7.73c1.1-0.19,2.93-0.52,3.44-1.49h0.13V315.98z"/>
<path d="M385.87,310.59l-5.46-1.23c-2.86-0.72-6.95-2.08-6.95-5.65c0-4.35,4.29-5.78,7.93-5.78c4.68,0,8.58,2.27,8.77,7.34h4.09
	c-0.32-7.28-5.52-10.79-12.28-10.79c-5.91,0-12.6,2.6-12.6,9.42c0,5.65,4.03,7.6,9.36,8.97l5.26,1.17c3.7,0.91,7.34,2.21,7.34,6.11
	c0,4.68-5.26,6.37-9.16,6.37c-5.46,0-9.55-2.86-9.88-8.38h-4.09c0.71,8.25,5.91,11.83,13.77,11.83c6.24,0,13.45-2.79,13.45-10.07
	C395.42,314.03,390.55,311.3,385.87,310.59z"/>
<path d="M416.21,294.47c-4.74,0-9.16,2.73-10.72,6.76h-0.13v-18.65h-4.09v46.39h4.09v-19.55c0.2-6.56,3.96-11.5,10.53-11.5
	c6.63,0,8.51,4.42,8.51,10.13v20.92h4.09V307.4C428.48,299.41,425.63,294.47,416.21,294.47z"/>
<path d="M436.76,305.41v23.48h-1.31v-46.31h1.31v21.53h32.75v-21.53h1.31v46.31h-1.31v-23.48H436.76z"/>
<path d="M476.52,312.48c0.2,8.95,3.73,15.89,13.3,15.89c7.01,0,12.05-3.76,13.17-11.03h1.31c-0.85,7.65-6.75,12.32-14.35,12.32
	c-10.42,0.19-14.74-7.59-14.74-17.45c0-11.09,7.14-17.45,14.74-17.45c10.48,0,15.07,8.63,14.74,17.71H476.52z M503.37,311.19
	c0-8.17-4.59-15.11-13.3-15.11c-7.34,0-13.04,5.77-13.56,15.11H503.37z"/>
<path d="M509.04,305.87c0.33-6.29,4.52-11.09,12.84-11.09c5.96,0,10.94,2.27,11.14,9.53v21.21c0,2.53,2.42,2.27,4.26,2.08v1.3
	c-0.65,0.06-1.31,0.06-1.96,0.06c-1.9,0-3.6-0.78-3.6-3.31v-4.35h-0.13c-1.38,4.28-6.35,8.37-13.36,8.37
	c-6.75,0-11.27-3.05-11.27-9.02c0-8.24,5.96-9.66,11.6-9.99c9.24-0.52,13.17-0.39,13.17-5.38c0-3.96-0.85-9.21-9.83-9.21
	c-7.07,0-11.07,3.57-11.53,9.79H509.04z M531.71,309.31h-0.13c-1.7,2.46-7.73,2.34-13.04,2.66c-5.31,0.32-10.29,1.56-10.29,8.69
	c0,3.83,2.49,7.72,9.83,7.72c8.78,0,13.63-6.36,13.63-12.91V309.31z"/>
<path d="M541.26,328.89h-1.31v-33.34h1.31v8.24h0.13c1.24-4.93,5.18-9.21,13.23-9.02v1.3c-9.24-0.52-13.36,6.68-13.36,13.94V328.89z
	"/>
<path d="M564.15,296.85v25.55c0,4.99,2.49,5.19,4.52,5.19c1.31,0,2.42,0,2.88-0.19v1.3c-0.79,0.06-1.18,0.19-3.21,0.19
	c-3.08,0-5.5-1.49-5.5-6.23v-25.81h-6.22v-1.3h6.22v-10.51h1.31v10.51h7.6v1.3H564.15z"/>
<path d="M619.3,295.55h1.31l-10.74,33.34h-1.7l-10.48-32.04h-0.13l-10.55,32.04h-1.83l-10.48-33.34H576l10.02,32.04h0.13
	l10.42-32.04h2.03l10.35,32.04h0.13L619.3,295.55z"/>
<path d="M635.53,294.78c9.76,0,15.13,8.37,15.13,17.45c0,9.15-5.31,17.45-15.2,17.45c-9.83,0-15.13-8.3-15.13-17.45
	C620.33,303.14,625.63,294.78,635.53,294.78z M635.53,328.37c8.97,0,13.82-7.65,13.82-16.15c0-8.3-4.85-16.15-13.82-16.15
	c-9.11,0-13.89,7.85-13.89,16.15C621.64,320.72,626.42,328.37,635.53,328.37z"/>
<path d="M668.67,294.78c9.76,0,15.13,8.37,15.13,17.45c0,9.15-5.31,17.45-15.2,17.45c-9.83,0-15.13-8.3-15.13-17.45
	C653.47,303.14,658.78,294.78,668.67,294.78z M668.67,328.37c8.97,0,13.82-7.65,13.82-16.15c0-8.3-4.85-16.15-13.82-16.15
	c-9.11,0-13.89,7.85-13.89,16.15C654.78,320.72,659.57,328.37,668.67,328.37z"/>
<path d="M714.59,282.58h1.31v46.31h-1.31v-9.34h-0.13c-1.77,5.84-6.62,10.12-13.49,10.12c-8.91,0-14.35-7.33-14.35-17.38
	c0-9.34,5.04-17.51,14.35-17.51c7.14,0,11.92,4.09,13.49,10.12h0.13V282.58z M700.96,296.07c-9.17,0-13.04,8.5-13.04,16.21
	c0,8.56,4.32,16.09,13.04,16.09c8.65,0,13.63-7.46,13.63-16.09C714.59,301.91,709.15,296.07,700.96,296.07z"/>
<g>
	<path class="st0" d="M223.03,273.96c-1.52-1.7-3.21-3.48-5.17-5.43c-1.7-1.69-3.27-3.18-4.8-4.56
		c-10.67-9.6-19.77-13.52-31.4-13.52l-0.43,0c-7.15,0.07-14.96,1.35-21.98,3.61c-7.96,2.57-14.46,6.25-18.82,10.66
		c-9.53,9.64-10.49,22.46-10.66,34.77c-0.03,1.87-0.03,3.74-0.03,5.6l0,0.88l0,0.06l0,0.1c-0.02,15.58,2.09,25.11,14.15,37.16
		c11.25,11.24,23.47,16.74,37.33,16.82l0.27,0c13.25,0,26.94-6.06,37.58-16.62c10.84-10.76,17.06-24.69,17.07-38.21
		C236.15,293.49,232.35,284.41,223.03,273.96z"/>
	<path class="st1" d="M224.91,272.28c-1.64-1.84-3.4-3.67-5.27-5.54c-1.65-1.64-3.27-3.19-4.89-4.65
		c-9.84-8.86-19.48-14.17-33.09-14.17c-0.15,0-0.3,0-0.45,0c-13.93,0.13-32.49,4.82-42.56,15.02c-9.94,10.07-11.21,23.26-11.39,36.5
		c-0.03,1.88-0.03,3.75-0.03,5.62l0,0.88c0,0.05,0,0.11,0,0.16c-0.03,15.95,2.29,26.37,14.89,38.95
		c11.75,11.73,24.54,17.47,39.1,17.56c0.09,0,0.19,0,0.28,0c13.91,0,28.24-6.31,39.35-17.35c11.31-11.23,17.8-25.81,17.82-40
		C238.67,291.57,233.53,281.95,224.91,272.28z M181.49,360.1l-0.27,0c-13.87-0.09-26.08-5.59-37.33-16.82
		c-12.07-12.04-14.18-21.58-14.15-37.16l0-0.1l0-0.06l0-0.88c0-1.86,0.01-3.73,0.03-5.6c0.17-12.3,1.13-25.12,10.66-34.77
		c4.35-4.41,10.86-8.09,18.82-10.66c7.02-2.26,14.82-3.55,21.98-3.61l0.43,0c11.63,0,20.73,3.92,31.4,13.52
		c1.53,1.38,3.1,2.87,4.8,4.56c1.96,1.95,3.65,3.73,5.17,5.43c9.32,10.46,13.12,19.53,13.11,31.31
		c-0.01,13.52-6.23,27.45-17.07,38.21C208.44,354.04,194.74,360.1,181.49,360.1z"/>
	<path class="st2" d="M181.22,352.87c-12.12,0-23-4.83-33.26-14.77c-11-10.65-13.06-19.72-13.02-32.74l0-0.24
		c0.04-12.31,0.08-26.27,10.01-35.85c8.97-8.66,25.09-12.56,36.45-12.56c0.12,0,0.25,0,0.37,0c11.34,0.09,23.09,5.46,32.25,14.74
		c9.15,9.27,14.38,21.09,14.36,32.42l0,0c-0.02,11.98-5.06,24.25-13.81,33.67c-9.06,9.74-20.71,15.18-32.8,15.32
		C181.58,352.87,181.4,352.87,181.22,352.87z M181.39,257.75c-11.15,0-26.96,3.81-35.72,12.27c-9.61,9.28-9.65,22.41-9.69,35.11
		l0,0.24c-0.05,14.87,3.04,22.64,12.7,32c10.2,9.88,21,14.62,33.06,14.47c11.81-0.14,23.19-5.46,32.05-14.99
		c8.58-9.23,13.51-21.24,13.54-32.96l0,0c0.02-11.06-5.1-22.62-14.06-31.69c-8.97-9.09-20.45-14.35-31.52-14.43
		C181.63,257.75,181.51,257.75,181.39,257.75z"/>
	<path class="st2" d="M183.38,344.49c0,0-0.01,0-0.01,0c-9.78,0-18.11-3.76-26.21-11.81c-8.5-8.45-10.08-15.73-10.03-26.21l0-0.74
		c0.04-9.58,0.09-20.44,7.71-28.07c7.36-7.37,19.97-10.05,28.53-10.11c0.06,0,0.11,0,0.17,0c8.82,0,18.31,4.42,26.07,12.14
		c7.73,7.7,12.34,17.54,12.32,26.33l0,0c-0.02,9.47-4.33,19.19-11.84,26.68C202.59,340.2,192.85,344.49,183.38,344.49z
		 M183.54,268.53c-0.05,0-0.11,0-0.16,0c-13.41,0.08-23.38,5.34-27.85,9.82c-7.33,7.34-7.38,17.53-7.42,27.38l0,0.74
		c-0.05,10.21,1.48,17.3,9.74,25.51c7.91,7.86,16.02,11.53,25.53,11.53c0,0,0.01,0,0.01,0c19.29,0,37.55-18.22,37.58-37.5
		c0.02-8.53-4.48-18.12-12.04-25.63C201.34,272.85,192.1,268.53,183.54,268.53z"/>
	<path class="st2" d="M181.57,333.64c-0.09,0-0.17,0-0.26,0c-6.69-0.08-13.1-3.06-18.05-8.37c-4.77-5.12-7.45-11.76-7.37-18.22
		c0.11-8.15,2.25-14.66,6.36-19.35c4.38-5,10.79-7.64,19.05-7.86c5.91-0.15,12.48,2.86,18.02,8.27c5.68,5.56,9.06,12.52,9.04,18.63
		l0,0c-0.03,6.58-3.17,13.42-8.61,18.78C194.51,330.7,187.89,333.64,181.57,333.64z M181.74,280.88c-0.13,0-0.26,0-0.4,0.01
		c-15.51,0.41-24.18,9.71-24.4,26.18c-0.08,6.19,2.5,12.57,7.09,17.49c4.75,5.1,10.9,7.96,17.3,8.04c6.11,0.08,12.58-2.77,17.7-7.81
		c5.25-5.17,8.28-11.74,8.3-18.05c0.02-5.83-3.24-12.52-8.73-17.89C193.48,283.84,187.2,280.88,181.74,280.88z"/>
	<g id="XMLID_5_">
		<g>
		</g>
		<g>
			<g>
				<path class="st2" d="M181.51,324.65c-0.03,0-0.07,0-0.1,0c-3.76-0.05-7.52-1.84-10.59-5.02c-3.42-3.56-5.49-8.42-5.38-12.68
					c0.28-11.46,6.11-18.06,16-18.1c0.01,0,0.01,0,0.02,0c4.39,0,15.83,5.54,18.3,11.75c0.94,2.38,0.42,4.59-1.52,6.4
					c-1.59,1.49-3.09,3.98-4.69,6.63C190.43,318.8,186.9,324.65,181.51,324.65z M181.45,289.89c-0.01,0-0.01,0-0.02,0
					c-13.14,0.05-14.84,11.97-14.96,17.08c-0.1,4,1.86,8.57,5.09,11.94c2.87,2.99,6.38,4.66,9.86,4.7c0.03,0,0.06,0,0.08,0
					c4.81,0,8.17-5.59,11.14-10.52c1.63-2.71,3.17-5.27,4.87-6.85l0,0c1.65-1.54,2.06-3.26,1.27-5.26
					C196.5,295.23,185.51,289.89,181.45,289.89z"/>
			</g>
		</g>
	</g>
</g>
</svg>
