<?xml version="1.0" encoding="utf-8"?>
<!-- Generator: Adobe Illustrator 23.0.2, SVG Export Plug-In . SVG Version: 6.00 Build 0)  -->
<svg version="1.1" id="Layer_1" xmlns="http://www.w3.org/2000/svg" xmlns:xlink="http://www.w3.org/1999/xlink" x="0px" y="0px"
	 viewBox="0 0 1169.3 490.2" style="enable-background:new 0 0 1169.3 490.2;" xml:space="preserve">
<style type="text/css">
	.st0{fill:#FFFFFF;}
</style>
<title>headerArtboard 7</title>
<path class="st0" d="M242.4,9.3C113.3,9.3,8.3,114.3,8.3,243.4s105,234.1,234.1,234.1s234.1-105,234.1-234.1S371.5,9.3,242.4,9.3z
	 M242.4,438.9c-107.8,0-195.5-87.7-195.5-195.5S134.6,48,242.4,48s195.5,87.7,195.5,195.5S350.2,438.9,242.4,438.9z"/>
<path class="st0" d="M674.5,155.6v14.7L559.6,316h117.3v14.2H541v-14.7l114.9-145.7H548.8v-14.2H674.5z"/>
<path class="st0" d="M769.6,221.4c-5.7-5.4-13.7-8.1-24-8.1c-6.7-0.1-13.4,1.5-19.3,4.7c-5.4,3-10.2,7.2-13.8,12.2
	c-3.7,5.2-6.6,11-8.3,17.2c-3.7,12.9-3.7,26.5,0,39.4c1.8,6.2,4.6,12,8.3,17.2c3.7,5,8.4,9.2,13.8,12.2c5.9,3.2,12.6,4.8,19.3,4.6
	c4.6,0,9.2-0.9,13.5-2.7c4.2-1.8,8-4.3,11.2-7.5c3.3-3.3,6.1-7.1,8.1-11.4c2.1-4.5,3.5-9.4,3.9-14.4h15.4
	c-2.1,15.3-7.7,27.3-16.9,35.8s-20.9,12.8-35.2,12.8c-9.6,0-18.1-1.8-25.5-5.2c-7.2-3.3-13.6-8.2-18.7-14.3
	c-5.2-6.2-9.1-13.4-11.5-21.1c-5.2-16.8-5.2-34.8,0-51.6c2.4-7.7,6.3-14.9,11.5-21.1c5.1-6.1,11.5-11,18.7-14.4
	c7.4-3.6,15.9-5.4,25.5-5.4c13.5,0,25,3.6,34.3,10.8c9.4,7.2,15,18,16.7,32.5h-15.4C779.2,234.2,775.3,226.8,769.6,221.4z"/>
<path class="st0" d="M819.9,223.6c2.4-5.2,6.1-9.7,10.6-13.2c4.7-3.5,10.1-6.1,15.8-7.6c6.5-1.7,13.3-2.5,20-2.4
	c5.6,0,11.2,0.6,16.7,1.6c5.3,1,10.4,3,14.9,6c4.6,3.1,8.3,7.4,10.8,12.4c2.8,5.3,4.2,12.2,4.2,20.6v67c0,6.2,3,9.3,9,9.3
	c1.7,0,3.3-0.3,4.9-1v12.9c-1.8,0.3-3.4,0.6-4.8,0.7c-1.7,0.2-3.5,0.3-5.2,0.2c-3.2,0.1-6.4-0.4-9.4-1.6c-2.2-0.9-4.1-2.5-5.5-4.5
	c-1.4-2.1-2.2-4.5-2.6-7c-0.4-3-0.6-5.9-0.6-8.9h-0.5c-2.6,3.8-5.4,7.4-8.4,10.9c-2.8,3.1-6,5.8-9.5,7.9c-3.7,2.2-7.8,3.9-12,4.9
	c-5.2,1.2-10.6,1.8-16,1.7c-5.6,0-11.1-0.7-16.5-2.1c-4.9-1.3-9.5-3.5-13.4-6.6c-3.9-3.1-6.9-7-9-11.5c-2.3-5.2-3.4-10.8-3.3-16.5
	c0-8.8,2-15.7,5.9-20.6c4.1-5.1,9.4-9,15.5-11.4c7-2.7,14.3-4.6,21.8-5.5c8.1-1.1,16.2-2.1,24.6-3c3.3-0.3,6.1-0.7,8.6-1.2
	c2.2-0.4,4.3-1.3,6.1-2.6c1.7-1.3,3-3,3.8-5c1-2.7,1.4-5.5,1.3-8.3c0-5.2-0.9-9.5-2.6-12.8c-1.6-3.2-4.1-6-7.1-7.9
	c-3.2-2-6.8-3.4-10.5-4c-4.2-0.8-8.5-1.1-12.8-1.1c-9.8,0-17.8,2.3-24,7c-6.2,4.7-9.4,12.1-9.8,22.4h-15.4
	C815.6,236.1,817.2,229.6,819.9,223.6z M896.9,261.2c-1,1.8-2.9,3.1-5.6,3.9c-2.4,0.7-4.9,1.3-7.3,1.7c-6.5,1.1-13.2,2.2-20.2,3
	c-6.4,0.8-12.8,2.1-18.9,4c-5.2,1.5-10,4.1-14.1,7.7c-3.7,3.3-5.5,8.1-5.5,14.3c-0.1,3.6,0.7,7.2,2.3,10.4c1.5,3,3.6,5.7,6.2,7.8
	c2.7,2.2,5.7,3.9,9,5c3.4,1.1,6.9,1.7,10.5,1.7c5.7,0,11.4-0.9,16.9-2.7c5.2-1.7,9.9-4.3,14.1-7.8c8.5-7.2,13.3-17.9,13.1-29.1v-20
	L896.9,261.2z"/>
<path class="st0" d="M1013.8,228.6c-1.7-3.4-4.2-6.4-7.2-8.7c-3.1-2.3-6.6-4-10.4-5c-4.1-1.1-8.3-1.6-12.5-1.6
	c-3.5,0-7,0.4-10.4,1.1c-3.4,0.7-6.7,1.9-9.7,3.7c-2.9,1.6-5.3,3.9-7.1,6.7c-1.9,3.1-2.8,6.7-2.7,10.3c-0.1,3.1,0.8,6.1,2.6,8.7
	c1.7,2.4,4,4.4,6.5,6c2.7,1.7,5.6,3,8.5,4c3.1,1.1,6,1.9,8.6,2.6l20.5,4.6c4.5,0.7,8.9,1.9,13.1,3.5c4.2,1.6,8,3.9,11.5,6.7
	c3.4,2.8,6.2,6.3,8.2,10.3c2.2,4.5,3.3,9.4,3.2,14.4c0,6.8-1.6,12.7-4.7,17.5c-3,4.7-7.1,8.8-11.9,11.8c-5,3.1-10.5,5.3-16.3,6.5
	c-5.9,1.3-11.8,2-17.8,2c-14.8,0-26.8-3.5-36-10.5c-9.2-7-14.4-18.2-15.8-33.7h15.4c0.7,10.4,4.5,18.3,11.4,23.6
	c6.9,5.3,15.5,7.9,25.8,7.9c3.9,0,7.8-0.4,11.6-1.2c3.9-0.8,7.7-2.2,11.1-4.2c3.3-1.9,6.2-4.4,8.4-7.5c2.3-3.3,3.4-7.2,3.3-11.1
	c0.1-3.3-0.7-6.6-2.3-9.4c-1.6-2.6-3.7-4.7-6.2-6.4c-2.8-1.8-5.8-3.2-8.9-4.3c-3.3-1.1-6.7-2.1-10.2-2.9l-19.8-4.4
	c-4.8-1.2-9.4-2.8-14-4.6c-4-1.6-7.7-3.7-11.1-6.4c-3.1-2.5-5.7-5.7-7.5-9.3c-1.9-4.3-2.8-8.9-2.7-13.6c-0.2-5.8,1.3-11.4,4.3-16.4
	c2.8-4.5,6.6-8.3,11.1-11c4.7-2.8,9.9-4.9,15.3-6.1c5.5-1.3,11.1-2,16.7-2c6-0.1,12,0.8,17.7,2.4c5.3,1.5,10.2,4.1,14.4,7.6
	c4.2,3.5,7.6,7.8,9.9,12.7c2.6,5.6,4,11.7,4.2,17.8h-15.4C1016.6,236.6,1015.6,232.4,1013.8,228.6z"/>
<path class="st0" d="M1071.5,155.6v70.2h0.5c3-7.7,8.5-14.2,15.6-18.5c7.4-4.6,16-7.1,24.7-7c8.8,0,16.2,1.1,22.1,3.4
	c5.5,2,10.4,5.3,14.3,9.7c3.7,4.4,6.3,9.6,7.6,15.3c1.5,6.7,2.3,13.5,2.2,20.3v81.2h-15.4v-78.7c0-5-0.5-10.1-1.5-15
	c-0.9-4.3-2.6-8.5-5.1-12.1c-2.5-3.5-5.9-6.3-9.9-8.1c-4.2-2-9.3-2.9-15.5-2.9c-5.7-0.1-11.3,1-16.5,3.3c-4.7,2.1-8.8,5.2-12.2,9.1
	c-3.5,4-6.1,8.7-7.8,13.7c-1.9,5.5-3,11.4-3.1,17.2v73.6h-15.4V155.6H1071.5z"/>
<polygon class="st0" points="325.9,170.4 325.9,134.8 262,134.8 262,95.6 222.8,95.6 222.8,134.8 158.9,134.8 158.9,182 257.9,182 
	158.9,316.4 158.9,352.1 222.8,352.1 222.8,391.2 262,391.2 262,352.1 325.9,352.1 325.9,304.8 226.9,304.8 "/>
</svg>
