<svg enable-background="new 0 0 1169.3 490.2" viewBox="0 0 1169.3 490.2" xmlns="http://www.w3.org/2000/svg"><g fill="#fff"><path d="m242.4 9.3c-129.1 0-234.1 105-234.1 234.1s105 234.1 234.1 234.1 234.1-105 234.1-234.1-105-234.1-234.1-234.1zm0 429.6c-107.8 0-195.5-87.7-195.5-195.5s87.7-195.4 195.5-195.4 195.5 87.7 195.5 195.5-87.7 195.4-195.5 195.4z"/><path d="m674.5 155.6v14.7l-114.9 145.7h117.3v14.2h-135.9v-14.7l114.9-145.7h-107.1v-14.2z"/><path d="m769.6 221.4c-5.7-5.4-13.7-8.1-24-8.1-6.7-.1-13.4 1.5-19.3 4.7-5.4 3-10.2 7.2-13.8 12.2-3.7 5.2-6.6 11-8.3 17.2-3.7 12.9-3.7 26.5 0 39.4 1.8 6.2 4.6 12 8.3 17.2 3.7 5 8.4 9.2 13.8 12.2 5.9 3.2 12.6 4.8 19.3 4.6 4.6 0 9.2-.9 13.5-2.7 4.2-1.8 8-4.3 11.2-7.5 3.3-3.3 6.1-7.1 8.1-11.4 2.1-4.5 3.5-9.4 3.9-14.4h15.4c-2.1 15.3-7.7 27.3-16.9 35.8s-20.9 12.8-35.2 12.8c-9.6 0-18.1-1.8-25.5-5.2-7.2-3.3-13.6-8.2-18.7-14.3-5.2-6.2-9.1-13.4-11.5-21.1-5.2-16.8-5.2-34.8 0-51.6 2.4-7.7 6.3-14.9 11.5-21.1 5.1-6.1 11.5-11 18.7-14.4 7.4-3.6 15.9-5.4 25.5-5.4 13.5 0 25 3.6 34.3 10.8 9.4 7.2 15 18 16.7 32.5h-15.4c-2-9.4-5.9-16.8-11.6-22.2z"/><path d="m819.9 223.6c2.4-5.2 6.1-9.7 10.6-13.2 4.7-3.5 10.1-6.1 15.8-7.6 6.5-1.7 13.3-2.5 20-2.4 5.6 0 11.2.6 16.7 1.6 5.3 1 10.4 3 14.9 6 4.6 3.1 8.3 7.4 10.8 12.4 2.8 5.3 4.2 12.2 4.2 20.6v67c0 6.2 3 9.3 9 9.3 1.7 0 3.3-.3 4.9-1v12.9c-1.8.3-3.4.6-4.8.7-1.7.2-3.5.3-5.2.2-3.2.1-6.4-.4-9.4-1.6-2.2-.9-4.1-2.5-5.5-4.5-1.4-2.1-2.2-4.5-2.6-7-.4-3-.6-5.9-.6-8.9h-.5c-2.6 3.8-5.4 7.4-8.4 10.9-2.8 3.1-6 5.8-9.5 7.9-3.7 2.2-7.8 3.9-12 4.9-5.2 1.2-10.6 1.8-16 1.7-5.6 0-11.1-.7-16.5-2.1-4.9-1.3-9.5-3.5-13.4-6.6s-6.9-7-9-11.5c-2.3-5.2-3.4-10.8-3.3-16.5 0-8.8 2-15.7 5.9-20.6 4.1-5.1 9.4-9 15.5-11.4 7-2.7 14.3-4.6 21.8-5.5 8.1-1.1 16.2-2.1 24.6-3 3.3-.3 6.1-.7 8.6-1.2 2.2-.4 4.3-1.3 6.1-2.6 1.7-1.3 3-3 3.8-5 1-2.7 1.4-5.5 1.3-8.3 0-5.2-.9-9.5-2.6-12.8-1.6-3.2-4.1-6-7.1-7.9-3.2-2-6.8-3.4-10.5-4-4.2-.8-8.5-1.1-12.8-1.1-9.8 0-17.8 2.3-24 7s-9.4 12.1-9.8 22.4h-15.4c.1-6.7 1.7-13.2 4.4-19.2zm77 37.6c-1 1.8-2.9 3.1-5.6 3.9-2.4.7-4.9 1.3-7.3 1.7-6.5 1.1-13.2 2.2-20.2 3-6.4.8-12.8 2.1-18.9 4-5.2 1.5-10 4.1-14.1 7.7-3.7 3.3-5.5 8.1-5.5 14.3-.1 3.6.7 7.2 2.3 10.4 1.5 3 3.6 5.7 6.2 7.8 2.7 2.2 5.7 3.9 9 5 3.4 1.1 6.9 1.7 10.5 1.7 5.7 0 11.4-.9 16.9-2.7 5.2-1.7 9.9-4.3 14.1-7.8 8.5-7.2 13.3-17.9 13.1-29.1v-20z"/><path d="m1013.8 228.6c-1.7-3.4-4.2-6.4-7.2-8.7-3.1-2.3-6.6-4-10.4-5-4.1-1.1-8.3-1.6-12.5-1.6-3.5 0-7 .4-10.4 1.1s-6.7 1.9-9.7 3.7c-2.9 1.6-5.3 3.9-7.1 6.7-1.9 3.1-2.8 6.7-2.7 10.3-.1 3.1.8 6.1 2.6 8.7 1.7 2.4 4 4.4 6.5 6 2.7 1.7 5.6 3 8.5 4 3.1 1.1 6 1.9 8.6 2.6l20.5 4.6c4.5.7 8.9 1.9 13.1 3.5s8 3.9 11.5 6.7c3.4 2.8 6.2 6.3 8.2 10.3 2.2 4.5 3.3 9.4 3.2 14.4 0 6.8-1.6 12.7-4.7 17.5-3 4.7-7.1 8.8-11.9 11.8-5 3.1-10.5 5.3-16.3 6.5-5.9 1.3-11.8 2-17.8 2-14.8 0-26.8-3.5-36-10.5s-14.4-18.2-15.8-33.7h15.4c.7 10.4 4.5 18.3 11.4 23.6s15.5 7.9 25.8 7.9c3.9 0 7.8-.4 11.6-1.2 3.9-.8 7.7-2.2 11.1-4.2 3.3-1.9 6.2-4.4 8.4-7.5 2.3-3.3 3.4-7.2 3.3-11.1.1-3.3-.7-6.6-2.3-9.4-1.6-2.6-3.7-4.7-6.2-6.4-2.8-1.8-5.8-3.2-8.9-4.3-3.3-1.1-6.7-2.1-10.2-2.9l-19.8-4.4c-4.8-1.2-9.4-2.8-14-4.6-4-1.6-7.7-3.7-11.1-6.4-3.1-2.5-5.7-5.7-7.5-9.3-1.9-4.3-2.8-8.9-2.7-13.6-.2-5.8 1.3-11.4 4.3-16.4 2.8-4.5 6.6-8.3 11.1-11 4.7-2.8 9.9-4.9 15.3-6.1 5.5-1.3 11.1-2 16.7-2 6-.1 12 .8 17.7 2.4 5.3 1.5 10.2 4.1 14.4 7.6s7.6 7.8 9.9 12.7c2.6 5.6 4 11.7 4.2 17.8h-15.4c.1-4.1-.9-8.3-2.7-12.1z"/><path d="m1071.5 155.6v70.2h.5c3-7.7 8.5-14.2 15.6-18.5 7.4-4.6 16-7.1 24.7-7 8.8 0 16.2 1.1 22.1 3.4 5.5 2 10.4 5.3 14.3 9.7 3.7 4.4 6.3 9.6 7.6 15.3 1.5 6.7 2.3 13.5 2.2 20.3v81.2h-15.4v-78.7c0-5-.5-10.1-1.5-15-.9-4.3-2.6-8.5-5.1-12.1-2.5-3.5-5.9-6.3-9.9-8.1-4.2-2-9.3-2.9-15.5-2.9-5.7-.1-11.3 1-16.5 3.3-4.7 2.1-8.8 5.2-12.2 9.1-3.5 4-6.1 8.7-7.8 13.7-1.9 5.5-3 11.4-3.1 17.2v73.6h-15.4v-174.7z"/><path d="m325.9 170.4v-35.6h-63.9v-39.2h-39.2v39.2h-63.9v47.2h99l-99 134.4v35.7h63.9v39.1h39.2v-39.1h63.9v-47.3h-99z"/></g></svg>