<svg viewBox="0 0 806.36 834.08" xmlns="http://www.w3.org/2000/svg"><g fill="#76bc43"><path d="m401.5 324.59c-82.88 0-150.24-67.46-150.24-150.35s67.36-150.24 150.24-150.24 150.24 67.36 150.24 150.24-67.36 150.35-150.24 150.35m0-256.24a105.94 105.94 0 1 0 105.89 105.89 105.95 105.95 0 0 0 -105.89-105.89"/><path d="m179.8 649.7c-82.89 0-150.25-67.46-150.25-150.35s67.36-150.24 150.25-150.24 150.34 67.38 150.34 150.24-67.48 150.35-150.34 150.35m0-256.22a105.94 105.94 0 1 0 106 105.87 105.93 105.93 0 0 0 -106-105.87"/><path d="m623.12 649.7c-82.88 0-150.24-67.46-150.24-150.35s67.36-150.24 150.24-150.24 150.24 67.38 150.24 150.24-67.36 150.35-150.24 150.35m0-256.22a105.94 105.94 0 1 0 105.88 105.87 105.95 105.95 0 0 0 -105.88-105.87"/></g><path d="m585.63 567.76-31.41-31.43-130.55 130.54v-433.51h-44.35v433.47l-139.76-139.75-31.42 31.43 171.18 171.18v76.1h44.35v-76.07z" fill="#0a1c2b"/></svg>