<svg enable-background="new 0 0 792 612" viewBox="0 0 792 612" xmlns="http://www.w3.org/2000/svg"><path d="m396.25 295.98c-5.53 0-10.02 4.49-10.02 10.02s4.49 10.02 10.02 10.02 10.02-4.49 10.02-10.02c0-5.54-4.49-10.02-10.02-10.02z"/><path d="m396 243.57c-34.48 0-62.43 27.95-62.43 62.43s27.95 62.43 62.43 62.43 62.44-27.95 62.44-62.43-27.96-62.43-62.44-62.43zm43.41 70.85c-.25 1.29-.57 2.56-.93 3.8-4.19 14.47-15.59 25.87-30.05 30.04-1.22.35-2.45.67-3.71.91-5.77-5.77-8.47-14.41-8.47-21.08 0 6.67-2.13 14.75-8.47 21.08-1.26-.25-2.5-.56-3.72-.92-14.46-4.18-25.86-15.58-30.05-30.05-.36-1.25-.68-2.51-.93-3.8 5.85-5.85 13.83-8.43 21.03-8.43-7.3 0-15.66-3.05-21.03-8.42.25-1.29.57-2.54.93-3.79 4.18-14.47 15.58-25.86 30.05-30.04 1.23-.36 2.48-.67 3.75-.92 6.41 6.4 8.45 14.16 8.45 21.05 0-6.98 3.02-15.61 8.45-21.05 1.27.25 2.51.56 3.74.92 14.47 4.18 25.87 15.57 30.05 30.04.36 1.24.68 2.51.93 3.79-5.61 5.61-14.61 8.42-21.03 8.42 6.81.02 15.18 2.62 21.01 8.45z"/><path d="m396.25 295.98c-5.53 0-10.02 4.49-10.02 10.02s4.49 10.02 10.02 10.02 10.02-4.49 10.02-10.02-4.49-10.02-10.02-10.02"/></svg>