<?xml version="1.0" encoding="utf-8"?>
<!-- Generator: Adobe Illustrator 23.0.1, SVG Export Plug-In . SVG Version: 6.00 Build 0)  -->
<svg version="1.1" id="Layer_1" xmlns="http://www.w3.org/2000/svg" xmlns:xlink="http://www.w3.org/1999/xlink" x="0px" y="0px"
	 viewBox="0 0 792 612" style="enable-background:new 0 0 792 612;" xml:space="preserve">
<polygon points="302.28,286.48 302.28,282.58 268.89,282.58 268.89,286.35 297.35,286.35 266.81,325.07 266.81,328.97 
	302.93,328.97 302.93,325.2 271.75,325.2 "/>
<path d="M321.83,326.5c-7.8,0-11.76-7.21-11.76-14.29c0-7.08,3.96-14.29,11.76-14.29c5.39,0,8.38,3.05,9.49,8.05h4.09
	c-0.98-7.73-6.37-11.5-13.58-11.5c-10.2,0-15.85,8.12-15.85,17.74c0,9.62,5.65,17.74,15.85,17.74c7.54,0,12.74-4.87,13.84-12.99
	h-4.09C331.06,322.47,326.83,326.5,321.83,326.5z"/>
<path d="M366.91,323.06v-17.8c0-9.03-6.43-10.79-12.35-10.79c-7.73,0-13.12,3.38-13.58,11.24h4.09c0.19-5.46,3.83-7.8,8.96-7.8
	c4.87,0,8.77,1.36,8.77,6.89c0,3.64-1.88,4.22-5.26,4.55c-8.84,1.04-18,1.43-18,10.78c0,6.76,5,9.81,11.24,9.81
	c6.5,0,9.29-2.47,12.21-6.82h0.13c0,3.44,0.65,5.85,4.81,5.85c1.1,0,1.69-0.06,2.66-0.26v-3.44c-0.46,0.2-0.84,0.26-1.3,0.26
	C367.69,325.53,366.91,324.68,366.91,323.06z M362.82,315.98c0,6.56-5.39,10.53-11.69,10.53c-3.9,0-7.47-2.53-7.47-6.63
	c0-6.5,8.64-6.5,15.59-7.73c1.1-0.19,2.93-0.52,3.44-1.49h0.13V315.98z"/>
<path d="M390.87,310.59l-5.46-1.23c-2.86-0.72-6.95-2.08-6.95-5.65c0-4.35,4.29-5.78,7.93-5.78c4.68,0,8.58,2.27,8.77,7.34h4.09
	c-0.32-7.28-5.52-10.79-12.28-10.79c-5.91,0-12.6,2.6-12.6,9.42c0,5.65,4.03,7.6,9.36,8.97l5.26,1.17c3.7,0.91,7.34,2.21,7.34,6.11
	c0,4.68-5.26,6.37-9.16,6.37c-5.46,0-9.55-2.86-9.88-8.38h-4.09c0.71,8.25,5.91,11.83,13.77,11.83c6.24,0,13.45-2.79,13.45-10.07
	C400.42,314.03,395.55,311.3,390.87,310.59z"/>
<path d="M421.21,294.47c-4.74,0-9.16,2.73-10.72,6.76h-0.13v-18.65h-4.09v46.39h4.09v-19.55c0.2-6.56,3.96-11.5,10.53-11.5
	c6.63,0,8.51,4.42,8.51,10.13v20.92h4.09V307.4C433.48,299.41,430.63,294.47,421.21,294.47z"/>
<path d="M463.81,304.87v-0.13c5.71-0.33,9.91-5,9.91-10.59c0-7.73-5.84-11.56-13.19-11.56h-20.14v46.39h19.35
	c8.99,0,15.42-4.29,15.42-12.6C475.16,309.29,469.91,305.06,463.81,304.87z M441.7,283.88h18.83c6.63,0,11.87,3.25,11.87,10.26
	c0,6.63-5.64,10.01-11.87,10.01H441.7V283.88z M460.33,327.67H441.7v-22.22h18.83c6.63,0,13.32,2.93,13.32,10.98
	C473.85,324.03,467.94,327.67,460.33,327.67z"/>
<rect x="481.06" y="282.58" width="1.31" height="46.39"/>
<path d="M503.1,294.8c-9.91,0-15.22,8.38-15.22,17.48c0,9.16,5.32,17.48,15.16,17.48c9.91,0,15.22-8.32,15.22-17.48
	C518.26,303.18,512.88,294.8,503.1,294.8z M503.1,328.45c-9.12,0-13.91-7.67-13.91-16.18c0-8.32,4.79-16.18,13.91-16.18
	c8.99,0,13.84,7.86,13.84,16.18C516.95,320.79,512.09,328.45,503.1,328.45z"/>
<path d="M537.15,311.5c-3.67-0.98-6.3-1.49-8.66-2.47c-2.3-0.98-3.74-2.53-3.74-5.85c0-1.17,0.66-7.08,10.1-7.08
	c6.49,0,10.89,2.67,10.89,9.36h1.31c0-7.47-4.66-10.65-12.2-10.65c-8.4,0-11.42,4.68-11.42,8.38c0,3.64,1.25,5.65,4.07,6.89
	c1.9,0.85,4.33,1.49,7.54,2.27c5.77,1.36,11.61,2.34,11.61,8.25c0,5.72-5.97,7.86-10.89,7.86c-7.87,0-12.33-3.44-12.33-10.91h-1.31
	c0,8.38,4.72,12.21,13.65,12.21c5.84,0,12.2-2.6,12.2-9.29C547.98,314.09,542.4,312.86,537.15,311.5z"/>
<path d="M567.52,311.5c-3.67-0.98-6.3-1.49-8.66-2.47c-2.3-0.98-3.74-2.53-3.74-5.85c0-1.17,0.66-7.08,10.11-7.08
	c6.49,0,10.89,2.67,10.89,9.36h1.31c0-7.47-4.66-10.65-12.2-10.65c-8.4,0-11.42,4.68-11.42,8.38c0,3.64,1.25,5.65,4.07,6.89
	c1.9,0.85,4.33,1.49,7.54,2.27c5.77,1.36,11.61,2.34,11.61,8.25c0,5.72-5.97,7.86-10.89,7.86c-7.87,0-12.33-3.44-12.33-10.91h-1.31
	c0,8.38,4.72,12.21,13.65,12.21c5.84,0,12.2-2.6,12.2-9.29C578.35,314.09,572.77,312.86,567.52,311.5z"/>
<path d="M597.96,294.8c-9.91,0-15.22,8.38-15.22,17.48c0,9.16,5.32,17.48,15.16,17.48c9.91,0,15.22-8.32,15.22-17.48
	C613.12,303.18,607.74,294.8,597.96,294.8z M597.96,328.45c-9.12,0-13.91-7.67-13.91-16.18c0-8.32,4.79-16.18,13.91-16.18
	c8.99,0,13.84,7.86,13.84,16.18C611.81,320.79,606.95,328.45,597.96,328.45z"/>
<path d="M651.76,294.8c-5.18,0-9.38,3.12-10.69,7.8h-0.13c-1.11-4.94-4.85-7.99-10.1-7.8c-5.18,0-9.58,3.9-10.76,9.03h-0.13v-8.25
	h-1.31v33.39h1.31v-18.91c0-7.47,4.2-13.97,10.89-13.97c7.54,0,9.05,5.2,9.05,11.43v21.44h1.31v-21.18c0-6.24,4-11.7,10.56-11.7
	c7.35,0,9.38,4.35,9.38,10.91v21.96h1.31v-21.96C662.45,299.8,659.89,294.8,651.76,294.8z"/>
<path d="M183.56,251.99c-29.83,0-54.01,24.18-54.01,54.01c0,29.83,24.18,54.01,54.01,54.01c29.83,0,54.02-24.18,54.02-54.01
	C237.58,276.17,213.39,251.99,183.56,251.99z M221.12,313.29c-0.22,1.12-0.5,2.21-0.81,3.29c-3.63,12.52-13.49,22.38-26,25.99
	c-1.05,0.3-2.12,0.58-3.21,0.79c-4.99-4.99-7.32-12.47-7.32-18.24c0,5.77-1.84,12.76-7.32,18.24c-1.09-0.21-2.16-0.49-3.22-0.79
	c-12.51-3.62-22.37-13.48-26-25.99c-0.31-1.08-0.59-2.17-0.81-3.29c5.06-5.06,11.97-7.29,18.19-7.29c-6.31,0-13.54-2.64-18.2-7.29
	c0.22-1.11,0.49-2.2,0.8-3.28c3.62-12.52,13.48-22.38,25.99-25.99c1.06-0.31,2.14-0.58,3.24-0.8c5.54,5.54,7.31,12.25,7.31,18.21
	c0-6.04,2.61-13.51,7.31-18.21c1.1,0.21,2.17,0.49,3.24,0.8c12.52,3.61,22.38,13.47,25.99,25.99c0.31,1.08,0.59,2.17,0.8,3.28
	c-4.86,4.86-12.64,7.29-18.19,7.29C208.83,305.99,216.07,308.24,221.12,313.29z M192.45,306c0,4.79-3.88,8.67-8.67,8.67
	c-4.79,0-8.67-3.88-8.67-8.67c0-4.79,3.88-8.67,8.67-8.67C188.56,297.33,192.45,301.21,192.45,306z"/>
</svg>
