<svg enable-background="new 0 0 792 612" viewBox="0 0 792 612" xmlns="http://www.w3.org/2000/svg"><path d="m302.28 286.48v-3.9h-33.39v3.77h28.46l-30.54 38.72v3.9h36.12v-3.77h-31.18z"/><path d="m321.83 326.5c-7.8 0-11.76-7.21-11.76-14.29s3.96-14.29 11.76-14.29c5.39 0 8.38 3.05 9.49 8.05h4.09c-.98-7.73-6.37-11.5-13.58-11.5-10.2 0-15.85 8.12-15.85 17.74s5.65 17.74 15.85 17.74c7.54 0 12.74-4.87 13.84-12.99h-4.09c-.52 5.51-4.75 9.54-9.75 9.54z"/><path d="m366.91 323.06v-17.8c0-9.03-6.43-10.79-12.35-10.79-7.73 0-13.12 3.38-13.58 11.24h4.09c.19-5.46 3.83-7.8 8.96-7.8 4.87 0 8.77 1.36 8.77 6.89 0 3.64-1.88 4.22-5.26 4.55-8.84 1.04-18 1.43-18 10.78 0 6.76 5 9.81 11.24 9.81 6.5 0 9.29-2.47 12.21-6.82h.13c0 3.44.65 5.85 4.81 5.85 1.1 0 1.69-.06 2.66-.26v-3.44c-.46.2-.84.26-1.3.26-1.6 0-2.38-.85-2.38-2.47zm-4.09-7.08c0 6.56-5.39 10.53-11.69 10.53-3.9 0-7.47-2.53-7.47-6.63 0-6.5 8.64-6.5 15.59-7.73 1.1-.19 2.93-.52 3.44-1.49h.13z"/><path d="m390.87 310.59-5.46-1.23c-2.86-.72-6.95-2.08-6.95-5.65 0-4.35 4.29-5.78 7.93-5.78 4.68 0 8.58 2.27 8.77 7.34h4.09c-.32-7.28-5.52-10.79-12.28-10.79-5.91 0-12.6 2.6-12.6 9.42 0 5.65 4.03 7.6 9.36 8.97l5.26 1.17c3.7.91 7.34 2.21 7.34 6.11 0 4.68-5.26 6.37-9.16 6.37-5.46 0-9.55-2.86-9.88-8.38h-4.09c.71 8.25 5.91 11.83 13.77 11.83 6.24 0 13.45-2.79 13.45-10.07 0-5.87-4.87-8.6-9.55-9.31z"/><path d="m421.21 294.47c-4.74 0-9.16 2.73-10.72 6.76h-.13v-18.65h-4.09v46.39h4.09v-19.55c.2-6.56 3.96-11.5 10.53-11.5 6.63 0 8.51 4.42 8.51 10.13v20.92h4.09v-21.57c-.01-7.99-2.86-12.93-12.28-12.93z"/><path d="m463.81 304.87v-.13c5.71-.33 9.91-5 9.91-10.59 0-7.73-5.84-11.56-13.19-11.56h-20.14v46.39h19.35c8.99 0 15.42-4.29 15.42-12.6 0-7.09-5.25-11.32-11.35-11.51zm-22.11-20.99h18.83c6.63 0 11.87 3.25 11.87 10.26 0 6.63-5.64 10.01-11.87 10.01h-18.83zm18.63 43.79h-18.63v-22.22h18.83c6.63 0 13.32 2.93 13.32 10.98 0 7.6-5.91 11.24-13.52 11.24z"/><path d="m481.06 282.58h1.31v46.39h-1.31z"/><path d="m503.1 294.8c-9.91 0-15.22 8.38-15.22 17.48 0 9.16 5.32 17.48 15.16 17.48 9.91 0 15.22-8.32 15.22-17.48 0-9.1-5.38-17.48-15.16-17.48zm0 33.65c-9.12 0-13.91-7.67-13.91-16.18 0-8.32 4.79-16.18 13.91-16.18 8.99 0 13.84 7.86 13.84 16.18.01 8.52-4.85 16.18-13.84 16.18z"/><path d="m537.15 311.5c-3.67-.98-6.3-1.49-8.66-2.47-2.3-.98-3.74-2.53-3.74-5.85 0-1.17.66-7.08 10.1-7.08 6.49 0 10.89 2.67 10.89 9.36h1.31c0-7.47-4.66-10.65-12.2-10.65-8.4 0-11.42 4.68-11.42 8.38 0 3.64 1.25 5.65 4.07 6.89 1.9.85 4.33 1.49 7.54 2.27 5.77 1.36 11.61 2.34 11.61 8.25 0 5.72-5.97 7.86-10.89 7.86-7.87 0-12.33-3.44-12.33-10.91h-1.31c0 8.38 4.72 12.21 13.65 12.21 5.84 0 12.2-2.6 12.2-9.29.01-6.38-5.57-7.61-10.82-8.97z"/><path d="m567.52 311.5c-3.67-.98-6.3-1.49-8.66-2.47-2.3-.98-3.74-2.53-3.74-5.85 0-1.17.66-7.08 10.11-7.08 6.49 0 10.89 2.67 10.89 9.36h1.31c0-7.47-4.66-10.65-12.2-10.65-8.4 0-11.42 4.68-11.42 8.38 0 3.64 1.25 5.65 4.07 6.89 1.9.85 4.33 1.49 7.54 2.27 5.77 1.36 11.61 2.34 11.61 8.25 0 5.72-5.97 7.86-10.89 7.86-7.87 0-12.33-3.44-12.33-10.91h-1.31c0 8.38 4.72 12.21 13.65 12.21 5.84 0 12.2-2.6 12.2-9.29 0-6.38-5.58-7.61-10.83-8.97z"/><path d="m597.96 294.8c-9.91 0-15.22 8.38-15.22 17.48 0 9.16 5.32 17.48 15.16 17.48 9.91 0 15.22-8.32 15.22-17.48 0-9.1-5.38-17.48-15.16-17.48zm0 33.65c-9.12 0-13.91-7.67-13.91-16.18 0-8.32 4.79-16.18 13.91-16.18 8.99 0 13.84 7.86 13.84 16.18.01 8.52-4.85 16.18-13.84 16.18z"/><path d="m651.76 294.8c-5.18 0-9.38 3.12-10.69 7.8h-.13c-1.11-4.94-4.85-7.99-10.1-7.8-5.18 0-9.58 3.9-10.76 9.03h-.13v-8.25h-1.31v33.39h1.31v-18.91c0-7.47 4.2-13.97 10.89-13.97 7.54 0 9.05 5.2 9.05 11.43v21.44h1.31v-21.18c0-6.24 4-11.7 10.56-11.7 7.35 0 9.38 4.35 9.38 10.91v21.96h1.31v-21.96c0-7.19-2.56-12.19-10.69-12.19z"/><path d="m183.56 251.99c-29.83 0-54.01 24.18-54.01 54.01s24.18 54.01 54.01 54.01 54.02-24.18 54.02-54.01-24.19-54.01-54.02-54.01zm37.56 61.3c-.22 1.12-.5 2.21-.81 3.29-3.63 12.52-13.49 22.38-26 25.99-1.05.3-2.12.58-3.21.79-4.99-4.99-7.32-12.47-7.32-18.24 0 5.77-1.84 12.76-7.32 18.24-1.09-.21-2.16-.49-3.22-.79-12.51-3.62-22.37-13.48-26-25.99-.31-1.08-.59-2.17-.81-3.29 5.06-5.06 11.97-7.29 18.19-7.29-6.31 0-13.54-2.64-18.2-7.29.22-1.11.49-2.2.8-3.28 3.62-12.52 13.48-22.38 25.99-25.99 1.06-.31 2.14-.58 3.24-.8 5.54 5.54 7.31 12.25 7.31 18.21 0-6.04 2.61-13.51 7.31-18.21 1.1.21 2.17.49 3.24.8 12.52 3.61 22.38 13.47 25.99 25.99.31 1.08.59 2.17.8 3.28-4.86 4.86-12.64 7.29-18.19 7.29 5.92-.01 13.16 2.24 18.21 7.29zm-28.67-7.29c0 4.79-3.88 8.67-8.67 8.67s-8.67-3.88-8.67-8.67 3.88-8.67 8.67-8.67c4.78 0 8.67 3.88 8.67 8.67z"/></svg>