<?xml version="1.0" encoding="utf-8"?>
<!-- Generator: Adobe Illustrator 22.1.0, SVG Export Plug-In . SVG Version: 6.00 Build 0)  -->
<svg version="1.1" id="Layer_1" xmlns="http://www.w3.org/2000/svg" xmlns:xlink="http://www.w3.org/1999/xlink" x="0px" y="0px"
	 viewBox="0 0 1921.5 456" style="enable-background:new 0 0 1921.5 456;" xml:space="preserve">
<style type="text/css">
	.st0{fill:#76BC43;}
	.st1{fill:#0A1C2B;}
</style>
<g>
	<g>
		<path class="st0" d="M205.9,177.9c-42.4,0-76.9-34.5-76.9-77c0-42.4,34.5-76.9,76.9-76.9c42.4,0,76.9,34.5,76.9,76.9
			C282.8,143.3,248.3,177.9,205.9,177.9 M205.9,46.7c-29.9,0-54.2,24.3-54.2,54.2c0,29.9,24.3,54.2,54.2,54.2
			c29.9,0,54.2-24.3,54.2-54.2C260.1,71,235.8,46.7,205.9,46.7"/>
	</g>
	<g>
		<path class="st0" d="M92.4,344.3c-42.4,0-76.9-34.5-76.9-77c0-42.4,34.5-76.9,76.9-76.9c42.4,0,77,34.5,77,76.9
			C169.4,309.7,134.9,344.3,92.4,344.3 M92.4,213.1c-29.9,0-54.2,24.3-54.2,54.2c0,29.9,24.3,54.3,54.2,54.3
			c29.9,0,54.2-24.3,54.2-54.3C146.7,237.4,122.3,213.1,92.4,213.1"/>
	</g>
	<g>
		<path class="st0" d="M319.3,344.3c-42.4,0-76.9-34.5-76.9-77c0-42.4,34.5-76.9,76.9-76.9c42.4,0,76.9,34.5,76.9,76.9
			C396.2,309.7,361.8,344.3,319.3,344.3 M319.3,213.1c-29.9,0-54.2,24.3-54.2,54.2c0,29.9,24.3,54.3,54.2,54.3
			c29.9,0,54.2-24.3,54.2-54.3C373.5,237.4,349.3,213.1,319.3,213.1"/>
	</g>
	<polygon class="st1" points="300.2,302.3 284.1,286.2 217.3,353 217.3,131.2 194.6,131.2 194.6,353 123,281.5 106.9,297.6 
		194.6,385.2 194.6,424.1 217.3,424.1 217.3,385.2 	"/>
</g>
<g>
	<g>
		<path class="st1" d="M1241,235.4c-0.3-7.6-1.9-14.2-4.8-19.9c-2.9-5.6-6.8-10.3-11.8-14.2c-5-3.8-10.9-6.7-17.8-8.6
			c-6.9-1.9-14.4-2.9-22.5-2.9c-5,0-10.3,0.6-16,1.7c-5.7,1.2-11,3.2-15.9,6.1c-4.9,2.9-8.9,6.8-12,11.7c-3.1,4.9-4.7,11-4.7,18.3
			c0,7.1,1.7,12.9,5.2,17.4c3.5,4.5,8,8.1,13.7,10.8c5.6,2.7,12.1,4.9,19.4,6.6c7.3,1.7,14.7,3.2,22.1,4.7c7.6,1.5,15,3.3,22.2,5.3
			c7.2,2.1,13.7,4.9,19.4,8.4c5.7,3.6,10.3,8.2,13.8,13.9c3.5,5.7,5.2,12.9,5.2,21.5c0,9.3-2,17.1-6,23.4c-4,6.3-9,11.4-15,15.4
			c-6,4-12.8,6.8-20.1,8.6c-7.4,1.7-14.4,2.6-21.2,2.6c-10.4,0-20.2-1.1-29.3-3.4c-9.1-2.2-17.1-5.9-23.8-10.9
			c-6.8-5-12.1-11.6-16-19.5c-3.9-7.9-5.8-17.6-5.6-29.1h10.9c-0.5,9.8,0.9,18,4.2,24.7s7.9,12.2,13.8,16.5
			c5.9,4.3,12.8,7.4,20.7,9.3c7.9,1.9,16.3,2.9,25.1,2.9c5.3,0,11-0.7,17-2c6-1.3,11.6-3.6,16.6-6.7c5.1-3.1,9.3-7.3,12.7-12.4
			c3.4-5.1,5.1-11.6,5.1-19.4c0-7.5-1.7-13.5-5.2-18.3c-3.5-4.7-8.1-8.5-13.8-11.4c-5.7-2.9-12.2-5.2-19.4-7
			c-7.2-1.7-14.6-3.4-22.2-4.8c-7.5-1.5-14.8-3.2-22.1-5.2c-7.3-2-13.7-4.7-19.4-8.1c-5.6-3.4-10.2-7.8-13.7-13.2
			c-3.5-5.4-5.2-12.3-5.2-20.7s1.8-15.7,5.3-21.7c3.6-6,8.2-10.9,13.9-14.7s12.1-6.5,19.3-8.2c7.1-1.7,14.2-2.6,21.1-2.6
			c9.3,0,17.9,1,26,3.1c8,2.1,15.1,5.3,21.1,9.7c6,4.4,10.9,10.1,14.5,17c3.6,7,5.7,15.3,6.2,25.1H1241z"/>
	</g>
	<path class="st1" d="M1365.9,336.7h-0.5c-1.5,3.8-3.6,7.4-6.5,10.8c-2.8,3.4-6.3,6.4-10.3,9.1c-4.1,2.7-8.7,4.7-13.8,6.2
		c-5.1,1.5-10.8,2.2-16.9,2.2c-13.6,0-24.1-2.9-31.5-8.8c-7.5-5.9-11.2-14.9-11.2-27.2c0-7.5,1.5-13.5,4.5-18.3
		c3-4.7,6.7-8.4,11.3-11.2c4.6-2.7,9.6-4.7,15.2-5.8c5.5-1.2,10.9-2,16-2.5l14.7-1.2c6.8-0.5,12.1-1.3,16-2.4
		c3.9-1.1,6.8-2.6,8.8-4.5c2-1.9,3.2-4.3,3.7-7.3c0.5-3,0.7-6.7,0.7-11.2c0-3.5-0.7-6.7-2-9.7c-1.3-3-3.4-5.6-6.2-7.9
		c-2.8-2.3-6.5-4.1-10.9-5.5c-4.5-1.3-9.9-2-16.4-2c-11.4,0-20.7,2.8-27.7,8.4c-7,5.6-10.9,14.2-11.6,25.6h-9.4
		c0.7-14.1,5.2-24.6,13.5-31.7c8.4-7,20.2-10.6,35.6-10.6c15.4,0,26.6,3,33.7,9.1c7,6,10.6,14,10.6,23.7v74.3c0,1.8,0,3.6,0.1,5.5
		c0.1,1.8,0.4,3.5,0.9,5c0.5,1.5,1.3,2.7,2.5,3.6c1.2,0.9,2.8,1.4,5,1.4c1.7,0,4-0.2,7-0.7v7.9c-2.5,0.7-5.1,1-7.7,1
		c-3.8,0-6.8-0.5-9.1-1.5c-2.2-1-3.9-2.3-5.1-4c-1.2-1.7-1.9-3.6-2.4-5.8c-0.4-2.2-0.6-4.7-0.6-7.3V336.7z M1365.9,289.5
		c-2.3,2.8-5.8,4.7-10.6,5.7s-10,1.7-15.8,2.2l-15.9,1.5c-4.6,0.5-9.3,1.2-13.9,2.1c-4.6,0.9-8.8,2.4-12.5,4.6
		c-3.7,2.2-6.8,5.1-9.1,8.8c-2.3,3.7-3.5,8.6-3.5,14.5c0,9.4,3,16.4,8.9,21c6,4.6,14.2,6.8,24.6,6.8c10.8,0,19.3-1.9,25.6-5.8
		c6.3-3.9,11.1-8.4,14.4-13.4c3.3-5.1,5.4-9.9,6.3-14.7c0.9-4.7,1.4-7.9,1.4-9.6V289.5z"/>
	<path class="st1" d="M1417.8,263.7h0.7c1-3.1,2.6-6.6,5-10.4c2.3-3.8,5.4-7.3,9.2-10.6c3.8-3.2,8.4-5.9,13.8-8.1
		c5.4-2.1,11.6-3.2,18.5-3.2c9.8,0,18.3,1.8,25.5,5.5c7.2,3.6,13.2,8.5,17.9,14.7c4.7,6.1,8.2,13.3,10.6,21.4
		c2.3,8.1,3.5,16.6,3.5,25.6c0,9.8-1.2,18.7-3.5,26.8c-2.3,8.1-5.9,15.1-10.6,21c-4.7,5.9-10.7,10.5-17.9,13.8
		c-7.2,3.3-15.7,5-25.5,5c-10.6,0-20.1-2.3-28.4-7c-8.3-4.6-14.4-12.2-18.2-22.6h-0.5l0,72.3h-9.2V234.4h9.2V263.7z M1464.9,356.8
		c8.3,0,15.5-1.6,21.5-4.7c6.1-3.1,11-7.4,14.9-12.7c3.9-5.3,6.8-11.5,8.7-18.5c1.9-7,2.9-14.5,2.9-22.5c0-7.3-0.9-14.4-2.7-21.5
		c-1.8-7-4.7-13.3-8.5-18.9c-3.8-5.5-8.8-10-14.8-13.4c-6.1-3.4-13.4-5.1-22-5.1c-8.5,0-15.7,1.7-21.7,5c-6,3.3-10.8,7.7-14.6,13.2
		c-3.7,5.5-6.4,11.7-8.1,18.8c-1.7,7-2.5,14.4-2.5,22c0,7.6,0.7,14.9,2.2,22c1.5,7,4,13.3,7.6,18.6c3.6,5.4,8.4,9.7,14.4,12.9
		C1448.4,355.2,1455.9,356.8,1464.9,356.8z"/>
	<path class="st1" d="M1558.9,184.7v177.4h-9.4V184.7H1558.9z"/>
	<path class="st1" d="M1595.4,210.3v-25.6h9.4v25.6H1595.4z M1595.4,362.1V234.4h9.4v127.7H1595.4z"/>
	<path class="st1" d="M1640.1,234.4h9.4v27.3h0.5c1.7-4.8,4-9.1,7.1-12.8c3.1-3.7,6.6-6.9,10.7-9.6c4.1-2.6,8.5-4.6,13.3-6
		c4.8-1.3,9.7-2,14.7-2c7.5,0,13.8,0.9,19,2.7c5.2,1.8,9.5,4.2,12.8,7.2c3.3,3,5.9,6.3,7.8,10.1c1.9,3.7,3.3,7.5,4.1,11.3
		c0.8,3.8,1.3,7.5,1.5,11.1c0.2,3.6,0.2,6.7,0.2,9.3v79h-9.4v-80.7c0-3.1-0.2-7.1-0.7-11.9c-0.5-4.8-1.9-9.4-4.3-13.8
		c-2.4-4.4-6-8.2-10.9-11.3c-4.9-3.1-11.6-4.7-20.2-4.7c-7.3,0-13.7,1.3-19.4,4c-5.6,2.7-10.4,6.3-14.4,11.1c-4,4.7-7,10.4-9.1,16.9
		c-2.1,6.5-3.1,13.7-3.1,21.5v69.1h-9.4V234.4z"/>
	<path class="st1" d="M1874.1,234.4v121c0,7.1-0.8,14-2.5,20.7c-1.7,6.7-4.5,12.6-8.6,17.8c-4,5.1-9.6,9.2-16.7,12.3
		c-7.1,3.1-16.1,4.6-27,4.6c-6.8,0-13.1-0.7-19.1-2.1c-5.9-1.4-11.2-3.6-15.6-6.7c-4.5-3.1-8.1-7.1-10.8-12.2
		c-2.7-5.1-4.3-11.3-4.6-18.8h9.4c0.5,5.6,1.9,10.4,4.2,14.4c2.3,4,5.3,7.2,9.1,9.8c3.7,2.6,7.9,4.4,12.5,5.6
		c4.6,1.2,9.6,1.7,14.9,1.7c8.8,0,16.1-1.3,22-4c5.9-2.7,10.6-6.1,14-10.3c3.5-4.2,5.9-9,7.3-14.4c1.4-5.4,2.1-10.8,2.1-16.3v-29.3
		h-0.7c-4.5,9.4-10.5,16.6-18.2,21.6c-7.7,5-17,7.5-27.9,7.5c-9.4,0-17.6-1.6-24.4-4.8c-6.9-3.2-12.6-7.7-17.1-13.4
		c-4.5-5.7-7.9-12.4-10.2-20c-2.2-7.6-3.3-15.9-3.3-24.8c0-8.4,1.2-16.5,3.6-24.1c2.4-7.6,5.9-14.3,10.6-20
		c4.6-5.7,10.4-10.3,17.3-13.7c6.9-3.4,14.8-5.1,23.7-5.1c10.1,0,19.4,2.6,27.9,7.7c8.5,5.1,14.6,12.4,18.3,21.9h0.5v-26.6H1874.1z
		 M1818.2,239.6c-7.8,0-14.5,1.6-20.2,4.7c-5.7,3.1-10.4,7.3-14.2,12.4c-3.7,5.1-6.5,11-8.4,17.5c-1.9,6.5-2.9,13.2-2.9,20
		c0,7.5,1,14.5,2.9,21.2s4.8,12.5,8.7,17.5c3.9,5,8.7,8.9,14.4,11.8c5.7,2.9,12.3,4.3,19.8,4.3c7.8,0,14.6-1.5,20.4-4.5
		c5.8-3,10.6-7,14.5-12.2c3.9-5.1,6.8-11,8.7-17.5c1.9-6.5,2.9-13.5,2.9-20.7c0-7.1-1-14-2.9-20.6c-1.9-6.6-4.8-12.5-8.7-17.5
		c-3.9-5-8.7-9.1-14.5-12C1832.8,241.1,1826,239.6,1818.2,239.6z"/>
	<g>
		<polygon class="st1" points="596,177.4 596,192.4 478.4,341.5 598.5,341.5 598.5,356 459.5,356 459.5,341 577,191.9 467.5,191.9 
			467.5,177.4 		"/>
	</g>
	<g>
		<path class="st1" d="M693.3,244.7c-5.8-5.5-14-8.3-24.6-8.3c-7.5,0-14.1,1.6-19.7,4.7c-5.7,3.1-10.4,7.3-14.2,12.5
			c-3.7,5.1-6.6,11-8.5,17.6s-2.9,13.3-2.9,20.1c0,6.9,1,13.6,2.9,20.2c1.9,6.6,4.8,12.5,8.5,17.6c3.8,5.2,8.5,9.3,14.2,12.5
			c5.6,3.1,12.2,4.7,19.7,4.7c4.8,0,9.4-0.9,13.8-2.8c4.3-1.8,8.2-4.4,11.5-7.6c3.4-3.2,6.1-7.1,8.3-11.6c2.2-4.5,3.5-9.4,4-14.8
			h15.8c-2.2,15.6-8,27.9-17.3,36.6c-9.3,8.8-21.4,13.2-36.1,13.2c-9.8,0-18.5-1.9-26.1-5.4c-7.6-3.6-14-8.5-19.2-14.6
			c-5.1-6.2-9-13.4-11.7-21.7s-4-17-4-26.4c0-9.3,1.3-18.1,4-26.3c2.7-8.3,6.6-15.5,11.7-21.7c5.2-6.2,11.6-11.1,19.2-14.8
			c7.6-3.7,16.3-5.5,26.1-5.5c13.9,0,25.6,3.7,35.2,11c9.6,7.3,15.3,18.4,17.1,33.3h-15.8C703.1,257.8,699.1,250.2,693.3,244.7"/>
	</g>
	<g>
		<path class="st1" d="M744.8,247c2.6-5.6,6.3-10,10.9-13.5c4.5-3.5,10-6.1,16.1-7.7c6.1-1.7,13-2.5,20.5-2.5c5.6,0,11.3,0.6,17,1.6
			c5.7,1.1,10.8,3.1,15.3,6.1c4.5,3,8.2,7.2,11,12.6c2.8,5.4,4.2,12.5,4.2,21.1v68.6c0,6.3,3.1,9.4,9.3,9.4c1.8,0,3.5-0.3,5-0.9V355
			c-1.8,0.3-3.5,0.5-4.9,0.7c-1.4,0.2-3.1,0.3-5.3,0.3c-4.1,0-7.2-0.6-9.6-1.6c-2.4-1.1-4.3-2.6-5.6-4.6c-1.4-2-2.2-4.3-2.6-7.1
			c-0.5-2.7-0.7-5.8-0.7-9.1h-0.5c-2.8,4.1-5.7,7.8-8.6,11.1c-2.9,3.2-6.1,6-9.7,8.2c-3.6,2.2-7.6,3.8-12.2,4.9
			c-4.6,1.2-10.1,1.8-16.4,1.8c-6,0-11.6-0.7-16.9-2.1c-5.3-1.4-9.9-3.7-13.7-6.8c-4-3.1-7.1-7-9.3-11.8c-2.3-4.7-3.4-10.4-3.4-16.9
			c0-9,2.1-16,6-21.1c4-5.1,9.2-9,15.8-11.7c6.6-2.7,14-4.5,22.3-5.6c8.3-1.1,16.6-2.1,25.1-3.1c3.4-0.4,6.2-0.7,8.8-1.2
			c2.5-0.5,4.6-1.3,6.2-2.6c1.6-1.2,3-2.9,3.9-5.1c0.9-2.2,1.4-5,1.4-8.6c0-5.3-0.9-9.6-2.6-13.1c-1.7-3.5-4.1-6.2-7.3-8.2
			c-3-2-6.7-3.4-10.7-4.1c-4.1-0.7-8.5-1.1-13.2-1.1c-10,0-18.2,2.4-24.5,7.1c-6.3,4.7-9.7,12.4-10,22.9h-15.8
			C740.6,258.9,742.2,252.4,744.8,247 M823.7,285.4c-1,1.9-2.9,3.2-5.8,4c-2.8,0.8-5.4,1.4-7.5,1.8c-6.7,1.2-13.6,2.2-20.6,3.1
			c-7.1,0.9-13.6,2.3-19.4,4.1c-5.8,1.8-10.6,4.4-14.4,7.8c-3.8,3.5-5.6,8.3-5.6,14.6c0,4.1,0.8,7.6,2.4,10.7c1.5,3.1,3.7,5.8,6.3,8
			c2.7,2.3,5.8,4,9.3,5.1c3.5,1.2,7.1,1.8,10.8,1.8c6,0,11.7-0.9,17.2-2.8c5.5-1.8,10.3-4.5,14.4-8c4.1-3.5,7.3-7.8,9.7-12.7
			c2.4-5,3.7-10.7,3.7-17.1v-20.5H823.7z"/>
	</g>
	<g>
		<path class="st1" d="M943.2,252c-1.8-3.6-4.3-6.5-7.4-8.9c-3.1-2.3-6.6-4-10.6-5.1c-4-1.1-8.3-1.6-12.8-1.6c-3.5,0-7,0.4-10.6,1.1
			c-3.6,0.7-6.9,2-9.9,3.8c-3,1.8-5.5,4-7.3,6.9c-1.8,2.8-2.7,6.3-2.7,10.5c0,3.5,0.9,6.4,2.6,8.9c1.7,2.4,3.9,4.5,6.6,6.1
			c2.7,1.6,5.6,3,8.8,4.1c3.2,1.1,6.1,2,8.8,2.6l21,4.7c4.5,0.7,9,1.9,13.4,3.6c4.4,1.8,8.3,4.1,11.8,6.9c3.4,2.8,6.2,6.3,8.4,10.5
			c2.2,4.2,3.3,9.1,3.3,14.8c0,7-1.6,13-4.8,17.9c-3.1,4.9-7.2,8.9-12.1,12c-5,3.1-10.5,5.3-16.7,6.6c-6.1,1.3-12.3,2-18.3,2
			c-15.2,0-27.4-3.6-36.9-10.7c-9.4-7.2-14.8-18.7-16.1-34.6h15.8c0.6,10.7,4.5,18.7,11.6,24.2c7.1,5.4,15.9,8.1,26.4,8.1
			c3.8,0,7.8-0.4,11.9-1.2c4.1-0.8,7.9-2.3,11.4-4.2c3.5-2,6.3-4.6,8.6-7.7c2.3-3,3.4-6.9,3.4-11.4c0-3.8-0.8-7-2.4-9.6
			c-1.6-2.6-3.8-4.7-6.4-6.5c-2.7-1.8-5.7-3.2-9.1-4.4c-3.5-1.1-6.9-2.2-10.4-3l-20.3-4.5c-5.2-1.3-9.9-2.8-14.2-4.6
			c-4.3-1.8-8.1-3.9-11.4-6.5c-3.2-2.6-5.8-5.8-7.6-9.5c-1.9-3.8-2.7-8.4-2.7-13.9c0-6.5,1.4-12.1,4.4-16.8
			c2.8-4.6,6.7-8.4,11.3-11.2c4.6-2.8,9.9-5,15.6-6.3c5.8-1.3,11.5-2,17.1-2c6.5,0,12.5,0.8,18.2,2.5c5.6,1.7,10.5,4.2,14.8,7.8
			c4.2,3.5,7.6,7.8,10.1,13c2.5,5.1,3.9,11.2,4.2,18.2h-15.7C946,259.8,945,255.7,943.2,252"/>
	</g>
	<g>
		<path class="st1" d="M1002.2,177.4v71.8h0.5c2.9-7.8,8.3-14.1,16-18.9c7.7-4.7,16.1-7.1,25.3-7.1c9,0,16.6,1.1,22.6,3.5
			c6,2.4,10.9,5.6,14.6,9.9c3.7,4.2,6.2,9.4,7.8,15.6c1.5,6.1,2.3,13.1,2.3,20.8V356h-15.8v-80.6c0-5.5-0.5-10.6-1.5-15.4
			c-1-4.7-2.8-8.9-5.3-12.4c-2.5-3.5-5.9-6.3-10.1-8.3c-4.3-2-9.6-3-15.9-3c-6.3,0-11.9,1.1-16.9,3.4c-4.9,2.3-9.1,5.3-12.5,9.3
			c-3.5,3.9-6.1,8.6-8,14c-2,5.5-3,11.3-3.1,17.6V356h-15.8V177.4H1002.2z"/>
	</g>
</g>
</svg>
