<svg viewBox="0 0 1169.33 490.18" xmlns="http://www.w3.org/2000/svg"><path d="m242.4 9.32c-129.09 0-234.12 105-234.12 234.12s105 234.12 234.12 234.12 234.13-105 234.13-234.12-105.03-234.12-234.13-234.12zm0 429.59c-107.78 0-195.47-87.69-195.47-195.47s87.69-195.44 195.47-195.44 195.47 87.69 195.47 195.48-87.68 195.43-195.47 195.43z" fill="#231f20"/><path d="m674.48 155.64v14.67l-114.89 145.69h117.34v14.18h-135.93v-14.67l114.9-145.69h-107.07v-14.18z"/><path d="m769.57 221.4q-8.55-8.07-24-8.07a38.89 38.89 0 0 0 -19.27 4.67 42.49 42.49 0 0 0 -13.81 12.22 55.55 55.55 0 0 0 -8.31 17.23 70.32 70.32 0 0 0 0 39.36 55.44 55.44 0 0 0 8.31 17.19 42.41 42.41 0 0 0 13.81 12.23 39 39 0 0 0 19.31 4.64 34 34 0 0 0 13.45-2.69 36.31 36.31 0 0 0 11.25-7.45 40.08 40.08 0 0 0 8.06-11.37 42 42 0 0 0 3.91-14.36h15.4q-3.18 23-16.86 35.81t-35.21 12.79q-14.42 0-25.54-5.25a54.32 54.32 0 0 1 -18.7-14.3 62.16 62.16 0 0 1 -11.49-21.15 87 87 0 0 1 0-51.58 62.2 62.2 0 0 1 11.49-21.14 55.5 55.5 0 0 1 18.7-14.42q11.11-5.38 25.54-5.38 20.29 0 34.35 10.75t16.74 32.51h-15.4q-3.16-14.16-11.73-22.24z"/><path d="m819.93 223.6a35.94 35.94 0 0 1 10.63-13.2 45.06 45.06 0 0 1 15.77-7.58 76.68 76.68 0 0 1 20-2.44 88.25 88.25 0 0 1 16.67 1.62 40.34 40.34 0 0 1 14.92 6 32.81 32.81 0 0 1 10.75 12.35q4.15 7.95 4.16 20.65v67q0 9.29 9 9.28a12 12 0 0 0 4.89-1v12.92c-1.8.33-3.39.58-4.77.74a47.19 47.19 0 0 1 -5.25.24 23.36 23.36 0 0 1 -9.42-1.59 12.65 12.65 0 0 1 -5.5-4.52 16.94 16.94 0 0 1 -2.56-7 59.45 59.45 0 0 1 -.61-8.92h-.49a105.17 105.17 0 0 1 -8.44 10.88 41.91 41.91 0 0 1 -9.53 7.94 43.88 43.88 0 0 1 -12 4.89 65.6 65.6 0 0 1 -16 1.71 62.94 62.94 0 0 1 -16.5-2.08 36.83 36.83 0 0 1 -13.44-6.6 31.39 31.39 0 0 1 -9-11.49 38.19 38.19 0 0 1 -3.3-16.5q0-13.2 5.87-20.65a36.92 36.92 0 0 1 15.52-11.37 88.94 88.94 0 0 1 21.76-5.5q12.09-1.59 24.56-3.05c3.26-.33 6.12-.74 8.56-1.23a14.92 14.92 0 0 0 6.11-2.56 12 12 0 0 0 3.79-5 21.74 21.74 0 0 0 1.35-8.32q0-7.81-2.57-12.83a20.28 20.28 0 0 0 -7.09-7.94 28.68 28.68 0 0 0 -10.51-4 71.5 71.5 0 0 0 -12.84-1.1q-14.67 0-23.95 7t-9.78 22.37h-15.4a51 51 0 0 1 4.64-19.12zm77 37.65q-1.47 2.69-5.63 3.91a59.2 59.2 0 0 1 -7.33 1.71q-9.78 1.71-20.17 3.05a111 111 0 0 0 -18.94 4 37 37 0 0 0 -14.06 7.7q-5.49 5-5.5 14.3a22.3 22.3 0 0 0 2.33 10.39 25.09 25.09 0 0 0 6.23 7.82 27.12 27.12 0 0 0 9 5 33.1 33.1 0 0 0 10.51 1.71 52.79 52.79 0 0 0 16.87-2.69 41.56 41.56 0 0 0 14.06-7.82 37.27 37.27 0 0 0 13.08-29.09v-20z"/><path d="m1013.77 228.61a25 25 0 0 0 -7.21-8.68 30.13 30.13 0 0 0 -10.39-5 47.44 47.44 0 0 0 -12.47-1.59 50.75 50.75 0 0 0 -10.38 1.1 32.19 32.19 0 0 0 -9.66 3.67 20.76 20.76 0 0 0 -7.09 6.72 18.48 18.48 0 0 0 -2.69 10.27 14.41 14.41 0 0 0 2.57 8.68 22.84 22.84 0 0 0 6.48 6 41 41 0 0 0 8.55 4q4.65 1.59 8.56 2.57l20.53 4.64a58.31 58.31 0 0 1 13.08 3.55 42.15 42.15 0 0 1 11.49 6.72 32.88 32.88 0 0 1 8.19 10.26 31 31 0 0 1 3.18 14.43q0 10.26-4.65 17.47a37.94 37.94 0 0 1 -11.86 11.75 50.42 50.42 0 0 1 -16.26 6.48 84.52 84.52 0 0 1 -17.85 2q-22.24 0-36-10.51t-15.77-33.73h15.4q1 15.64 11.37 23.59t25.79 7.94a57.59 57.59 0 0 0 11.61-1.22 37 37 0 0 0 11.12-4.16 26.52 26.52 0 0 0 8.43-7.45 18.33 18.33 0 0 0 3.31-11.13 17.72 17.72 0 0 0 -2.33-9.41 20.28 20.28 0 0 0 -6.23-6.35 39.44 39.44 0 0 0 -8.92-4.28q-5-1.71-10.15-2.93l-19.8-4.4a112.81 112.81 0 0 1 -13.97-4.61 44.42 44.42 0 0 1 -11.13-6.35 26.75 26.75 0 0 1 -7.45-9.29 30.64 30.64 0 0 1 -2.69-13.57 30.33 30.33 0 0 1 4.28-16.38 33.51 33.51 0 0 1 11.12-11 51.91 51.91 0 0 1 15.28-6.11 74.08 74.08 0 0 1 16.74-2 61.78 61.78 0 0 1 17.73 2.44 40.72 40.72 0 0 1 14.42 7.58 37.24 37.24 0 0 1 9.9 12.71 45.61 45.61 0 0 1 4.16 17.84h-15.41a29 29 0 0 0 -2.93-12.26z"/><path d="m1071.46 155.64v70.16h.49a37 37 0 0 1 15.64-18.46 46 46 0 0 1 24.69-7q13.2 0 22.13 3.42a35 35 0 0 1 14.3 9.66 36.07 36.07 0 0 1 7.58 15.27 86.41 86.41 0 0 1 2.2 20.29v81.16h-15.4v-78.67a72.87 72.87 0 0 0 -1.47-15 31.86 31.86 0 0 0 -5.14-12.1 24.85 24.85 0 0 0 -9.89-8.06q-6.24-2.94-15.53-2.94a39.26 39.26 0 0 0 -16.5 3.3 35.69 35.69 0 0 0 -12.22 9.05 41.66 41.66 0 0 0 -7.82 13.69 55.46 55.46 0 0 0 -3.06 17.23v73.58h-15.4v-174.58z"/><path d="m325.89 170.45v-35.7h-63.87v-39.2h-39.23v39.2h-63.88v47.29h99.02l-80.97 111.45-18.05 22.93v35.71h63.88v39.07h4.7v.16h29.82v-.16h4.71v-39.07h63.87v-47.29h-99.02l80.97-111.46z" fill="#231f20"/></svg>