<?xml version="1.0" encoding="utf-8"?>
<!-- Generator: Adobe Illustrator 24.0.3, SVG Export Plug-In . SVG Version: 6.00 Build 0)  -->
<svg version="1.1" id="Layer_1" xmlns="http://www.w3.org/2000/svg" xmlns:xlink="http://www.w3.org/1999/xlink" x="0px" y="0px"
	 viewBox="0 0 792 612" style="enable-background:new 0 0 792 612;" xml:space="preserve">
<polygon points="297.28,286.48 297.28,282.58 263.89,282.58 263.89,286.35 292.35,286.35 261.81,325.07 261.81,328.97 
	297.93,328.97 297.93,325.2 266.75,325.2 "/>
<path d="M316.83,326.5c-7.8,0-11.76-7.21-11.76-14.29c0-7.08,3.96-14.29,11.76-14.29c5.39,0,8.38,3.05,9.49,8.05h4.09
	c-0.98-7.73-6.37-11.5-13.58-11.5c-10.2,0-15.85,8.12-15.85,17.74c0,9.62,5.65,17.74,15.85,17.74c7.54,0,12.74-4.87,13.84-12.99
	h-4.09C326.06,322.47,321.83,326.5,316.83,326.5z"/>
<path d="M361.91,323.06v-17.8c0-9.03-6.43-10.79-12.35-10.79c-7.73,0-13.12,3.38-13.58,11.24h4.09c0.19-5.46,3.83-7.8,8.96-7.8
	c4.87,0,8.77,1.36,8.77,6.89c0,3.64-1.88,4.22-5.26,4.55c-8.84,1.04-18,1.43-18,10.78c0,6.76,5,9.81,11.24,9.81
	c6.5,0,9.29-2.47,12.21-6.82h0.13c0,3.44,0.65,5.85,4.81,5.85c1.1,0,1.69-0.06,2.66-0.26v-3.44c-0.46,0.2-0.84,0.26-1.3,0.26
	C362.69,325.53,361.91,324.68,361.91,323.06z M357.82,315.98c0,6.56-5.39,10.53-11.69,10.53c-3.9,0-7.47-2.53-7.47-6.63
	c0-6.5,8.64-6.5,15.59-7.73c1.1-0.19,2.93-0.52,3.44-1.49h0.13V315.98z"/>
<path d="M385.87,310.59l-5.46-1.23c-2.86-0.72-6.95-2.08-6.95-5.65c0-4.35,4.29-5.78,7.93-5.78c4.68,0,8.58,2.27,8.77,7.34h4.09
	c-0.32-7.28-5.52-10.79-12.28-10.79c-5.91,0-12.6,2.6-12.6,9.42c0,5.65,4.03,7.6,9.36,8.97l5.26,1.17c3.7,0.91,7.34,2.21,7.34,6.11
	c0,4.68-5.26,6.37-9.16,6.37c-5.46,0-9.55-2.86-9.88-8.38h-4.09c0.71,8.25,5.91,11.83,13.77,11.83c6.24,0,13.45-2.79,13.45-10.07
	C395.42,314.03,390.55,311.3,385.87,310.59z"/>
<path d="M416.21,294.47c-4.74,0-9.16,2.73-10.72,6.76h-0.13v-18.65h-4.09v46.39h4.09v-19.55c0.2-6.56,3.96-11.5,10.53-11.5
	c6.63,0,8.51,4.42,8.51,10.13v20.92h4.09V307.4C428.48,299.41,425.63,294.47,416.21,294.47z"/>
<path d="M436.76,305.41v23.48h-1.31v-46.31h1.31v21.53h32.75v-21.53h1.31v46.31h-1.31v-23.48H436.76z"/>
<path d="M476.52,312.48c0.2,8.95,3.73,15.89,13.3,15.89c7.01,0,12.05-3.76,13.17-11.03h1.31c-0.85,7.65-6.75,12.32-14.35,12.32
	c-10.42,0.19-14.74-7.59-14.74-17.45c0-11.09,7.14-17.45,14.74-17.45c10.48,0,15.07,8.63,14.74,17.71H476.52z M503.37,311.19
	c0-8.17-4.59-15.11-13.3-15.11c-7.34,0-13.04,5.77-13.56,15.11H503.37z"/>
<path d="M509.04,305.87c0.33-6.29,4.52-11.09,12.84-11.09c5.96,0,10.94,2.27,11.14,9.53v21.21c0,2.53,2.42,2.27,4.26,2.08v1.3
	c-0.65,0.06-1.31,0.06-1.96,0.06c-1.9,0-3.6-0.78-3.6-3.31v-4.35h-0.13c-1.38,4.28-6.35,8.37-13.36,8.37
	c-6.75,0-11.27-3.05-11.27-9.02c0-8.24,5.96-9.66,11.6-9.99c9.24-0.52,13.17-0.39,13.17-5.38c0-3.96-0.85-9.21-9.83-9.21
	c-7.07,0-11.07,3.57-11.53,9.79H509.04z M531.71,309.31h-0.13c-1.7,2.46-7.73,2.34-13.04,2.66c-5.31,0.32-10.29,1.56-10.29,8.69
	c0,3.83,2.49,7.72,9.83,7.72c8.78,0,13.63-6.36,13.63-12.91V309.31z"/>
<path d="M541.26,328.89h-1.31v-33.34h1.31v8.24h0.13c1.24-4.93,5.18-9.21,13.23-9.02v1.3c-9.24-0.52-13.36,6.68-13.36,13.94V328.89z
	"/>
<path d="M564.15,296.85v25.55c0,4.99,2.49,5.19,4.52,5.19c1.31,0,2.42,0,2.88-0.19v1.3c-0.79,0.06-1.18,0.19-3.21,0.19
	c-3.08,0-5.5-1.49-5.5-6.23v-25.81h-6.22v-1.3h6.22v-10.51h1.31v10.51h7.6v1.3H564.15z"/>
<path d="M619.3,295.55h1.31l-10.74,33.34h-1.7l-10.48-32.04h-0.13l-10.55,32.04h-1.83l-10.48-33.34H576l10.02,32.04h0.13
	l10.42-32.04h2.03l10.35,32.04h0.13L619.3,295.55z"/>
<path d="M635.53,294.78c9.76,0,15.13,8.37,15.13,17.45c0,9.15-5.31,17.45-15.2,17.45c-9.83,0-15.13-8.3-15.13-17.45
	C620.33,303.14,625.63,294.78,635.53,294.78z M635.53,328.37c8.97,0,13.82-7.65,13.82-16.15c0-8.3-4.85-16.15-13.82-16.15
	c-9.11,0-13.89,7.85-13.89,16.15C621.64,320.72,626.42,328.37,635.53,328.37z"/>
<path d="M668.67,294.78c9.76,0,15.13,8.37,15.13,17.45c0,9.15-5.31,17.45-15.2,17.45c-9.83,0-15.13-8.3-15.13-17.45
	C653.47,303.14,658.78,294.78,668.67,294.78z M668.67,328.37c8.97,0,13.82-7.65,13.82-16.15c0-8.3-4.85-16.15-13.82-16.15
	c-9.11,0-13.89,7.85-13.89,16.15C654.78,320.72,659.57,328.37,668.67,328.37z"/>
<path d="M714.59,282.58h1.31v46.31h-1.31v-9.34h-0.13c-1.77,5.84-6.62,10.12-13.49,10.12c-8.91,0-14.35-7.33-14.35-17.38
	c0-9.34,5.04-17.51,14.35-17.51c7.14,0,11.92,4.09,13.49,10.12h0.13V282.58z M700.96,296.07c-9.17,0-13.04,8.5-13.04,16.21
	c0,8.56,4.32,16.09,13.04,16.09c8.65,0,13.63-7.46,13.63-16.09C714.59,301.91,709.15,296.07,700.96,296.07z"/>
<g>
	<g>
		<path d="M208.92,280.39c-7.58-7.54-16.82-11.86-25.39-11.86c-0.05,0-0.11,0-0.16,0c-13.41,0.08-23.38,5.34-27.85,9.82
			c-7.33,7.34-7.38,17.53-7.42,27.38l0,0.74c-0.05,10.21,1.48,17.3,9.74,25.51c7.91,7.86,16.02,11.53,25.53,11.53c0,0,0.01,0,0.01,0
			c19.29,0,37.55-18.22,37.58-37.5C220.98,297.49,216.48,287.91,208.92,280.39z M199.76,325.53c-5.25,5.17-11.87,8.11-18.19,8.11
			c-0.09,0-0.17,0-0.26,0c-6.69-0.08-13.1-3.06-18.05-8.37c-4.77-5.12-7.45-11.76-7.37-18.22c0.11-8.15,2.25-14.66,6.36-19.35
			c4.38-5,10.79-7.64,19.05-7.86c5.91-0.15,12.48,2.86,18.02,8.27c5.68,5.56,9.06,12.52,9.04,18.63
			C208.35,313.33,205.21,320.17,199.76,325.53z"/>
		<path d="M198.61,288.86c-5.13-5.02-11.4-7.98-16.87-7.98c-0.13,0-0.26,0-0.4,0.01c-15.51,0.41-24.18,9.71-24.4,26.18
			c-0.08,6.19,2.5,12.57,7.09,17.49c4.75,5.1,10.9,7.96,17.3,8.04c6.11,0.08,12.58-2.77,17.7-7.81c5.25-5.17,8.28-11.74,8.3-18.05
			C207.36,300.91,204.1,294.22,198.61,288.86z M198.23,307c-1.59,1.49-3.09,3.98-4.69,6.63c-3.11,5.17-6.64,11.02-12.03,11.02
			c-0.03,0-0.07,0-0.1,0c-3.76-0.05-7.52-1.83-10.59-5.02c-3.42-3.56-5.49-8.42-5.38-12.68c0.28-11.46,6.11-18.06,16-18.1
			c0.01,0,0.01,0,0.02,0c4.39,0,15.83,5.54,18.3,11.75C200.69,302.97,200.17,305.19,198.23,307z"/>
		<path d="M181.45,289.89c-0.01,0-0.01,0-0.02,0c-13.14,0.05-14.84,11.97-14.96,17.08c-0.1,4,1.86,8.57,5.09,11.94
			c2.87,2.99,6.38,4.66,9.86,4.7c0.03,0,0.06,0,0.08,0c4.81,0,8.17-5.59,11.14-10.52c1.63-2.71,3.17-5.27,4.87-6.85
			c1.65-1.54,2.06-3.26,1.27-5.26C196.5,295.23,185.51,289.89,181.45,289.89z"/>
		<path d="M222.84,274.1c-1.51-1.7-3.19-3.46-5.14-5.4c-1.69-1.68-3.25-3.17-4.78-4.54c-10.62-9.56-19.68-13.46-31.25-13.46l-0.43,0
			c-7.12,0.07-14.89,1.34-21.87,3.59c-7.92,2.55-14.4,6.22-18.73,10.61c-9.48,9.6-10.44,22.36-10.61,34.6
			c-0.03,1.86-0.03,3.72-0.03,5.57l0,0.87l0,0.06l0,0.1c-0.02,15.51,2.08,25,14.09,36.98c11.2,11.18,23.36,16.66,37.16,16.74l0.27,0
			c13.18,0,26.82-6.03,37.4-16.54c10.79-10.71,16.98-24.57,16.99-38.03C235.9,293.54,232.12,284.51,222.84,274.1z M214.56,337.54
			c-9.06,9.74-20.71,15.18-32.8,15.32c-0.18,0-0.36,0-0.54,0c-12.12,0-23-4.83-33.26-14.77c-11-10.65-13.06-19.72-13.02-32.74
			l0-0.24c0.04-12.31,0.08-26.27,10.01-35.85c8.97-8.66,25.09-12.56,36.45-12.56c0.12,0,0.25,0,0.37,0
			c11.34,0.09,23.09,5.46,32.25,14.74c9.15,9.27,14.38,21.09,14.36,32.42C228.35,315.86,223.31,328.13,214.56,337.54z"/>
		<path d="M213.27,272.18c-8.97-9.09-20.45-14.35-31.52-14.43c-0.12,0-0.24,0-0.36,0c-11.15,0-26.96,3.81-35.72,12.27
			c-9.61,9.28-9.65,22.41-9.69,35.11l0,0.24c-0.05,14.87,3.04,22.64,12.7,32c10.2,9.88,21,14.62,33.06,14.47
			c11.81-0.14,23.19-5.46,32.05-14.99c8.58-9.23,13.51-21.24,13.54-32.96C227.35,292.81,222.23,281.26,213.27,272.18z
			 M210.09,332.71c-7.51,7.49-17.24,11.78-26.71,11.78c0,0-0.01,0-0.01,0c-9.78,0-18.11-3.76-26.21-11.81
			c-8.5-8.45-10.08-15.73-10.03-26.21l0-0.74c0.04-9.58,0.09-20.44,7.71-28.07c7.36-7.37,19.97-10.05,28.53-10.11
			c0.06,0,0.11,0,0.17,0c8.82,0,18.31,4.42,26.07,12.14c7.73,7.7,12.34,17.54,12.32,26.33C221.91,315.5,217.6,325.22,210.09,332.71z
			"/>
	</g>
	<g>
		<path d="M224.91,272.28c-1.64-1.84-3.4-3.67-5.27-5.54c-1.65-1.64-3.27-3.19-4.89-4.65c-9.84-8.86-19.48-14.17-33.09-14.17
			c-0.15,0-0.3,0-0.45,0c-13.93,0.13-32.49,4.82-42.56,15.02c-9.94,10.07-11.21,23.26-11.39,36.5c-0.03,1.88-0.03,3.75-0.03,5.62
			l0,0.88c0,0.05,0,0.11,0,0.16c-0.03,15.95,2.29,26.37,14.89,38.95c11.75,11.73,24.54,17.47,39.1,17.56c0.1,0,0.19,0,0.28,0
			c13.91,0,28.24-6.31,39.35-17.35c11.31-11.23,17.8-25.81,17.82-40C238.67,291.57,233.53,281.95,224.91,272.28z M219.29,343.71
			c-10.7,10.62-24.47,16.71-37.8,16.71l-0.27,0c-13.95-0.09-26.24-5.62-37.56-16.92c-12.14-12.12-14.27-21.71-14.24-37.38l0-1.04
			c0-1.83,0.01-3.72,0.03-5.62c0.17-12.37,1.14-25.27,10.74-34.98c4.38-4.44,10.93-8.14,18.94-10.73c7.06-2.28,14.9-3.56,22.09-3.63
			l0.43,0c11.71,0,20.86,3.94,31.6,13.6c1.54,1.39,3.12,2.89,4.82,4.58c1.97,1.96,3.67,3.74,5.19,5.46
			c9.38,10.52,13.2,19.65,13.19,31.51C236.45,318.87,230.19,332.88,219.29,343.71z"/>
	</g>
</g>
</svg>
