<svg viewBox="0 0 493.33 490.18" xmlns="http://www.w3.org/2000/svg"><path d="m245.4 20c-124.29 0-225.4 101.11-225.4 225.39s101.11 225.4 225.4 225.4 225.39-101.11 225.39-225.4-101.11-225.39-225.39-225.39zm0 413.58c-103.77 0-188.19-84.42-188.19-188.19s84.42-188.18 188.19-188.18 188.18 84.42 188.18 188.18-84.42 188.19-188.18 188.19z" fill="#231f20"/><circle cx="245.4" cy="245.39" fill="#f4b728" r="177.65"/><path d="m325.78 175.13v-34.38h-61.5v-37.73h-37.77v37.73h-61.49v45.54h95.33l-77.96 107.29-17.37 22.08v34.38h61.49v37.61h4.53v.16h28.71v-.16h4.53v-37.61h61.5v-45.54h-95.34l77.96-107.29z" fill="#231f20"/></svg>