<svg enable-background="new 0 0 493.3 490.2" viewBox="0 0 493.3 490.2" xmlns="http://www.w3.org/2000/svg"><path d="m409.1 124.4c-6-6.8-12.7-13.8-20.5-21.5-6.7-6.7-12.9-12.6-19-18.1-42.3-38.1-78.3-53.6-124.4-53.6h-1.7c-28.3.3-59.3 5.3-87.1 14.3-31.6 10.2-57.4 24.8-74.6 42.3-37.8 38.2-41.6 89-42.3 137.7-.1 7.4-.1 14.8-.1 22.2v3.5.3.4c-.1 61.7 8.3 99.5 56.1 147.2 44.6 44.5 93 66.3 147.9 66.7h1.1c52.5 0 106.8-24 148.9-65.8 42.9-42.6 67.6-97.8 67.6-151.4.1-46.8-15-82.8-51.9-124.2z" fill="#0a1c2b"/><path d="m416.5 117.8c-6.5-7.3-13.5-14.6-20.9-22-6.5-6.5-13-12.6-19.4-18.4-39-35.1-77.2-56.1-131.1-56.1-.6 0-1.2 0-1.8 0-55.2.5-128.8 19.1-168.7 59.5-39.4 39.9-44.4 92.2-45.1 144.7-.1 7.4-.1 14.9-.1 22.3v3.5.6c-.1 63.2 9.1 104.5 59 154.3 46.5 46.5 97.2 69.2 154.9 69.6h1.1c55.1 0 111.9-25 155.9-68.7 44.8-44.5 70.6-102.3 70.6-158.5.1-54.4-20.2-92.5-54.4-130.8zm-172 347.9h-1.1c-54.9-.3-103.3-22.1-147.9-66.7-47.8-47.7-56.2-85.5-56.1-147.2v-.4-.3-3.5c0-7.4 0-14.8.1-22.2.7-48.6 4.5-99.4 42.3-137.6 17.2-17.5 43-32.1 74.6-42.2 27.8-9 58.7-14 87.1-14.3h1.7c46.1 0 82.1 15.5 124.4 53.6 6.1 5.5 12.3 11.4 19 18.1 7.8 7.7 14.5 14.8 20.5 21.5 36.9 41.4 52 77.4 52 124.1 0 53.6-24.7 108.8-67.6 151.4-42.3 41.7-96.5 65.7-149 65.7z" fill="#76bc43"/><g fill="#fff"><path d="m243.4 437.1c-48 0-91.2-19.2-131.8-58.5-43.6-42.2-51.8-78.2-51.6-129.8v-.9c.1-48.8.3-104.1 39.7-142.1 35.5-34.3 99.4-49.8 144.4-49.8h1.5c44.9.3 91.5 21.6 127.8 58.4 36.2 36.7 57 83.6 56.9 128.5-.1 47.5-20 96.1-54.7 133.4-35.9 38.6-82.1 60.2-130 60.7-.8.1-1.5.1-2.2.1zm.7-376.9c-44.2 0-106.8 15.1-141.6 48.6-38.1 36.8-38.2 88.8-38.4 139.1v.9c-.2 58.9 12.1 89.7 50.3 126.8 40.4 39.2 83.2 57.9 131 57.4 46.8-.5 91.9-21.6 127-59.4 34-36.6 53.6-84.2 53.6-130.6.1-43.8-20.2-89.6-55.7-125.6s-81.1-56.9-124.9-57.2c-.4 0-.9 0-1.3 0z"/><path d="m251.9 403.9c-38.8 0-71.8-14.9-103.9-46.8-33.7-33.5-40-62.3-39.8-103.8v-2.9c.2-38 .4-81 30.5-111.2 29.3-29.3 79.3-39.9 113.2-40.2h.7c35 0 72.6 17.5 103.3 48.1 30.6 30.5 48.9 69.5 48.8 104.3-.1 37.5-17.2 76.1-46.9 105.7-29.7 29.8-68.3 46.8-105.9 46.8zm.7-301c-.2 0-.4 0-.6 0-53.1.3-92.7 21.2-110.4 38.9-29 29.1-29.2 69.5-29.4 108.5v2.9c-.2 40.5 5.9 68.6 38.6 101.1 31.3 31.2 63.5 45.7 101.2 45.7 76.4 0 148.8-72.2 148.9-148.6.1-33.8-17.8-71.8-47.7-101.6-30.1-29.8-66.7-46.9-100.6-46.9z"/><path d="m244.8 360.9c-.3 0-.7 0-1 0-26.5-.3-51.9-12.1-71.5-33.2-18.9-20.3-29.5-46.6-29.2-72.2.4-32.3 8.9-58.1 25.2-76.7 17.4-19.8 42.8-30.3 75.5-31.2 23.4-.6 49.5 11.3 71.4 32.8 22.5 22 35.9 49.6 35.8 73.8-.1 26.1-12.5 53.2-34.1 74.4-20.9 20.6-47.1 32.3-72.1 32.3zm.6-209.1c-.5 0-1 0-1.6 0-61.5 1.6-95.8 38.5-96.7 103.8-.3 24.5 9.9 49.8 28.1 69.3 18.8 20.2 43.2 31.5 68.6 31.9 24.2.3 49.8-11 70.2-31 20.8-20.5 32.8-46.5 32.9-71.5.1-23.1-12.8-49.6-34.6-70.9-20.4-19.8-45.2-31.6-66.9-31.6z"/><path d="m244.5 325.3c-.1 0-.3 0-.4 0-14.9-.2-29.8-7.3-42-19.9-13.6-14.1-21.7-33.3-21.3-50.3 1.1-45.4 24.2-71.6 63.4-71.7h.1c17.4 0 62.7 21.9 72.5 46.6 3.7 9.4 1.6 18.2-6 25.4-6.3 5.9-12.3 15.8-18.6 26.3-12.3 20.4-26.3 43.6-47.7 43.6zm-.2-137.8c-52.1.2-58.9 47.4-59.4 67.7-.4 15.8 7.4 34 20.2 47.3 11.4 11.8 25.3 18.5 39.1 18.6h.3c19.1 0 32.4-22.1 44.2-41.7 6.5-10.7 12.6-20.9 19.3-27.2 6.5-6.1 8.2-12.9 5-20.9-9.1-22.6-52.6-43.8-68.7-43.8z"/></g></svg>