<?xml version="1.0" encoding="utf-8"?>
<!-- Generator: Adobe Illustrator 22.1.0, SVG Export Plug-In . SVG Version: 6.00 Build 0)  -->
<svg version="1.1" id="Layer_1" xmlns="http://www.w3.org/2000/svg" xmlns:xlink="http://www.w3.org/1999/xlink" x="0px" y="0px"
	 viewBox="0 0 1921.5 456" style="enable-background:new 0 0 1921.5 456;" xml:space="preserve">
<g>
	<path d="M319.3,190.4c-42.4,0-76.9,34.5-76.9,76.9c0,17,5.6,32.8,15,45.6L217.3,353V177c37.1-5.5,65.5-37.5,65.5-76.1
		c0-42.4-34.5-76.9-76.9-76.9c-42.4,0-76.9,34.5-76.9,76.9c0,38.6,28.5,70.6,65.5,76.1v176l-40.2-40.2c9.4-12.8,15-28.5,15-45.6
		c0-42.4-34.5-76.9-77-76.9c-42.4,0-76.9,34.5-76.9,76.9c0,42.4,34.5,77,76.9,77c17.2,0,33.1-5.7,45.9-15.3l56.2,56.2v39h22.7v-38.9
		l56.2-56.2c12.8,9.6,28.7,15.2,45.9,15.2c42.4,0,76.9-34.5,76.9-77C396.2,224.9,361.8,190.4,319.3,190.4z M92.4,321.6
		c-29.9,0-54.2-24.3-54.2-54.3c0-29.9,24.3-54.2,54.2-54.2c29.9,0,54.2,24.3,54.2,54.2c0,10.8-3.2,20.8-8.6,29.2L123,281.5
		l-16.1,16.1l15.1,15.1C113.5,318.3,103.4,321.6,92.4,321.6z M151.7,100.9c0-29.9,24.3-54.2,54.2-54.2c29.9,0,54.2,24.3,54.2,54.2
		c0,26-18.4,47.8-42.8,53v-22.8h-22.7v22.8C170.1,148.7,151.7,126.9,151.7,100.9z M319.3,321.6c-10.9,0-21.1-3.3-29.6-8.8l10.4-10.4
		l-16.1-16.1l-10.3,10.3c-5.4-8.5-8.6-18.5-8.6-29.3c0-29.9,24.3-54.2,54.2-54.2c29.9,0,54.2,24.3,54.2,54.2
		C373.5,297.2,349.3,321.6,319.3,321.6z"/>
	<path d="M1237.4,280.9c-5.7-3.6-12.2-6.4-19.4-8.4c-7.2-2.1-14.6-3.9-22.2-5.3c-7.5-1.5-14.8-3.1-22.1-4.7
		c-7.3-1.7-13.7-3.8-19.4-6.6c-5.6-2.7-10.2-6.3-13.7-10.8c-3.5-4.5-5.2-10.3-5.2-17.4c0-7.3,1.6-13.4,4.7-18.3
		c3.1-4.9,7.2-8.8,12-11.7c4.9-2.9,10.2-4.9,15.9-6.1c5.7-1.2,11.1-1.7,16-1.7c8.1,0,15.6,1,22.5,2.9c6.9,1.9,12.8,4.8,17.8,8.6
		c5,3.8,8.9,8.5,11.8,14.2c2.9,5.6,4.5,12.3,4.8,19.9h10.9c-0.5-9.8-2.6-18.1-6.2-25.1c-3.6-7-8.5-12.6-14.5-17
		c-6-4.4-13.1-7.6-21.1-9.7c-8-2.1-16.7-3.1-26-3.1c-7,0-14,0.9-21.1,2.6c-7.1,1.7-13.5,4.5-19.3,8.2s-10.4,8.6-13.9,14.7
		c-3.6,6-5.3,13.3-5.3,21.7s1.7,15.4,5.2,20.7c3.5,5.4,8,9.8,13.7,13.2c5.6,3.4,12.1,6.1,19.4,8.1c7.3,2,14.7,3.7,22.1,5.2
		c7.6,1.5,15,3.1,22.2,4.8c7.2,1.7,13.7,4.1,19.4,7c5.7,2.9,10.3,6.7,13.8,11.4c3.5,4.7,5.2,10.8,5.2,18.3c0,7.8-1.7,14.2-5.1,19.4
		c-3.4,5.1-7.6,9.3-12.7,12.4c-5.1,3.1-10.6,5.4-16.6,6.7c-6,1.3-11.7,2-17,2c-8.8,0-17.1-1-25.1-2.9c-7.9-1.9-14.9-5-20.7-9.3
		c-5.9-4.3-10.5-9.8-13.8-16.5c-3.3-6.7-4.7-14.9-4.2-24.7h-10.9c-0.2,11.4,1.7,21.1,5.6,29.1c3.9,7.9,9.2,14.5,16,19.5
		c6.8,5.1,14.7,8.7,23.8,10.9c9.1,2.2,18.9,3.4,29.3,3.4c6.8,0,13.9-0.9,21.2-2.6c7.4-1.7,14.1-4.6,20.1-8.6c6-4,11.1-9.1,15-15.4
		c4-6.3,6-14.1,6-23.4c0-8.6-1.7-15.8-5.2-21.5S1243.1,284.5,1237.4,280.9z"/>
	<path d="M1378.8,352.5c-1.2-0.9-2-2.1-2.5-3.6c-0.5-1.5-0.8-3.1-0.9-5c-0.1-1.8-0.1-3.6-0.1-5.5v-74.3c0-9.8-3.5-17.7-10.6-23.7
		c-7-6-18.3-9.1-33.7-9.1s-27.3,3.5-35.6,10.6c-8.4,7-12.9,17.6-13.5,31.7h9.4c0.7-11.4,4.5-20,11.6-25.6c7-5.6,16.3-8.4,27.7-8.4
		c6.5,0,11.9,0.7,16.4,2c4.5,1.3,8.1,3.1,10.9,5.5c2.8,2.3,4.9,5,6.2,7.9c1.3,3,2,6.2,2,9.7c0,4.5-0.2,8.2-0.7,11.2
		c-0.5,3-1.7,5.4-3.7,7.3c-2,1.9-4.9,3.4-8.8,4.5c-3.9,1.1-9.2,1.9-16,2.4l-14.7,1.2c-5.1,0.5-10.5,1.3-16,2.5
		c-5.6,1.2-10.6,3.1-15.2,5.8c-4.6,2.7-8.3,6.5-11.3,11.2c-3,4.7-4.5,10.8-4.5,18.3c0,12.3,3.7,21.3,11.2,27.2
		c7.5,5.9,18,8.8,31.5,8.8c6.1,0,11.8-0.7,16.9-2.2c5.1-1.5,9.7-3.6,13.8-6.2c4.1-2.6,7.5-5.7,10.3-9.1c2.8-3.4,5-7,6.5-10.8h0.5
		v6.7c0,2.7,0.2,5.1,0.6,7.3c0.4,2.2,1.2,4.2,2.4,5.8c1.2,1.7,2.9,3,5.1,4c2.2,1,5.3,1.5,9.1,1.5c2.6,0,5.2-0.3,7.7-1v-7.9
		c-3,0.5-5.3,0.7-7,0.7C1381.6,353.9,1380,353.4,1378.8,352.5z M1365.9,313.4c0,1.7-0.5,4.8-1.4,9.6c-0.9,4.7-3,9.6-6.3,14.7
		c-3.3,5.1-8.1,9.5-14.4,13.4c-6.3,3.9-14.8,5.8-25.6,5.8c-10.4,0-18.6-2.3-24.6-6.8c-6-4.6-8.9-11.6-8.9-21c0-6,1.2-10.8,3.5-14.5
		c2.3-3.7,5.3-6.7,9.1-8.8c3.7-2.2,7.9-3.7,12.5-4.6c4.6-0.9,9.3-1.6,13.9-2.1l15.9-1.5c5.8-0.5,11.1-1.2,15.8-2.2s8.2-2.9,10.6-5.7
		V313.4z"/>
	<path d="M1508.4,251.5c-4.7-6.1-10.7-11-17.9-14.7c-7.2-3.6-15.7-5.5-25.5-5.5c-7,0-13.1,1.1-18.5,3.2c-5.4,2.2-10,4.8-13.8,8.1
		c-3.8,3.2-6.9,6.8-9.2,10.6c-2.3,3.8-4,7.3-5,10.4h-0.7v-29.3h-9.2v173.4h9.2l0-72.3h0.5c3.8,10.4,9.9,18,18.2,22.6
		c8.3,4.6,17.8,7,28.4,7c9.8,0,18.3-1.7,25.5-5c7.2-3.3,13.2-7.9,17.9-13.8c4.7-5.9,8.3-12.9,10.6-21c2.3-8.1,3.5-17.1,3.5-26.8
		c0-8.9-1.2-17.5-3.5-25.6C1516.6,264.8,1513.1,257.6,1508.4,251.5z M1510.1,320.9c-1.9,7-4.8,13.2-8.7,18.5
		c-3.9,5.3-8.9,9.5-14.9,12.7c-6.1,3.1-13.2,4.7-21.5,4.7c-9,0-16.5-1.6-22.5-4.8c-6.1-3.2-10.9-7.5-14.4-12.9
		c-3.6-5.4-6.1-11.6-7.6-18.6c-1.5-7-2.2-14.4-2.2-22c0-7.6,0.8-14.9,2.5-22c1.7-7,4.4-13.3,8.1-18.8c3.7-5.5,8.6-9.9,14.6-13.2
		c6-3.3,13.2-5,21.7-5c8.6,0,16,1.7,22,5.1c6.1,3.4,11,7.9,14.8,13.4c3.8,5.6,6.6,11.8,8.5,18.9c1.8,7,2.7,14.2,2.7,21.5
		C1513,306.4,1512,313.9,1510.1,320.9z"/>
	<rect x="1549.4" y="184.7" width="9.4" height="177.4"/>
	<rect x="1595.4" y="184.7" width="9.4" height="25.6"/>
	<rect x="1595.4" y="234.4" width="9.4" height="127.7"/>
	<path d="M1739.5,262.7c-0.8-3.8-2.2-7.6-4.1-11.3c-1.9-3.7-4.5-7.1-7.8-10.1c-3.3-3-7.6-5.4-12.8-7.2c-5.2-1.8-11.6-2.7-19-2.7
		c-5,0-9.9,0.7-14.7,2c-4.8,1.3-9.2,3.3-13.3,6c-4.1,2.7-7.6,5.8-10.7,9.6c-3.1,3.7-5.4,8-7.1,12.8h-0.5v-27.3h-9.4v127.7h9.4V293
		c0-7.8,1-14.9,3.1-21.5c2.1-6.5,5.1-12.2,9.1-16.9c4-4.7,8.8-8.4,14.4-11.1c5.6-2.6,12.1-4,19.4-4c8.6,0,15.4,1.6,20.2,4.7
		c4.9,3.1,8.5,6.9,10.9,11.3c2.4,4.4,3.9,9,4.3,13.8c0.5,4.8,0.7,8.8,0.7,11.9v80.7h9.4v-79c0-2.6-0.1-5.8-0.2-9.3
		C1740.8,270.2,1740.3,266.5,1739.5,262.7z"/>
	<path d="M1864.9,234.4V261h-0.5c-3.6-9.4-9.7-16.7-18.3-21.9c-8.5-5.1-17.8-7.7-27.9-7.7c-8.9,0-16.9,1.7-23.7,5.1
		c-6.9,3.4-12.6,7.9-17.3,13.7c-4.6,5.7-8.2,12.4-10.6,20c-2.4,7.6-3.6,15.7-3.6,24.1c0,8.9,1.1,17.2,3.3,24.8
		c2.2,7.6,5.6,14.3,10.2,20c4.5,5.7,10.2,10.2,17.1,13.4c6.9,3.2,15,4.8,24.4,4.8c10.9,0,20.2-2.5,27.9-7.5
		c7.7-5,13.8-12.2,18.2-21.6h0.7v29.3c0,5.5-0.7,10.9-2.1,16.3c-1.4,5.4-3.9,10.2-7.3,14.4c-3.5,4.2-8.2,7.7-14,10.3
		c-5.9,2.6-13.2,4-22,4c-5.3,0-10.3-0.6-14.9-1.7c-4.6-1.2-8.8-3-12.5-5.6c-3.7-2.6-6.8-5.8-9.1-9.8c-2.3-4-3.7-8.8-4.2-14.4h-9.4
		c0.3,7.5,1.9,13.7,4.6,18.8c2.7,5.1,6.3,9.1,10.8,12.2c4.5,3.1,9.7,5.3,15.6,6.7c5.9,1.4,12.3,2.1,19.1,2.1c10.9,0,19.9-1.5,27-4.6
		c7.1-3.1,12.7-7.2,16.7-12.3c4-5.1,6.9-11.1,8.6-17.8c1.7-6.7,2.5-13.6,2.5-20.7v-121H1864.9z M1861.8,315
		c-1.9,6.5-4.8,12.4-8.7,17.5c-3.9,5.1-8.7,9.2-14.5,12.2c-5.8,3-12.6,4.5-20.4,4.5c-7.5,0-14-1.4-19.8-4.3
		c-5.7-2.9-10.5-6.8-14.4-11.8s-6.8-10.8-8.7-17.5c-1.9-6.7-2.9-13.8-2.9-21.2c0-6.8,1-13.5,2.9-20c1.9-6.5,4.7-12.4,8.4-17.5
		c3.7-5.1,8.4-9.3,14.2-12.4c5.7-3.1,12.5-4.7,20.2-4.7c7.8,0,14.6,1.5,20.4,4.5c5.8,3,10.6,7,14.5,12c3.9,5.1,6.8,10.9,8.7,17.5
		c1.9,6.6,2.9,13.5,2.9,20.6C1864.7,301.5,1863.7,308.4,1861.8,315z"/>
	<polygon points="596,192.4 596,177.4 467.5,177.4 467.5,191.9 577,191.9 459.5,341 459.5,356 598.5,356 598.5,341.5 478.4,341.5 	
		"/>
	<path d="M702.3,324.5c-2.2,4.5-4.9,8.4-8.3,11.6c-3.4,3.2-7.2,5.8-11.5,7.6c-4.3,1.9-8.9,2.8-13.8,2.8c-7.5,0-14.1-1.7-19.7-4.7
		c-5.7-3.2-10.4-7.4-14.2-12.5c-3.7-5.2-6.6-11-8.5-17.6c-1.9-6.6-2.9-13.3-2.9-20.2c0-6.8,1-13.5,2.9-20.1
		c1.9-6.6,4.8-12.5,8.5-17.6c3.8-5.2,8.5-9.4,14.2-12.5c5.6-3.1,12.2-4.7,19.7-4.7c10.5,0,18.7,2.8,24.6,8.3
		c5.8,5.5,9.8,13.1,12,22.8h15.8c-1.9-14.9-7.5-25.9-17.1-33.3c-9.6-7.3-21.3-11-35.2-11c-9.8,0-18.5,1.8-26.1,5.5
		c-7.6,3.7-14,8.6-19.2,14.8c-5.1,6.2-9,13.4-11.7,21.7c-2.7,8.3-4,17-4,26.3c0,9.4,1.3,18.2,4,26.4c2.7,8.3,6.6,15.5,11.7,21.7
		c5.2,6.1,11.6,11,19.2,14.6c7.6,3.6,16.3,5.4,26.1,5.4c14.7,0,26.7-4.4,36.1-13.2c9.3-8.7,15.1-21,17.3-36.6h-15.8
		C705.8,315.1,704.5,320,702.3,324.5z"/>
	<path d="M839.9,333.3v-68.6c0-8.7-1.4-15.7-4.2-21.1c-2.8-5.4-6.5-9.6-11-12.6c-4.5-3-9.6-5-15.3-6.1c-5.7-1-11.3-1.6-17-1.6
		c-7.5,0-14.4,0.8-20.5,2.5c-6.2,1.6-11.6,4.2-16.1,7.7c-4.6,3.5-8.3,7.9-10.9,13.5c-2.7,5.5-4.2,12-4.7,19.5h15.8
		c0.3-10.5,3.7-18.2,10-22.9c6.3-4.7,14.5-7.1,24.5-7.1c4.7,0,9.1,0.4,13.2,1.1c4.1,0.8,7.7,2.2,10.7,4.1c3.1,2,5.6,4.7,7.3,8.2
		c1.8,3.4,2.6,7.7,2.6,13.1c0,3.6-0.5,6.4-1.4,8.6c-0.9,2.2-2.2,3.9-3.9,5.1c-1.6,1.3-3.7,2.1-6.2,2.6c-2.5,0.5-5.4,0.9-8.8,1.2
		c-8.5,1-16.9,2.1-25.1,3.1c-8.3,1.1-15.7,2.9-22.3,5.6c-6.6,2.7-11.9,6.5-15.8,11.7c-4,5.1-6,12.1-6,21.1c0,6.5,1.1,12.1,3.4,16.9
		c2.2,4.8,5.3,8.7,9.3,11.8c3.9,3,8.5,5.3,13.7,6.8c5.3,1.4,10.9,2.1,16.9,2.1c6.3,0,11.8-0.6,16.4-1.8c4.6-1.1,8.7-2.8,12.2-4.9
		c3.6-2.2,6.9-4.9,9.7-8.2c2.9-3.2,5.8-7,8.6-11.1h0.5c0,3.3,0.2,6.3,0.7,9.1c0.4,2.8,1.2,5.2,2.6,7.1c1.3,2,3.2,3.6,5.6,4.6
		c2.4,1.1,5.6,1.6,9.6,1.6c2.2,0,3.9-0.1,5.3-0.3c1.4-0.2,3.1-0.5,4.9-0.7v-13.3c-1.5,0.6-3.2,0.9-5,0.9
		C842.9,342.7,839.9,339.6,839.9,333.3z M824.1,305.9c0,6.4-1.2,12.1-3.7,17.1c-2.4,5-5.6,9.2-9.7,12.7c-4.1,3.5-8.9,6.2-14.4,8
		c-5.5,1.9-11.2,2.8-17.2,2.8c-3.7,0-7.3-0.6-10.8-1.8c-3.5-1.1-6.6-2.8-9.3-5.1c-2.7-2.2-4.8-4.9-6.3-8c-1.6-3.1-2.4-6.6-2.4-10.7
		c0-6.3,1.9-11.1,5.6-14.6c3.8-3.4,8.6-6,14.4-7.8c5.8-1.9,12.3-3.3,19.4-4.1c7-1,13.9-2,20.6-3.1c2.2-0.4,4.7-0.9,7.5-1.8
		c2.8-0.8,4.7-2.2,5.8-4h0.5V305.9z"/>
	<path d="M954.9,295.7c-3.5-2.8-7.4-5.2-11.8-6.9c-4.4-1.7-8.9-2.9-13.4-3.6l-21-4.7c-2.7-0.7-5.6-1.5-8.8-2.6
		c-3.1-1.1-6.1-2.5-8.8-4.1c-2.7-1.7-4.9-3.7-6.6-6.1c-1.8-2.4-2.6-5.4-2.6-8.9c0-4.2,0.9-7.7,2.7-10.5c1.8-2.8,4.3-5.1,7.3-6.9
		c3-1.8,6.3-3,9.9-3.8c3.6-0.7,7.2-1.1,10.6-1.1c4.5,0,8.8,0.6,12.8,1.6c4,1.1,7.5,2.8,10.6,5.1c3.1,2.4,5.6,5.3,7.4,8.9
		c1.8,3.6,2.8,7.8,3,12.6h15.7c-0.3-7-1.7-13.1-4.2-18.2c-2.5-5.2-5.9-9.5-10.1-13c-4.2-3.6-9.2-6.1-14.8-7.8
		c-5.6-1.7-11.7-2.5-18.2-2.5c-5.7,0-11.3,0.7-17.1,2c-5.7,1.3-11,3.5-15.6,6.3c-4.6,2.8-8.5,6.6-11.3,11.2
		c-2.9,4.7-4.4,10.3-4.4,16.8c0,5.5,0.9,10.1,2.7,13.9c1.9,3.7,4.4,6.9,7.6,9.5c3.3,2.6,7.1,4.7,11.4,6.5c4.3,1.8,9,3.3,14.2,4.6
		l20.3,4.5c3.5,0.8,6.9,1.9,10.4,3c3.4,1.1,6.4,2.6,9.1,4.4c2.6,1.8,4.7,3.9,6.4,6.5c1.5,2.6,2.4,5.8,2.4,9.6
		c0,4.5-1.1,8.4-3.4,11.4c-2.3,3.1-5.2,5.7-8.6,7.7c-3.5,2-7.3,3.4-11.4,4.2c-4.1,0.8-8,1.2-11.9,1.2c-10.5,0-19.3-2.7-26.4-8.1
		c-7.1-5.5-11-13.5-11.6-24.2h-15.8c1.3,15.9,6.7,27.3,16.1,34.6c9.4,7.2,21.7,10.7,36.9,10.7c6,0,12.1-0.7,18.3-2
		c6.2-1.3,11.7-3.5,16.7-6.6c4.9-3.1,9-7.1,12.1-12c3.2-4.9,4.8-10.9,4.8-17.9c0-5.6-1.1-10.6-3.3-14.8
		C961,302.1,958.3,298.5,954.9,295.7z"/>
	<path d="M1081.3,236.6c-3.7-4.3-8.6-7.5-14.6-9.9c-6.1-2.3-13.7-3.5-22.6-3.5c-9.2,0-17.6,2.4-25.3,7.1c-7.7,4.8-13.1,11.1-16,18.9
		h-0.5v-71.8h-15.8V356h15.8v-75.3c0.2-6.3,1.2-12.2,3.1-17.6c1.9-5.4,4.5-10.1,8-14c3.4-4,7.5-7,12.5-9.3c5-2.3,10.5-3.4,16.9-3.4
		c6.3,0,11.7,1,15.9,3c4.2,2,7.6,4.7,10.1,8.3c2.5,3.5,4.2,7.6,5.3,12.4c1,4.7,1.5,9.9,1.5,15.4V356h15.8V273
		c0-7.7-0.8-14.7-2.3-20.8C1087.5,246,1085,240.8,1081.3,236.6z"/>
</g>
</svg>
