<svg enable-background="new 0 0 538.3 612" viewBox="0 0 538.3 612" xmlns="http://www.w3.org/2000/svg"><path d="m275.1 198.3c-48.7 0-88.2-39.6-88.2-88.3s39.5-88.2 88.2-88.2 88.2 39.5 88.2 88.2c-.1 48.7-39.6 88.3-88.2 88.3m0-150.4c-34.3 0-62.1 27.9-62.1 62.2s27.8 62.2 62.1 62.2 62.2-27.9 62.2-62.2c-.1-34.3-28-62.2-62.2-62.2" fill="#76bc43"/><path d="m144.9 389.2c-48.7 0-88.2-39.6-88.2-88.3 0-48.6 39.5-88.2 88.2-88.2 48.6 0 88.3 39.6 88.3 88.2 0 48.7-39.6 88.3-88.3 88.3m0-150.4c-34.3 0-62.2 27.8-62.2 62.1s27.8 62.2 62.2 62.2c34.3 0 62.2-27.9 62.2-62.2s-27.9-62.1-62.2-62.1" fill="#76bc43"/><path d="m405.1 389.2c-48.7 0-88.2-39.6-88.2-88.3 0-48.6 39.5-88.2 88.2-88.2s88.2 39.6 88.2 88.2c0 48.7-39.5 88.3-88.2 88.3m0-150.4c-34.3 0-62.2 27.8-62.2 62.1s27.9 62.2 62.2 62.2 62.1-27.9 62.1-62.2c.1-34.3-27.8-62.1-62.1-62.1" fill="#76bc43"/><g fill="#0a1c2b"><path d="m383.1 341.1-18.4-18.5-76.6 76.7v-254.5h-26.1v254.4l-82-82-18.4 18.5 100.4 100.4v44.7h26.1v-44.6z"/><path d="m288.9 547.8c-.1-1.8-.5-3.5-1.2-4.8-.7-1.4-1.7-2.5-2.9-3.4s-2.6-1.6-4.3-2.1-3.5-.7-5.5-.7c-1.2 0-2.5.1-3.9.4s-2.7.8-3.9 1.5-2.2 1.6-2.9 2.8c-.8 1.2-1.1 2.7-1.1 4.4s.4 3.1 1.3 4.2 1.9 2 3.3 2.6 2.9 1.2 4.7 1.6 3.6.8 5.4 1.1c1.8.4 3.6.8 5.4 1.3 1.7.5 3.3 1.2 4.7 2 1.4.9 2.5 2 3.3 3.4s1.3 3.1 1.3 5.2c0 2.3-.5 4.1-1.4 5.7-1 1.5-2.2 2.8-3.6 3.7-1.5 1-3.1 1.7-4.9 2.1s-3.5.6-5.2.6c-2.5 0-4.9-.3-7.1-.8s-4.1-1.4-5.8-2.7c-1.6-1.2-2.9-2.8-3.9-4.7-.9-1.9-1.4-4.3-1.4-7.1h2.7c-.1 2.4.2 4.4 1 6s1.9 3 3.3 4 3.1 1.8 5 2.3 4 .7 6.1.7c1.3 0 2.7-.2 4.1-.5 1.5-.3 2.8-.9 4-1.6 1.2-.8 2.2-1.8 3.1-3 .8-1.2 1.2-2.8 1.2-4.7 0-1.8-.4-3.3-1.3-4.4-.8-1.1-2-2.1-3.3-2.8-1.4-.7-3-1.3-4.7-1.7s-3.5-.8-5.4-1.2c-1.8-.4-3.6-.8-5.4-1.3s-3.3-1.1-4.7-2c-1.4-.8-2.5-1.9-3.3-3.2s-1.3-3-1.3-5 .4-3.8 1.3-5.3 2-2.7 3.4-3.6 2.9-1.6 4.7-2 3.4-.6 5.1-.6c2.2 0 4.3.3 6.3.8 1.9.5 3.7 1.3 5.1 2.4 1.5 1.1 2.6 2.4 3.5 4.1s1.4 3.7 1.5 6.1h-2.4z"/><path d="m320.2 572.4h-.2c-.4.9-.9 1.8-1.6 2.6s-1.5 1.6-2.5 2.2-2.1 1.1-3.3 1.5-2.6.5-4.1.5c-3.3 0-5.8-.7-7.7-2.1-1.8-1.4-2.7-3.6-2.7-6.6 0-1.8.4-3.3 1.1-4.4s1.6-2 2.7-2.7 2.3-1.1 3.7-1.4c1.3-.3 2.6-.5 3.9-.6l3.6-.3c1.6-.1 2.9-.3 3.9-.6.9-.3 1.7-.6 2.1-1.1.5-.5.8-1.1.9-1.8s.2-1.6.2-2.7c0-.8-.2-1.6-.5-2.4-.3-.7-.8-1.4-1.5-1.9-.7-.6-1.6-1-2.7-1.3s-2.4-.5-4-.5c-2.8 0-5 .7-6.7 2-1.7 1.4-2.6 3.4-2.8 6.2h-2.3c.2-3.4 1.3-6 3.3-7.7s4.9-2.6 8.6-2.6 6.5.7 8.2 2.2 2.6 3.4 2.6 5.8v18 1.3c0 .4.1.8.2 1.2s.3.7.6.9.7.3 1.2.3c.4 0 1-.1 1.7-.2v1.9c-.6.2-1.2.2-1.9.2-.9 0-1.7-.1-2.2-.4-.5-.2-1-.6-1.2-1-.3-.4-.5-.9-.6-1.4s-.2-1.1-.2-1.8v-1.3zm0-11.5c-.6.7-1.4 1.1-2.6 1.4s-2.4.4-3.8.5l-3.9.4c-1.1.1-2.3.3-3.4.5s-2.1.6-3 1.1-1.6 1.2-2.2 2.1-.8 2.1-.8 3.5c0 2.3.7 4 2.2 5.1 1.4 1.1 3.4 1.7 6 1.7s4.7-.5 6.2-1.4 2.7-2 3.5-3.3c.8-1.2 1.3-2.4 1.5-3.6.2-1.1.3-1.9.3-2.3z"/><path d="m334 554.7h.2c.2-.8.6-1.6 1.2-2.5s1.3-1.8 2.2-2.6 2-1.4 3.3-2c1.3-.5 2.8-.8 4.5-.8 2.4 0 4.4.4 6.2 1.3 1.7.9 3.2 2.1 4.3 3.6s2 3.2 2.6 5.2.8 4 .8 6.2c0 2.4-.3 4.5-.8 6.5-.6 2-1.4 3.7-2.6 5.1-1.1 1.4-2.6 2.5-4.4 3.3s-3.8 1.2-6.2 1.2c-2.6 0-4.9-.6-6.9-1.7s-3.5-3-4.4-5.5v17.5h-2.2v-42.1h2.2zm11.4 22.6c2 0 3.8-.4 5.2-1.1 1.5-.8 2.7-1.8 3.6-3.1s1.7-2.8 2.1-4.5c.5-1.7.7-3.5.7-5.5 0-1.8-.2-3.5-.7-5.2-.4-1.7-1.1-3.2-2.1-4.6-.9-1.3-2.1-2.4-3.6-3.3-1.5-.8-3.3-1.2-5.3-1.2-2.1 0-3.8.4-5.3 1.2s-2.6 1.9-3.5 3.2-1.6 2.8-2 4.6c-.4 1.7-.6 3.5-.6 5.3s.2 3.6.5 5.3c.4 1.7 1 3.2 1.8 4.5.9 1.3 2 2.4 3.5 3.1 1.7.9 3.5 1.3 5.7 1.3z"/><path d="m368.9 535.5v43h-2.3v-43z"/><path d="m377.8 541.7v-6.2h2.3v6.2zm0 36.8v-31h2.3v31z"/><path d="m388.6 547.5h2.3v6.6h.1c.4-1.2 1-2.2 1.7-3.1s1.6-1.7 2.6-2.3 2.1-1.1 3.2-1.4c1.2-.3 2.4-.5 3.6-.5 1.8 0 3.3.2 4.6.7 1.3.4 2.3 1 3.1 1.7s1.4 1.5 1.9 2.4.8 1.8 1 2.7.3 1.8.4 2.7c0 .9.1 1.6.1 2.3v19.2h-2.3v-19.6c0-.8-.1-1.7-.2-2.9s-.5-2.3-1.1-3.3c-.6-1.1-1.5-2-2.7-2.7-1.2-.8-2.8-1.1-4.9-1.1-1.8 0-3.3.3-4.7 1-1.4.6-2.5 1.5-3.5 2.7-1 1.1-1.7 2.5-2.2 4.1s-.8 3.3-.8 5.2v16.8h-2.3v-31.2z"/><path d="m446.9 547.5v29.4c0 1.7-.2 3.4-.6 5s-1.1 3.1-2.1 4.3-2.3 2.2-4.1 3c-1.7.7-3.9 1.1-6.6 1.1-1.6 0-3.2-.2-4.6-.5s-2.7-.9-3.8-1.6-2-1.7-2.6-3c-.7-1.2-1-2.7-1.1-4.6h2.3c.1 1.4.5 2.5 1 3.5.6 1 1.3 1.8 2.2 2.4s1.9 1.1 3 1.4 2.3.4 3.6.4c2.1 0 3.9-.3 5.3-1 1.4-.6 2.6-1.5 3.4-2.5s1.4-2.2 1.8-3.5c.3-1.3.5-2.6.5-3.9v-7.1h-.2c-1.1 2.3-2.6 4-4.4 5.2-1.9 1.2-4.1 1.8-6.8 1.8-2.3 0-4.3-.4-5.9-1.2-1.7-.8-3-1.9-4.1-3.3s-1.9-3-2.5-4.9c-.5-1.8-.8-3.9-.8-6 0-2 .3-4 .9-5.8s1.4-3.5 2.6-4.9c1.1-1.4 2.5-2.5 4.2-3.3s3.6-1.2 5.8-1.2c2.5 0 4.7.6 6.8 1.9 2.1 1.2 3.5 3 4.4 5.3h.1v-6.4zm-13.6 1.3c-1.9 0-3.5.4-4.9 1.1-1.4.8-2.5 1.8-3.4 3s-1.6 2.7-2 4.2c-.5 1.6-.7 3.2-.7 4.9 0 1.8.2 3.5.7 5.2s1.2 3 2.1 4.2 2.1 2.2 3.5 2.9 3 1.1 4.8 1.1c1.9 0 3.5-.4 4.9-1.1s2.6-1.7 3.5-3c.9-1.2 1.6-2.7 2.1-4.2.5-1.6.7-3.3.7-5s-.2-3.4-.7-5-1.2-3-2.1-4.2-2.1-2.2-3.5-2.9c-1.5-.8-3.1-1.2-5-1.2z"/><path d="m132.4 533.7v3.7l-28.5 36.2h29.1v3.5h-33.7v-3.7l28.5-36.2h-26.6v-3.5z"/><path d="m156 550.1c-1.4-1.3-3.4-2-6-2-1.8 0-3.4.4-4.8 1.2s-2.5 1.8-3.4 3-1.6 2.7-2.1 4.3-.7 3.2-.7 4.9.2 3.3.7 4.9 1.2 3 2.1 4.3 2.1 2.3 3.4 3c1.4.8 3 1.2 4.8 1.2 1.2 0 2.3-.2 3.3-.7 1.1-.4 2-1.1 2.8-1.9s1.5-1.7 2-2.8.9-2.3 1-3.6h3.8c-.5 3.8-1.9 6.8-4.2 8.9s-5.2 3.2-8.7 3.2c-2.4 0-4.5-.5-6.3-1.3-1.9-.9-3.4-2.1-4.7-3.5-1.2-1.5-2.2-3.3-2.8-5.3s-1-4.1-1-6.4.3-4.4 1-6.4 1.6-3.8 2.8-5.3c1.3-1.5 2.8-2.7 4.7-3.6 1.8-.9 4-1.3 6.3-1.3 3.4 0 6.2.9 8.5 2.7s3.7 4.5 4.2 8.1h-3.8c-.5-2.5-1.5-4.3-2.9-5.6"/><path d="m168.5 550.6c.6-1.4 1.5-2.4 2.6-3.3s2.4-1.5 3.9-1.9 3.2-.6 5-.6c1.4 0 2.7.1 4.1.4s2.6.8 3.7 1.5 2 1.8 2.7 3.1 1 3 1 5.1v16.6c0 1.5.8 2.3 2.3 2.3.4 0 .9-.1 1.2-.2v3.2c-.4.1-.8.1-1.2.2-.3 0-.8.1-1.3.1-1 0-1.8-.1-2.3-.4-.6-.3-1.1-.6-1.4-1.1s-.5-1.1-.6-1.7c-.1-.7-.2-1.4-.2-2.2h-.1c-.7 1-1.4 1.9-2.1 2.7s-1.5 1.5-2.4 2-1.9.9-3 1.2-2.4.4-4 .4c-1.5 0-2.8-.2-4.1-.5-1.3-.4-2.4-.9-3.3-1.6-1-.8-1.7-1.7-2.3-2.9s-.8-2.5-.8-4.1c0-2.2.5-3.9 1.5-5.1s2.2-2.2 3.8-2.8c1.6-.7 3.4-1.1 5.4-1.4s4-.5 6.1-.8c.8-.1 1.5-.2 2.1-.3s1.1-.3 1.5-.6.7-.7.9-1.2.3-1.2.3-2.1c0-1.3-.2-2.3-.6-3.2-.4-.8-1-1.5-1.8-2-.7-.5-1.6-.8-2.6-1s-2.1-.3-3.2-.3c-2.4 0-4.4.6-5.9 1.7-1.5 1.2-2.4 3-2.4 5.6h-3.8c.3-1.9.6-3.5 1.3-4.8m19.1 9.3c-.3.5-.7.8-1.4 1s-1.3.3-1.8.4c-1.6.3-3.3.5-5 .8-1.7.2-3.3.6-4.7 1s-2.6 1.1-3.5 1.9-1.4 2-1.4 3.5c0 1 .2 1.8.6 2.6s.9 1.4 1.5 1.9c.7.6 1.4 1 2.3 1.2.9.3 1.7.4 2.6.4 1.5 0 2.8-.2 4.2-.7 1.3-.4 2.5-1.1 3.5-1.9 1-.9 1.8-1.9 2.4-3.1s.9-2.6.9-4.1v-5h-.2z"/><path d="m216.6 551.8c-.4-.9-1-1.6-1.8-2.2s-1.6-1-2.6-1.2c-1-.3-2-.4-3.1-.4-.8 0-1.7.1-2.6.3s-1.7.5-2.4.9-1.3 1-1.8 1.7c-.4.7-.7 1.5-.7 2.6 0 .9.2 1.6.6 2.2s1 1.1 1.6 1.5c.7.4 1.4.7 2.1 1 .8.3 1.5.5 2.1.6l5.1 1.2c1.1.2 2.2.5 3.3.9s2 1 2.9 1.7c.8.7 1.5 1.5 2 2.5s.8 2.2.8 3.6c0 1.7-.4 3.2-1.2 4.3-.8 1.2-1.7 2.2-2.9 2.9-1.2.8-2.5 1.3-4 1.6s-3 .5-4.4.5c-3.7 0-6.7-.9-8.9-2.6-2.3-1.8-3.6-4.5-3.9-8.4h3.8c.2 2.6 1.1 4.5 2.8 5.9 1.7 1.3 3.9 2 6.4 2 .9 0 1.9-.1 2.9-.3s1.9-.6 2.8-1c.8-.5 1.5-1.1 2.1-1.9.6-.7.8-1.7.8-2.8 0-.9-.2-1.7-.6-2.3s-.9-1.2-1.6-1.6-1.4-.8-2.2-1.1-1.7-.5-2.5-.7l-4.9-1.1c-1.3-.3-2.4-.7-3.5-1.1s-2-1-2.8-1.6-1.4-1.4-1.9-2.3-.7-2-.7-3.4c0-1.6.4-2.9 1.1-4.1.7-1.1 1.6-2 2.8-2.7 1.1-.7 2.4-1.2 3.8-1.5s2.8-.5 4.2-.5c1.6 0 3 .2 4.4.6s2.6 1 3.6 1.9c1 .8 1.8 1.9 2.5 3.2.6 1.2 1 2.7 1 4.4h-3.8c0-1.3-.2-2.3-.7-3.2"/><path d="m231 533.7v17.4h.1c.7-1.9 2-3.4 3.9-4.6 1.9-1.1 3.9-1.7 6.1-1.7s4 .3 5.5.8c1.5.6 2.7 1.4 3.5 2.4.9 1 1.5 2.3 1.9 3.8s.6 3.2.6 5v20.2h-3.8v-19.6c0-1.3-.1-2.6-.4-3.7-.3-1.2-.7-2.2-1.3-3-.6-.9-1.4-1.5-2.5-2-1-.5-2.3-.7-3.9-.7-1.5 0-2.9.3-4.1.8-1.2.6-2.2 1.3-3 2.3s-1.5 2.1-1.9 3.4c-.5 1.3-.7 2.7-.8 4.3v18.3h-3.8v-43.3h3.9z"/></g></svg>