<svg id="Layer_1" data-name="Layer 1" xmlns="http://www.w3.org/2000/svg" viewBox="0 0 806.36 834.08"><defs><style>.cls-1{fill:#fff;}</style></defs><title>headerArtboard 7</title><path class="cls-1" d="M401.5,324.59c-82.88,0-150.24-67.46-150.24-150.35S318.62,24,401.5,24,551.74,91.36,551.74,174.24,484.38,324.59,401.5,324.59m0-256.24A105.94,105.94,0,1,0,507.39,174.24,105.95,105.95,0,0,0,401.5,68.35"/><path class="cls-1" d="M179.8,649.7c-82.89,0-150.25-67.46-150.25-150.35S96.91,349.11,179.8,349.11s150.34,67.38,150.34,150.24S262.66,649.7,179.8,649.7m0-256.22a105.94,105.94,0,1,0,106,105.87,105.93,105.93,0,0,0-106-105.87"/><path class="cls-1" d="M623.12,649.7c-82.88,0-150.24-67.46-150.24-150.35s67.36-150.24,150.24-150.24,150.24,67.38,150.24,150.24S706,649.7,623.12,649.7m0-256.22A105.94,105.94,0,1,0,729,499.35,105.95,105.95,0,0,0,623.12,393.48"/><polygon class="cls-1" points="585.63 567.76 554.22 536.33 423.67 666.87 423.67 233.36 379.32 233.36 379.32 666.83 239.56 527.08 208.14 558.51 379.32 729.69 379.32 805.79 423.67 805.79 423.67 729.72 585.63 567.76"/></svg>