<?xml version="1.0" encoding="utf-8"?>
<!-- Generator: Adobe Illustrator 22.1.0, SVG Export Plug-In . SVG Version: 6.00 Build 0)  -->
<svg version="1.1" id="Layer_1" xmlns="http://www.w3.org/2000/svg" xmlns:xlink="http://www.w3.org/1999/xlink" x="0px" y="0px"
	 viewBox="0 0 538.3 612" style="enable-background:new 0 0 538.3 612;" xml:space="preserve">
<style type="text/css">
	.st0{fill:#76BC43;}
	.st1{fill:#0A1C2B;}
</style>
<g>
	<g>
		<path class="st0" d="M275.1,198.3c-48.7,0-88.2-39.6-88.2-88.3c0-48.7,39.5-88.2,88.2-88.2c48.7,0,88.2,39.5,88.2,88.2
			C363.2,158.7,323.7,198.3,275.1,198.3 M275.1,47.9c-34.3,0-62.1,27.9-62.1,62.2c0,34.3,27.8,62.2,62.1,62.2
			c34.3,0,62.2-27.9,62.2-62.2C337.2,75.8,309.3,47.9,275.1,47.9"/>
	</g>
	<g>
		<path class="st0" d="M144.9,389.2c-48.7,0-88.2-39.6-88.2-88.3c0-48.6,39.5-88.2,88.2-88.2c48.6,0,88.3,39.6,88.3,88.2
			C233.2,349.6,193.6,389.2,144.9,389.2 M144.9,238.8c-34.3,0-62.2,27.8-62.2,62.1c0,34.3,27.8,62.2,62.2,62.2
			c34.3,0,62.2-27.9,62.2-62.2C207.1,266.6,179.2,238.8,144.9,238.8"/>
	</g>
	<g>
		<path class="st0" d="M405.1,389.2c-48.7,0-88.2-39.6-88.2-88.3c0-48.6,39.5-88.2,88.2-88.2c48.7,0,88.2,39.6,88.2,88.2
			C493.3,349.6,453.8,389.2,405.1,389.2 M405.1,238.8c-34.3,0-62.2,27.8-62.2,62.1c0,34.3,27.9,62.2,62.2,62.2
			c34.3,0,62.1-27.9,62.1-62.2C467.3,266.6,439.4,238.8,405.1,238.8"/>
	</g>
	<polygon class="st1" points="383.1,341.1 364.7,322.6 288.1,399.3 288.1,144.8 262,144.8 262,399.2 180,317.2 161.6,335.7 
		262,436.1 262,480.8 288.1,480.8 288.1,436.2 	"/>
	<g>
		<path class="st1" d="M288.9,547.8c-0.1-1.8-0.5-3.5-1.2-4.8c-0.7-1.4-1.7-2.5-2.9-3.4c-1.2-0.9-2.6-1.6-4.3-2.1
			c-1.7-0.5-3.5-0.7-5.5-0.7c-1.2,0-2.5,0.1-3.9,0.4c-1.4,0.3-2.7,0.8-3.9,1.5c-1.2,0.7-2.2,1.6-2.9,2.8c-0.8,1.2-1.1,2.7-1.1,4.4
			c0,1.7,0.4,3.1,1.3,4.2s1.9,2,3.3,2.6s2.9,1.2,4.7,1.6c1.8,0.4,3.6,0.8,5.4,1.1c1.8,0.4,3.6,0.8,5.4,1.3c1.7,0.5,3.3,1.2,4.7,2
			c1.4,0.9,2.5,2,3.3,3.4s1.3,3.1,1.3,5.2c0,2.3-0.5,4.1-1.4,5.7c-1,1.5-2.2,2.8-3.6,3.7c-1.5,1-3.1,1.7-4.9,2.1
			c-1.8,0.4-3.5,0.6-5.2,0.6c-2.5,0-4.9-0.3-7.1-0.8s-4.1-1.4-5.8-2.7c-1.6-1.2-2.9-2.8-3.9-4.7c-0.9-1.9-1.4-4.3-1.4-7.1h2.7
			c-0.1,2.4,0.2,4.4,1,6s1.9,3,3.3,4c1.4,1,3.1,1.8,5,2.3c1.9,0.5,4,0.7,6.1,0.7c1.3,0,2.7-0.2,4.1-0.5c1.5-0.3,2.8-0.9,4-1.6
			c1.2-0.8,2.2-1.8,3.1-3c0.8-1.2,1.2-2.8,1.2-4.7c0-1.8-0.4-3.3-1.3-4.4c-0.8-1.1-2-2.1-3.3-2.8c-1.4-0.7-3-1.3-4.7-1.7
			s-3.5-0.8-5.4-1.2c-1.8-0.4-3.6-0.8-5.4-1.3c-1.8-0.5-3.3-1.1-4.7-2c-1.4-0.8-2.5-1.9-3.3-3.2c-0.8-1.3-1.3-3-1.3-5
			s0.4-3.8,1.3-5.3c0.9-1.5,2-2.7,3.4-3.6s2.9-1.6,4.7-2s3.4-0.6,5.1-0.6c2.2,0,4.3,0.3,6.3,0.8c1.9,0.5,3.7,1.3,5.1,2.4
			c1.5,1.1,2.6,2.4,3.5,4.1c0.9,1.7,1.4,3.7,1.5,6.1H288.9z"/>
	</g>
	<g>
		<path class="st1" d="M320.2,572.4H320c-0.4,0.9-0.9,1.8-1.6,2.6c-0.7,0.8-1.5,1.6-2.5,2.2c-1,0.6-2.1,1.1-3.3,1.5
			c-1.2,0.4-2.6,0.5-4.1,0.5c-3.3,0-5.8-0.7-7.7-2.1c-1.8-1.4-2.7-3.6-2.7-6.6c0-1.8,0.4-3.3,1.1-4.4c0.7-1.1,1.6-2,2.7-2.7
			c1.1-0.7,2.3-1.1,3.7-1.4c1.3-0.3,2.6-0.5,3.9-0.6l3.6-0.3c1.6-0.1,2.9-0.3,3.9-0.6c0.9-0.3,1.7-0.6,2.1-1.1
			c0.5-0.5,0.8-1.1,0.9-1.8c0.1-0.7,0.2-1.6,0.2-2.7c0-0.8-0.2-1.6-0.5-2.4c-0.3-0.7-0.8-1.4-1.5-1.9c-0.7-0.6-1.6-1-2.7-1.3
			c-1.1-0.3-2.4-0.5-4-0.5c-2.8,0-5,0.7-6.7,2c-1.7,1.4-2.6,3.4-2.8,6.2h-2.3c0.2-3.4,1.3-6,3.3-7.7c2-1.7,4.9-2.6,8.6-2.6
			s6.5,0.7,8.2,2.2c1.7,1.5,2.6,3.4,2.6,5.8v18c0,0.4,0,0.9,0,1.3c0,0.4,0.1,0.8,0.2,1.2c0.1,0.4,0.3,0.7,0.6,0.9
			c0.3,0.2,0.7,0.3,1.2,0.3c0.4,0,1-0.1,1.7-0.2v1.9c-0.6,0.2-1.2,0.2-1.9,0.2c-0.9,0-1.7-0.1-2.2-0.4c-0.5-0.2-1-0.6-1.2-1
			c-0.3-0.4-0.5-0.9-0.6-1.4s-0.2-1.1-0.2-1.8V572.4z M320.2,560.9c-0.6,0.7-1.4,1.1-2.6,1.4s-2.4,0.4-3.8,0.5l-3.9,0.4
			c-1.1,0.1-2.3,0.3-3.4,0.5c-1.1,0.2-2.1,0.6-3,1.1c-0.9,0.5-1.6,1.2-2.2,2.1c-0.6,0.9-0.8,2.1-0.8,3.5c0,2.3,0.7,4,2.2,5.1
			c1.4,1.1,3.4,1.7,6,1.7c2.6,0,4.7-0.5,6.2-1.4c1.5-0.9,2.7-2,3.5-3.3c0.8-1.2,1.3-2.4,1.5-3.6c0.2-1.1,0.3-1.9,0.3-2.3V560.9z"/>
		<path class="st1" d="M334,554.7h0.2c0.2-0.8,0.6-1.6,1.2-2.5c0.6-0.9,1.3-1.8,2.2-2.6c0.9-0.8,2-1.4,3.3-2
			c1.3-0.5,2.8-0.8,4.5-0.8c2.4,0,4.4,0.4,6.2,1.3c1.7,0.9,3.2,2.1,4.3,3.6c1.1,1.5,2,3.2,2.6,5.2c0.6,2,0.8,4,0.8,6.2
			c0,2.4-0.3,4.5-0.8,6.5c-0.6,2-1.4,3.7-2.6,5.1c-1.1,1.4-2.6,2.5-4.4,3.3c-1.8,0.8-3.8,1.2-6.2,1.2c-2.6,0-4.9-0.6-6.9-1.7
			c-2-1.1-3.5-3-4.4-5.5H334l0,17.5h-2.2v-42.1h2.2V554.7z M345.4,577.3c2,0,3.8-0.4,5.2-1.1c1.5-0.8,2.7-1.8,3.6-3.1
			c0.9-1.3,1.7-2.8,2.1-4.5c0.5-1.7,0.7-3.5,0.7-5.5c0-1.8-0.2-3.5-0.7-5.2c-0.4-1.7-1.1-3.2-2.1-4.6c-0.9-1.3-2.1-2.4-3.6-3.3
			c-1.5-0.8-3.3-1.2-5.3-1.2c-2.1,0-3.8,0.4-5.3,1.2c-1.5,0.8-2.6,1.9-3.5,3.2s-1.6,2.8-2,4.6c-0.4,1.7-0.6,3.5-0.6,5.3
			c0,1.8,0.2,3.6,0.5,5.3c0.4,1.7,1,3.2,1.8,4.5c0.9,1.3,2,2.4,3.5,3.1C341.4,576.9,343.2,577.3,345.4,577.3z"/>
		<path class="st1" d="M368.9,535.5v43h-2.3v-43H368.9z"/>
		<path class="st1" d="M377.8,541.7v-6.2h2.3v6.2H377.8z M377.8,578.5v-31h2.3v31H377.8z"/>
		<path class="st1" d="M388.6,547.5h2.3v6.6h0.1c0.4-1.2,1-2.2,1.7-3.1c0.7-0.9,1.6-1.7,2.6-2.3c1-0.6,2.1-1.1,3.2-1.4
			c1.2-0.3,2.4-0.5,3.6-0.5c1.8,0,3.3,0.2,4.6,0.7c1.3,0.4,2.3,1,3.1,1.7c0.8,0.7,1.4,1.5,1.9,2.4s0.8,1.8,1,2.7
			c0.2,0.9,0.3,1.8,0.4,2.7c0,0.9,0.1,1.6,0.1,2.3v19.2h-2.3v-19.6c0-0.8-0.1-1.7-0.2-2.9c-0.1-1.2-0.5-2.3-1.1-3.3
			c-0.6-1.1-1.5-2-2.7-2.7c-1.2-0.8-2.8-1.1-4.9-1.1c-1.8,0-3.3,0.3-4.7,1c-1.4,0.6-2.5,1.5-3.5,2.7c-1,1.1-1.7,2.5-2.2,4.1
			c-0.5,1.6-0.8,3.3-0.8,5.2v16.8h-2.3V547.5z"/>
		<path class="st1" d="M446.9,547.5v29.4c0,1.7-0.2,3.4-0.6,5s-1.1,3.1-2.1,4.3c-1,1.2-2.3,2.2-4.1,3c-1.7,0.7-3.9,1.1-6.6,1.1
			c-1.6,0-3.2-0.2-4.6-0.5c-1.4-0.3-2.7-0.9-3.8-1.6c-1.1-0.7-2-1.7-2.6-3c-0.7-1.2-1-2.7-1.1-4.6h2.3c0.1,1.4,0.5,2.5,1,3.5
			c0.6,1,1.3,1.8,2.2,2.4c0.9,0.6,1.9,1.1,3,1.4c1.1,0.3,2.3,0.4,3.6,0.4c2.1,0,3.9-0.3,5.3-1c1.4-0.6,2.6-1.5,3.4-2.5
			c0.8-1,1.4-2.2,1.8-3.5c0.3-1.3,0.5-2.6,0.5-3.9v-7.1h-0.2c-1.1,2.3-2.6,4-4.4,5.2c-1.9,1.2-4.1,1.8-6.8,1.8
			c-2.3,0-4.3-0.4-5.9-1.2c-1.7-0.8-3-1.9-4.1-3.3c-1.1-1.4-1.9-3-2.5-4.9c-0.5-1.8-0.8-3.9-0.8-6c0-2,0.3-4,0.9-5.8
			c0.6-1.8,1.4-3.5,2.6-4.9c1.1-1.4,2.5-2.5,4.2-3.3c1.7-0.8,3.6-1.2,5.8-1.2c2.5,0,4.7,0.6,6.8,1.9c2.1,1.2,3.5,3,4.4,5.3h0.1v-6.4
			H446.9z M433.3,548.8c-1.9,0-3.5,0.4-4.9,1.1c-1.4,0.8-2.5,1.8-3.4,3c-0.9,1.2-1.6,2.7-2,4.2c-0.5,1.6-0.7,3.2-0.7,4.9
			c0,1.8,0.2,3.5,0.7,5.2s1.2,3,2.1,4.2s2.1,2.2,3.5,2.9c1.4,0.7,3,1.1,4.8,1.1c1.9,0,3.5-0.4,4.9-1.1c1.4-0.7,2.6-1.7,3.5-3
			c0.9-1.2,1.6-2.7,2.1-4.2c0.5-1.6,0.7-3.3,0.7-5c0-1.7-0.2-3.4-0.7-5c-0.5-1.6-1.2-3-2.1-4.2c-0.9-1.2-2.1-2.2-3.5-2.9
			C436.8,549.2,435.2,548.8,433.3,548.8z"/>
	</g>
	<g>
		<polygon class="st1" points="132.4,533.7 132.4,537.4 103.9,573.6 133,573.6 133,577.1 99.3,577.1 99.3,573.4 127.8,537.2 
			101.2,537.2 101.2,533.7 		"/>
	</g>
	<g>
		<path class="st1" d="M156,550.1c-1.4-1.3-3.4-2-6-2c-1.8,0-3.4,0.4-4.8,1.2c-1.4,0.8-2.5,1.8-3.4,3c-0.9,1.2-1.6,2.7-2.1,4.3
			c-0.5,1.6-0.7,3.2-0.7,4.9c0,1.7,0.2,3.3,0.7,4.9c0.5,1.6,1.2,3,2.1,4.3c0.9,1.3,2.1,2.3,3.4,3c1.4,0.8,3,1.2,4.8,1.2
			c1.2,0,2.3-0.2,3.3-0.7c1.1-0.4,2-1.1,2.8-1.9c0.8-0.8,1.5-1.7,2-2.8c0.5-1.1,0.9-2.3,1-3.6h3.8c-0.5,3.8-1.9,6.8-4.2,8.9
			c-2.3,2.1-5.2,3.2-8.7,3.2c-2.4,0-4.5-0.5-6.3-1.3c-1.9-0.9-3.4-2.1-4.7-3.5c-1.2-1.5-2.2-3.3-2.8-5.3s-1-4.1-1-6.4
			c0-2.3,0.3-4.4,1-6.4c0.7-2,1.6-3.8,2.8-5.3c1.3-1.5,2.8-2.7,4.7-3.6c1.8-0.9,4-1.3,6.3-1.3c3.4,0,6.2,0.9,8.5,2.7
			c2.3,1.8,3.7,4.5,4.2,8.1h-3.8C158.4,553.2,157.4,551.4,156,550.1"/>
	</g>
	<g>
		<path class="st1" d="M168.5,550.6c0.6-1.4,1.5-2.4,2.6-3.3c1.1-0.9,2.4-1.5,3.9-1.9c1.5-0.4,3.2-0.6,5-0.6c1.4,0,2.7,0.1,4.1,0.4
			c1.4,0.3,2.6,0.8,3.7,1.5c1.1,0.7,2,1.8,2.7,3.1c0.7,1.3,1,3,1,5.1v16.6c0,1.5,0.8,2.3,2.3,2.3c0.4,0,0.9-0.1,1.2-0.2v3.2
			c-0.4,0.1-0.8,0.1-1.2,0.2c-0.3,0-0.8,0.1-1.3,0.1c-1,0-1.8-0.1-2.3-0.4c-0.6-0.3-1.1-0.6-1.4-1.1c-0.3-0.5-0.5-1.1-0.6-1.7
			c-0.1-0.7-0.2-1.4-0.2-2.2h-0.1c-0.7,1-1.4,1.9-2.1,2.7c-0.7,0.8-1.5,1.5-2.4,2c-0.9,0.5-1.9,0.9-3,1.2c-1.1,0.3-2.4,0.4-4,0.4
			c-1.5,0-2.8-0.2-4.1-0.5c-1.3-0.4-2.4-0.9-3.3-1.6c-1-0.8-1.7-1.7-2.3-2.9c-0.6-1.2-0.8-2.5-0.8-4.1c0-2.2,0.5-3.9,1.5-5.1
			c1-1.2,2.2-2.2,3.8-2.8c1.6-0.7,3.4-1.1,5.4-1.4c2-0.3,4-0.5,6.1-0.8c0.8-0.1,1.5-0.2,2.1-0.3c0.6-0.1,1.1-0.3,1.5-0.6
			c0.4-0.3,0.7-0.7,0.9-1.2c0.2-0.5,0.3-1.2,0.3-2.1c0-1.3-0.2-2.3-0.6-3.2c-0.4-0.8-1-1.5-1.8-2c-0.7-0.5-1.6-0.8-2.6-1
			c-1-0.2-2.1-0.3-3.2-0.3c-2.4,0-4.4,0.6-5.9,1.7c-1.5,1.2-2.4,3-2.4,5.6h-3.8C167.5,553.5,167.8,551.9,168.5,550.6 M187.6,559.9
			c-0.3,0.5-0.7,0.8-1.4,1c-0.7,0.2-1.3,0.3-1.8,0.4c-1.6,0.3-3.3,0.5-5,0.8c-1.7,0.2-3.3,0.6-4.7,1c-1.4,0.4-2.6,1.1-3.5,1.9
			c-0.9,0.8-1.4,2-1.4,3.5c0,1,0.2,1.8,0.6,2.6c0.4,0.8,0.9,1.4,1.5,1.9c0.7,0.6,1.4,1,2.3,1.2c0.9,0.3,1.7,0.4,2.6,0.4
			c1.5,0,2.8-0.2,4.2-0.7c1.3-0.4,2.5-1.1,3.5-1.9c1-0.9,1.8-1.9,2.4-3.1c0.6-1.2,0.9-2.6,0.9-4.1v-5H187.6z"/>
	</g>
	<g>
		<path class="st1" d="M216.6,551.8c-0.4-0.9-1-1.6-1.8-2.2c-0.8-0.6-1.6-1-2.6-1.2c-1-0.3-2-0.4-3.1-0.4c-0.8,0-1.7,0.1-2.6,0.3
			c-0.9,0.2-1.7,0.5-2.4,0.9c-0.7,0.4-1.3,1-1.8,1.7c-0.4,0.7-0.7,1.5-0.7,2.6c0,0.9,0.2,1.6,0.6,2.2c0.4,0.6,1,1.1,1.6,1.5
			c0.7,0.4,1.4,0.7,2.1,1c0.8,0.3,1.5,0.5,2.1,0.6l5.1,1.2c1.1,0.2,2.2,0.5,3.3,0.9c1.1,0.4,2,1,2.9,1.7c0.8,0.7,1.5,1.5,2,2.5
			c0.5,1,0.8,2.2,0.8,3.6c0,1.7-0.4,3.2-1.2,4.3c-0.8,1.2-1.7,2.2-2.9,2.9c-1.2,0.8-2.5,1.3-4,1.6c-1.5,0.3-3,0.5-4.4,0.5
			c-3.7,0-6.7-0.9-8.9-2.6c-2.3-1.8-3.6-4.5-3.9-8.4h3.8c0.2,2.6,1.1,4.5,2.8,5.9c1.7,1.3,3.9,2,6.4,2c0.9,0,1.9-0.1,2.9-0.3
			c1-0.2,1.9-0.6,2.8-1c0.8-0.5,1.5-1.1,2.1-1.9c0.6-0.7,0.8-1.7,0.8-2.8c0-0.9-0.2-1.7-0.6-2.3c-0.4-0.6-0.9-1.2-1.6-1.6
			c-0.7-0.4-1.4-0.8-2.2-1.1c-0.8-0.3-1.7-0.5-2.5-0.7l-4.9-1.1c-1.3-0.3-2.4-0.7-3.5-1.1c-1.1-0.4-2-1-2.8-1.6
			c-0.8-0.6-1.4-1.4-1.9-2.3c-0.5-0.9-0.7-2-0.7-3.4c0-1.6,0.4-2.9,1.1-4.1c0.7-1.1,1.6-2,2.8-2.7c1.1-0.7,2.4-1.2,3.8-1.5
			c1.4-0.3,2.8-0.5,4.2-0.5c1.6,0,3,0.2,4.4,0.6c1.4,0.4,2.6,1,3.6,1.9c1,0.8,1.8,1.9,2.5,3.2c0.6,1.2,1,2.7,1,4.4h-3.8
			C217.3,553.7,217.1,552.7,216.6,551.8"/>
	</g>
	<g>
		<path class="st1" d="M231,533.7v17.4h0.1c0.7-1.9,2-3.4,3.9-4.6c1.9-1.1,3.9-1.7,6.1-1.7c2.2,0,4,0.3,5.5,0.8
			c1.5,0.6,2.7,1.4,3.5,2.4c0.9,1,1.5,2.3,1.9,3.8c0.4,1.5,0.6,3.2,0.6,5v20.2h-3.8v-19.6c0-1.3-0.1-2.6-0.4-3.7
			c-0.3-1.2-0.7-2.2-1.3-3c-0.6-0.9-1.4-1.5-2.5-2c-1-0.5-2.3-0.7-3.9-0.7c-1.5,0-2.9,0.3-4.1,0.8c-1.2,0.6-2.2,1.3-3,2.3
			c-0.8,1-1.5,2.1-1.9,3.4c-0.5,1.3-0.7,2.7-0.8,4.3v18.3h-3.8v-43.3H231z"/>
	</g>
</g>
</svg>
