<?xml version="1.0" encoding="utf-8"?>
<!-- Generator: Adobe Illustrator 24.0.3, SVG Export Plug-In . SVG Version: 6.00 Build 0)  -->
<svg version="1.1" id="Layer_1" xmlns="http://www.w3.org/2000/svg" xmlns:xlink="http://www.w3.org/1999/xlink" x="0px" y="0px"
	 viewBox="0 0 538.3 612" style="enable-background:new 0 0 538.3 612;" xml:space="preserve">
<style type="text/css">
	.st0{fill:#FFFFFF;}
</style>
<g>
	<path class="st0" d="M60.7,533.7h31.4v3.7l-28.7,36.4h29.3v3.5H58.8v-3.7l28.7-36.4H60.7V533.7z"/>
	<path class="st0" d="M117.2,555.7c-1-4.7-3.8-7.6-8.9-7.6c-7.3,0-11,6.8-11,13.4s3.7,13.4,11,13.4c4.7,0,8.7-3.8,9.2-9h3.8
		c-1,7.6-5.9,12.2-13,12.2c-9.6,0-14.9-7.6-14.9-16.7s5.3-16.7,14.9-16.7c6.8,0,11.8,3.5,12.8,10.8H117.2z"/>
	<path class="st0" d="M125.7,555.4c0.4-7.4,5.5-10.6,12.8-10.6c5.6,0,11.6,1.6,11.6,10.1v16.7c0,1.5,0.7,2.3,2.3,2.3
		c0.4,0,0.8-0.1,1.2-0.2v3.2c-0.9,0.2-1.5,0.2-2.5,0.2c-3.9,0-4.5-2.3-4.5-5.5h-0.1c-2.7,4.1-5.4,6.4-11.5,6.4
		c-5.9,0-10.6-2.9-10.6-9.2c0-8.8,8.6-9.2,16.9-10.1c3.2-0.3,4.9-0.9,4.9-4.3c0-5.2-3.7-6.5-8.2-6.5c-4.8,0-8.2,2.2-8.4,7.3H125.7z
		 M146.2,560.1H146c-0.5,0.9-2.2,1.2-3.2,1.4c-6.5,1.2-14.6,1.2-14.6,7.3c0,3.8,3.4,6.2,7,6.2c5.9,0,11-3.7,11-9.9V560.1z"/>
	<path class="st0" d="M175.7,555c-0.2-4.8-3.8-6.9-8.2-6.9c-3.4,0-7.4,1.3-7.4,5.4c0,3.4,3.8,4.6,6.5,5.3l5.1,1.2
		c4.4,0.7,9,3.2,9,8.7c0,6.8-6.8,9.5-12.6,9.5c-7.4,0-12.3-3.4-12.9-11.1h3.8c0.3,5.2,4.1,7.9,9.3,7.9c3.7,0,8.6-1.6,8.6-6
		c0-3.7-3.4-4.9-6.9-5.7l-4.9-1.1c-5-1.3-8.8-3.1-8.8-8.4c0-6.4,6.3-8.8,11.8-8.8c6.3,0,11.2,3.3,11.5,10.1H175.7z"/>
	<path class="st0" d="M185.3,533.7h3.8v17.5h0.1c1.5-3.8,5.6-6.3,10.1-6.3c8.8,0,11.5,4.6,11.5,12.1v20.3H207v-19.6
		c0-5.4-1.8-9.5-8-9.5c-6.2,0-9.7,4.6-9.9,10.8v18.4h-3.8V533.7z"/>
	<path class="st0" d="M218.5,555.2v22.1h-1.2v-43.6h1.2V554h30.8v-20.3h1.2v43.6h-1.2v-22.1H218.5z"/>
	<path class="st0" d="M255.9,561.8c0.2,8.4,3.5,14.9,12.5,14.9c6.6,0,11.3-3.5,12.4-10.4h1.2c-0.8,7.2-6.3,11.6-13.5,11.6
		c-9.8,0.2-13.9-7.1-13.9-16.4c0-10.4,6.7-16.4,13.9-16.4c9.9,0,14.2,8.1,13.9,16.7H255.9z M281.2,560.6c0-7.7-4.3-14.2-12.5-14.2
		c-6.9,0-12.3,5.4-12.8,14.2H281.2z"/>
	<path class="st0" d="M286.5,555.6c0.3-5.9,4.3-10.4,12.1-10.4c5.6,0,10.3,2.1,10.5,9v19.9c0,2.4,2.3,2.1,4,2v1.2
		c-0.6,0.1-1.2,0.1-1.8,0.1c-1.8,0-3.4-0.7-3.4-3.1v-4.1h-0.1c-1.3,4-6,7.9-12.6,7.9c-6.3,0-10.6-2.9-10.6-8.5
		c0-7.7,5.6-9.1,10.9-9.4c8.7-0.5,12.4-0.4,12.4-5.1c0-3.7-0.8-8.7-9.2-8.7c-6.7,0-10.4,3.4-10.8,9.2H286.5z M307.8,558.9h-0.1
		c-1.6,2.3-7.3,2.2-12.3,2.5c-5,0.3-9.7,1.5-9.7,8.2c0,3.6,2.3,7.3,9.2,7.3c8.3,0,12.8-6,12.8-12.1V558.9z"/>
	<path class="st0" d="M316.8,577.3h-1.2v-31.4h1.2v7.7h0.1c1.2-4.6,4.9-8.7,12.4-8.5v1.2c-8.7-0.5-12.6,6.3-12.6,13.1V577.3z"/>
	<path class="st0" d="M338.3,547.1v24c0,4.7,2.3,4.9,4.3,4.9c1.2,0,2.3,0,2.7-0.2v1.2c-0.7,0.1-1.1,0.2-3,0.2
		c-2.9,0-5.2-1.4-5.2-5.9v-24.3h-5.9v-1.2h5.9V536h1.2v9.9h7.1v1.2H338.3z"/>
	<path class="st0" d="M390.2,545.9h1.2l-10.1,31.4h-1.6l-9.9-30.1h-0.1l-9.9,30.1h-1.7l-9.9-31.4h1.2l9.4,30.1h0.1l9.8-30.1h1.9
		l9.7,30.1h0.1L390.2,545.9z"/>
	<path class="st0" d="M405.5,545.2c9.2,0,14.2,7.9,14.2,16.4c0,8.6-5,16.4-14.3,16.4c-9.2,0-14.2-7.8-14.2-16.4
		C391.2,553.1,396.2,545.2,405.5,545.2z M405.5,576.8c8.4,0,13-7.2,13-15.2c0-7.8-4.6-15.2-13-15.2c-8.6,0-13.1,7.4-13.1,15.2
		C392.4,569.6,396.9,576.8,405.5,576.8z"/>
	<path class="st0" d="M436.6,545.2c9.2,0,14.2,7.9,14.2,16.4c0,8.6-5,16.4-14.3,16.4c-9.2,0-14.2-7.8-14.2-16.4
		C422.3,553.1,427.3,545.2,436.6,545.2z M436.6,576.8c8.4,0,13-7.2,13-15.2c0-7.8-4.6-15.2-13-15.2c-8.6,0-13.1,7.4-13.1,15.2
		C423.6,569.6,428.1,576.8,436.6,576.8z"/>
	<path class="st0" d="M479.8,533.7h1.2v43.6h-1.2v-8.8h-0.1c-1.7,5.5-6.2,9.5-12.7,9.5c-8.4,0-13.5-6.9-13.5-16.3
		c0-8.8,4.7-16.5,13.5-16.5c6.7,0,11.2,3.8,12.7,9.5h0.1V533.7z M467,546.4c-8.6,0-12.3,8-12.3,15.3c0,8.1,4.1,15.1,12.3,15.1
		c8.1,0,12.8-7,12.8-15.1C479.8,551.9,474.7,546.4,467,546.4z"/>
</g>
<g>
</g>
<g>
</g>
<g>
</g>
<g>
</g>
<g>
	<g>
		<path class="st0" d="M352.5,182.6c-24-23.9-53.4-37.6-80.6-37.6c-0.2,0-0.3,0-0.5,0c-42.5,0.3-74.2,17-88.4,31.2
			c-23.3,23.3-23.4,55.6-23.6,86.9l0,2.4c-0.2,32.4,4.7,54.9,30.9,81c25.1,24.9,50.8,36.6,81,36.6c0,0,0,0,0,0
			c61.2,0,119.1-57.8,119.3-119C390.8,236.9,376.5,206.5,352.5,182.6z M323.5,325.9c-16.7,16.4-37.7,25.7-57.7,25.7
			c-0.3,0-0.5,0-0.8,0c-21.2-0.3-41.6-9.7-57.3-26.6c-15.1-16.2-23.7-37.3-23.4-57.8c0.4-25.9,7.1-46.5,20.2-61.4
			c13.9-15.9,34.2-24.3,60.5-24.9c18.7-0.5,39.6,9.1,57.2,26.2c18,17.6,28.8,39.7,28.7,59.1C350.7,287.1,340.7,308.9,323.5,325.9z"
			/>
		<path class="st0" d="M319.8,209.5c-16.3-15.9-36.2-25.3-53.5-25.3c-0.4,0-0.8,0-1.3,0c-49.2,1.3-76.7,30.8-77.4,83.1
			c-0.3,19.6,7.9,39.9,22.5,55.5c15.1,16.2,34.6,25.2,54.9,25.5c19.4,0.2,39.9-8.8,56.2-24.8c16.7-16.4,26.3-37.3,26.3-57.3
			C347.6,247.7,337.2,226.5,319.8,209.5z M318.6,267.1c-5,4.7-9.8,12.6-14.9,21c-9.9,16.4-21.1,35-38.2,35c-0.1,0-0.2,0-0.3,0
			c-11.9-0.2-23.9-5.8-33.6-15.9c-10.9-11.3-17.4-26.7-17.1-40.2c0.9-36.4,19.4-57.3,50.8-57.4c0,0,0,0,0.1,0
			c13.9,0,50.2,17.6,58.1,37.3C326.4,254.3,324.7,261.3,318.6,267.1z"/>
		<path class="st0" d="M265.4,212.8C265.3,212.8,265.3,212.8,265.4,212.8c-41.7,0.2-47.2,38-47.5,54.2c-0.3,12.7,5.9,27.2,16.2,37.9
			c9.1,9.5,20.2,14.8,31.3,14.9c0.1,0,0.2,0,0.3,0c15.3,0,25.9-17.7,35.4-33.4c5.2-8.6,10.1-16.7,15.4-21.7c5.2-4.9,6.5-10.4,4-16.7
			C313.1,229.7,278.2,212.8,265.4,212.8z"/>
		<path class="st0" d="M396.7,162.7c-4.8-5.4-10.1-11-16.3-17.2c-5.4-5.3-10.3-10-15.2-14.4c-33.7-30.3-62.4-42.7-99.2-42.7l-1.4,0
			c-22.6,0.2-47.2,4.3-69.4,11.4c-25.1,8.1-45.7,19.7-59.4,33.7c-30.1,30.5-33.1,71-33.7,109.8c-0.1,5.9-0.1,11.8-0.1,17.7l0,2.8
			l0,0.2l0,0.3c-0.1,49.2,6.6,79.3,44.7,117.4c35.5,35.5,74.1,52.9,117.9,53.1l0.8,0c41.8,0,85.1-19.1,118.7-52.5
			c34.2-34,53.9-78,53.9-120.7C438.1,224.4,426.1,195.7,396.7,162.7z M370.4,364c-28.8,30.9-65.7,48.2-104.1,48.6
			c-0.6,0-1.1,0-1.7,0c-38.5,0-73-15.3-105.5-46.9c-34.9-33.8-41.4-62.6-41.3-103.9l0-0.7c0.1-39.1,0.2-83.4,31.8-113.8
			c28.5-27.5,79.6-39.9,115.7-39.9c0.4,0,0.8,0,1.2,0c36,0.3,73.3,17.3,102.3,46.8c29,29.4,45.6,66.9,45.6,102.9
			C414.2,295.2,398.2,334.1,370.4,364z"/>
		<path class="st0" d="M366.3,156.6c-28.5-28.8-64.9-45.5-100-45.8c-0.4,0-0.8,0-1.2,0c-35.4,0-85.6,12.1-113.4,38.9
			c-30.5,29.4-30.6,71.1-30.7,111.4l0,0.7c-0.1,47.2,9.7,71.8,40.3,101.5c32.4,31.4,66.6,46.4,104.9,45.9
			c37.5-0.4,73.6-17.3,101.7-47.6c27.2-29.3,42.9-67.4,43-104.6C411,222,394.7,185.4,366.3,156.6z M356.2,348.7
			c-23.8,23.8-54.7,37.4-84.8,37.4c0,0,0,0,0,0c-31,0-57.5-11.9-83.2-37.5c-27-26.8-32-49.9-31.8-83.2l0-2.4
			c0.1-30.4,0.3-64.9,24.5-89.1c23.4-23.4,63.4-31.9,90.5-32.1c0.2,0,0.4,0,0.5,0c28,0,58.1,14,82.7,38.5
			c24.5,24.4,39.2,55.7,39.1,83.5C393.8,294,380.1,324.9,356.2,348.7z"/>
	</g>
	<g>
		<path class="st0" d="M403.3,156.9c-5.2-5.8-10.8-11.7-16.7-17.6c-5.2-5.2-10.4-10.1-15.5-14.8c-31.2-28.1-61.8-45-105-45
			c-0.5,0-0.9,0-1.4,0c-44.2,0.4-103.1,15.3-135.1,47.6C98,159.2,94,201.1,93.4,243.1c-0.1,6-0.1,11.9-0.1,17.8l0,2.8
			c0,0.2,0,0.3,0,0.5c-0.1,50.6,7.3,83.7,47.3,123.6c37.3,37.2,77.9,55.4,124.1,55.7c0.3,0,0.6,0,0.9,0c44.1,0,89.6-20,124.9-55.1
			c35.9-35.6,56.5-81.9,56.5-126.9C446.9,218.1,430.6,187.6,403.3,156.9z M385.4,383.6c-33.9,33.7-77.7,53-120,53l-0.9,0
			c-44.3-0.3-83.3-17.8-119.2-53.7c-38.5-38.5-45.3-68.9-45.2-118.6l0-3.3c0-5.8,0-11.8,0.1-17.8c0.5-39.3,3.6-80.2,34.1-111
			c13.9-14.1,34.7-25.8,60.1-34c22.4-7.2,47.3-11.3,70.1-11.5l1.4,0c37.2,0,66.2,12.5,100.3,43.2c4.9,4.4,9.9,9.2,15.3,14.5
			c6.2,6.2,11.6,11.9,16.5,17.3c29.8,33.4,41.9,62.4,41.9,100C439.9,304.7,420,349.2,385.4,383.6z"/>
	</g>
</g>
</svg>
