<?xml version="1.0" encoding="utf-8"?>
<!-- Generator: Adobe Illustrator 24.0.3, SVG Export Plug-In . SVG Version: 6.00 Build 0)  -->
<svg version="1.1" id="Layer_1" xmlns="http://www.w3.org/2000/svg" xmlns:xlink="http://www.w3.org/1999/xlink" x="0px" y="0px"
	 viewBox="0 0 493.3 490.2" style="enable-background:new 0 0 493.3 490.2;" xml:space="preserve">
<style type="text/css">
	.st0{fill:#FFFFFF;}
</style>
<g>
</g>
<g>
	<path class="st0" d="M353.2,149.9c-30-29.9-66.7-47-100.6-47c-0.2,0-0.4,0-0.6,0c-53.1,0.3-92.7,21.2-110.4,38.9
		c-29,29.1-29.2,69.5-29.4,108.5l0,2.9c-0.2,40.5,5.9,68.6,38.6,101.1c31.3,31.2,63.5,45.7,101.2,45.7c0,0,0,0,0,0
		c76.4,0,148.8-72.2,148.9-148.6C400.9,217.7,383.1,179.7,353.2,149.9z M316.9,328.8c-20.8,20.5-47,32.1-72.1,32.1c-0.3,0-0.7,0-1,0
		c-26.5-0.3-51.9-12.1-71.5-33.2c-18.9-20.3-29.5-46.6-29.2-72.2c0.4-32.3,8.9-58.1,25.2-76.7c17.4-19.8,42.8-30.3,75.5-31.2
		c23.4-0.6,49.5,11.3,71.4,32.8c22.5,22,35.9,49.6,35.8,73.8C350.9,280.4,338.4,307.5,316.9,328.8z"/>
	<path class="st0" d="M312.3,183.4c-20.3-19.9-45.2-31.6-66.8-31.6c-0.5,0-1,0-1.6,0c-61.5,1.6-95.8,38.5-96.7,103.8
		c-0.3,24.5,9.9,49.8,28.1,69.3c18.8,20.2,43.2,31.5,68.6,31.9c24.2,0.3,49.8-11,70.2-31c20.8-20.5,32.8-46.5,32.9-71.5
		C347,231.2,334,204.7,312.3,183.4z M310.8,255.3c-6.3,5.9-12.3,15.8-18.6,26.3c-12.3,20.5-26.3,43.7-47.7,43.7c-0.1,0-0.3,0-0.4,0
		c-14.9-0.2-29.8-7.3-42-19.9c-13.6-14.1-21.7-33.3-21.3-50.3c1.1-45.4,24.2-71.6,63.4-71.7c0,0,0.1,0,0.1,0
		c17.4,0,62.7,21.9,72.5,46.6C320.6,239.4,318.5,248.1,310.8,255.3z"/>
	<path class="st0" d="M244.3,187.5C244.3,187.5,244.3,187.5,244.3,187.5c-52.1,0.2-58.9,47.4-59.4,67.7c-0.4,15.8,7.4,34,20.2,47.3
		c11.4,11.8,25.3,18.5,39.1,18.6c0.1,0,0.2,0,0.3,0c19.1,0,32.4-22.1,44.2-41.7c6.5-10.7,12.6-20.9,19.3-27.2
		c6.5-6.1,8.2-12.9,5-20.9C303.9,208.7,260.4,187.5,244.3,187.5z"/>
	<path class="st0" d="M408.3,125c-6-6.7-12.7-13.7-20.4-21.4c-6.7-6.7-12.9-12.5-18.9-18c-42.1-37.9-78-53.3-123.8-53.3l-1.7,0
		c-28.2,0.3-59,5.3-86.7,14.2c-31.4,10.1-57,24.7-74.2,42c-37.6,38-41.4,88.6-42.1,137.1c-0.1,7.4-0.1,14.7-0.1,22.1l0,3.5l0,0.3
		l0,0.4c-0.1,61.4,8.2,99.1,55.8,146.6c44.4,44.3,92.6,66,147.2,66.4l1.1,0c52.2,0,106.3-23.9,148.2-65.5
		c42.7-42.4,67.3-97.4,67.3-150.7C460.1,202,445.1,166.2,408.3,125z M375.5,376.4c-35.9,38.6-82.1,60.2-130,60.7c-0.7,0-1.4,0-2.1,0
		c-48,0-91.2-19.2-131.8-58.5C68,336.4,59.8,300.4,60,248.8l0-0.9c0.1-48.8,0.3-104.1,39.7-142.1C135.2,71.5,199.1,56,244.1,56
		c0.5,0,1,0,1.5,0c44.9,0.3,91.5,21.6,127.8,58.4c36.2,36.7,57,83.6,56.9,128.5C430.1,290.4,410.2,339.1,375.5,376.4z"/>
	<path class="st0" d="M370.4,117.4c-35.5-36-81.1-56.9-124.9-57.2c-0.5,0-1,0-1.4,0c-44.2,0-106.8,15.1-141.6,48.6
		c-38.1,36.8-38.2,88.8-38.4,139.1l0,0.9c-0.2,58.9,12.1,89.7,50.3,126.8c40.4,39.2,83.2,57.9,131,57.4c46.8-0.5,91.9-21.6,127-59.4
		c34-36.6,53.6-84.2,53.6-130.6C426.2,199.1,405.9,153.3,370.4,117.4z M357.8,357.2c-29.7,29.7-68.3,46.7-105.9,46.7c0,0,0,0,0,0
		c-38.8,0-71.8-14.9-103.9-46.8c-33.7-33.5-40-62.3-39.8-103.8l0-2.9c0.2-38,0.4-81,30.5-111.2C168,109.9,218,99.3,251.9,99
		c0.2,0,0.4,0,0.7,0c35,0,72.6,17.5,103.3,48.1c30.6,30.5,48.9,69.5,48.8,104.3C404.6,289,387.5,327.5,357.8,357.2z"/>
</g>
<g>
	<path class="st0" d="M416.5,117.8c-6.5-7.3-13.5-14.6-20.9-22c-6.5-6.5-13-12.6-19.4-18.4c-39-35.1-77.2-56.1-131.1-56.1
		c-0.6,0-1.2,0-1.8,0c-55.2,0.5-128.8,19.1-168.7,59.5c-39.4,39.9-44.4,92.2-45.1,144.7c-0.1,7.4-0.1,14.9-0.1,22.3l0,3.5
		c0,0.2,0,0.4,0,0.6c-0.1,63.2,9.1,104.5,59,154.3c46.5,46.5,97.2,69.2,154.9,69.6c0.4,0,0.7,0,1.1,0c55.1,0,111.9-25,155.9-68.7
		c44.8-44.5,70.6-102.3,70.6-158.5C471,194.2,450.7,156.1,416.5,117.8z M394.2,400.8c-42.4,42.1-97,66.2-149.8,66.2l-1.1,0
		c-55.3-0.3-104-22.3-148.8-67.1c-48.1-48-56.5-86-56.4-148.1l0-4.1c0-7.3,0-14.8,0.1-22.3c0.7-49,4.5-100.1,42.5-138.6
		c17.4-17.6,43.3-32.3,75-42.5c28-9,59.1-14.1,87.6-14.4l1.7,0c46.4,0,82.7,15.6,125.2,53.9c6.1,5.5,12.4,11.4,19.1,18.2
		c7.8,7.8,14.5,14.8,20.6,21.6c37.2,41.7,52.3,77.9,52.3,124.9C462.2,302.4,437.4,357.9,394.2,400.8z"/>
</g>
</svg>
