<?xml version="1.0" encoding="utf-8"?>
<!-- Generator: Adobe Illustrator 23.0.2, SVG Export Plug-In . SVG Version: 6.00 Build 0)  -->
<svg version="1.1" id="Layer_1" xmlns="http://www.w3.org/2000/svg" xmlns:xlink="http://www.w3.org/1999/xlink" x="0px" y="0px"
	 viewBox="0 0 493.3 490.2" style="enable-background:new 0 0 493.3 490.2;" xml:space="preserve">
<style type="text/css">
	.st0{fill:#FFFFFF;}
</style>
<g>
	<path class="st0" d="M245.4,20C121.1,20,20,121.1,20,245.4s101.1,225.4,225.4,225.4s225.4-101.1,225.4-225.4S369.7,20,245.4,20z
		 M245.4,433.6c-103.8,0-188.2-84.4-188.2-188.2c0-103.8,84.4-188.2,188.2-188.2s188.2,84.4,188.2,188.2
		C433.6,349.2,349.2,433.6,245.4,433.6z"/>
	<polygon class="st0" points="325.8,175.1 325.8,140.8 264.3,140.8 264.3,103 226.5,103 226.5,140.8 165,140.8 165,186.3 
		260.3,186.3 165,315.7 165,350 226.5,350 226.5,387.7 264.3,387.7 264.3,350 325.8,350 325.8,304.5 230.4,304.5 	"/>
</g>
</svg>
