<?xml version="1.0" encoding="utf-8"?>
<!-- Generator: Adobe Illustrator 23.0.1, SVG Export Plug-In . SVG Version: 6.00 Build 0)  -->
<svg version="1.1" id="Layer_1" xmlns="http://www.w3.org/2000/svg" xmlns:xlink="http://www.w3.org/1999/xlink" x="0px" y="0px"
	 viewBox="0 0 792 612" style="enable-background:new 0 0 792 612;" xml:space="preserve">
<style type="text/css">
	.st0{fill:#FFFFFF;}
</style>
<g>
	<path class="st0" d="M396.25,295.98c-5.53,0-10.02,4.49-10.02,10.02c0,5.54,4.49,10.02,10.02,10.02s10.02-4.49,10.02-10.02
		C406.27,300.46,401.78,295.98,396.25,295.98z"/>
	<path class="st0" d="M396,243.56c-34.48,0-62.43,27.95-62.43,62.44c0,34.48,27.95,62.44,62.43,62.44
		c34.48,0,62.44-27.95,62.44-62.44C458.44,271.52,430.48,243.56,396,243.56z M439.41,314.42c-0.25,1.29-0.57,2.56-0.93,3.8
		c-4.19,14.47-15.59,25.87-30.05,30.05c-1.22,0.35-2.45,0.67-3.71,0.91c-5.77-5.77-8.47-14.41-8.47-21.08
		c0,6.67-2.13,14.75-8.47,21.08c-1.26-0.25-2.5-0.56-3.72-0.92c-14.46-4.18-25.86-15.58-30.05-30.05c-0.36-1.25-0.68-2.51-0.93-3.8
		c5.85-5.85,13.83-8.43,21.03-8.43c-7.3,0-15.66-3.05-21.03-8.42c0.25-1.29,0.57-2.55,0.93-3.79c4.18-14.47,15.58-25.87,30.05-30.04
		c1.23-0.36,2.48-0.67,3.75-0.92c6.41,6.41,8.45,14.17,8.45,21.05c0-6.99,3.02-15.62,8.45-21.05c1.27,0.25,2.51,0.56,3.74,0.92
		c14.47,4.18,25.87,15.57,30.05,30.04c0.36,1.24,0.68,2.51,0.93,3.79c-5.61,5.61-14.61,8.42-21.03,8.42
		C425.21,305.99,433.58,308.59,439.41,314.42z"/>
</g>
<path class="st0" d="M396.25,295.98c-5.53,0-10.02,4.49-10.02,10.02c0,5.53,4.49,10.02,10.02,10.02c5.53,0,10.02-4.49,10.02-10.02
	C406.27,300.47,401.78,295.98,396.25,295.98"/>
</svg>
