<svg id="Layer_1" data-name="Layer 1" xmlns="http://www.w3.org/2000/svg" viewBox="0 0 538.33 612"><defs><style>.cls-1{fill:#f4b728;}</style></defs><title>headerArtboard 7</title><path d="M270.46,10.41C161.59,10.41,73,99,73,207.86S161.59,405.3,270.46,405.3s197.45-88.57,197.45-197.44S379.33,10.41,270.46,10.41Zm0,362.3c-90.9,0-164.85-73.95-164.85-164.85S179.56,43,270.46,43,435.31,117,435.31,207.86,361.36,372.71,270.46,372.71Z"/><circle class="cls-1" cx="270.46" cy="207.86" r="155.62"/><path d="M122.65,454.74v12.37L25.75,590h99v12H10.09V589.57L107,466.7H16.68v-12Z"/><path d="M202.84,510.2q-7.22-6.81-20.2-6.81a32.84,32.84,0,0,0-16.29,3.92,35.87,35.87,0,0,0-11.65,10.31,46.53,46.53,0,0,0-7,14.53,59,59,0,0,0,0,33.19,46.58,46.58,0,0,0,7,14.54,35.87,35.87,0,0,0,11.65,10.31,32.84,32.84,0,0,0,16.29,3.91A28.71,28.71,0,0,0,194,591.83a30.45,30.45,0,0,0,9.48-6.28,33.46,33.46,0,0,0,6.8-9.59,35.26,35.26,0,0,0,3.3-12.16h13q-2.69,19.38-14.22,30.2t-29.69,10.82a49.91,49.91,0,0,1-21.54-4.43,45.65,45.65,0,0,1-15.78-12.06,52.45,52.45,0,0,1-9.68-17.83,73.33,73.33,0,0,1,0-43.5,52.45,52.45,0,0,1,9.68-17.83A46.93,46.93,0,0,1,161.1,497a48.93,48.93,0,0,1,21.54-4.53q17.12,0,29,9.07T225.73,529h-13Q210.05,517,202.84,510.2Z"/><path d="M245.31,512.05a30.36,30.36,0,0,1,9-11.13,37.75,37.75,0,0,1,13.29-6.39,64.49,64.49,0,0,1,16.91-2.06,73.86,73.86,0,0,1,14,1.34,33.68,33.68,0,0,1,12.58,5.05,27.49,27.49,0,0,1,9.07,10.41q3.51,6.71,3.51,17.42v56.49q0,7.83,7.62,7.83a10.22,10.22,0,0,0,4.13-.82v10.92c-1.52.28-2.86.48-4,.62a38.49,38.49,0,0,1-4.43.21,19.53,19.53,0,0,1-7.94-1.35,10.58,10.58,0,0,1-4.64-3.81,14.42,14.42,0,0,1-2.17-5.87,51.05,51.05,0,0,1-.51-7.53h-.41a88.68,88.68,0,0,1-7.11,9.18,35.92,35.92,0,0,1-8,6.7A37.34,37.34,0,0,1,286,603.38a55.4,55.4,0,0,1-13.5,1.44,53.06,53.06,0,0,1-13.91-1.75,31.1,31.1,0,0,1-11.34-5.57,26.42,26.42,0,0,1-7.63-9.69,32.11,32.11,0,0,1-2.78-13.91q0-11.13,4.94-17.42a31.16,31.16,0,0,1,13.09-9.59,75,75,0,0,1,18.35-4.64q10.2-1.34,20.72-2.57,4.13-.42,7.22-1a12.72,12.72,0,0,0,5.15-2.17,10,10,0,0,0,3.19-4.23,18.1,18.1,0,0,0,1.14-7,23.75,23.75,0,0,0-2.16-10.82,17.25,17.25,0,0,0-6-6.7,24.17,24.17,0,0,0-8.87-3.4,59.82,59.82,0,0,0-10.82-.93q-12.37,0-20.21,5.88t-8.24,18.86h-13A43.2,43.2,0,0,1,245.31,512.05Zm64.94,31.75a7.49,7.49,0,0,1-4.74,3.3,47.49,47.49,0,0,1-6.19,1.44q-8.25,1.44-17,2.58a92.82,92.82,0,0,0-16,3.4A31.21,31.21,0,0,0,254.48,561q-4.64,4.23-4.64,12.06a18.84,18.84,0,0,0,2,8.76,21,21,0,0,0,5.26,6.6,22.82,22.82,0,0,0,7.63,4.23,27.87,27.87,0,0,0,8.86,1.44,44.39,44.39,0,0,0,14.22-2.27,35.07,35.07,0,0,0,11.86-6.59,31.42,31.42,0,0,0,11-24.54V543.8Z"/><path d="M408.79,516.28a21.08,21.08,0,0,0-6.08-7.32,25.66,25.66,0,0,0-8.76-4.23,40.27,40.27,0,0,0-10.52-1.34,42.5,42.5,0,0,0-8.76.93,27,27,0,0,0-8.14,3.09,17.58,17.58,0,0,0-6,5.67,15.58,15.58,0,0,0-2.27,8.66,12.15,12.15,0,0,0,2.16,7.32,19.34,19.34,0,0,0,5.47,5.05,34.14,34.14,0,0,0,7.21,3.4q3.92,1.35,7.22,2.17l17.32,3.91a49.7,49.7,0,0,1,11,3,35.7,35.7,0,0,1,9.69,5.67,27.83,27.83,0,0,1,6.91,8.66A26.12,26.12,0,0,1,428,573.07,26.63,26.63,0,0,1,424,587.81a31.89,31.89,0,0,1-10,9.9,42.63,42.63,0,0,1-13.71,5.46,71.13,71.13,0,0,1-15,1.65q-18.77,0-30.41-8.86t-13.3-28.45h13q.82,13.18,9.59,19.89t21.74,6.7a48.75,48.75,0,0,0,9.8-1,31.88,31.88,0,0,0,9.38-3.5,22.62,22.62,0,0,0,7.11-6.29A15.45,15.45,0,0,0,415,573.9a15,15,0,0,0-2-7.94,17.12,17.12,0,0,0-5.26-5.36,33.69,33.69,0,0,0-7.53-3.61q-4.23-1.44-8.55-2.47L375,550.81A93.16,93.16,0,0,1,363.23,547a37.07,37.07,0,0,1-9.38-5.36,22.5,22.5,0,0,1-6.29-7.83,25.8,25.8,0,0,1-2.27-11.44,25.49,25.49,0,0,1,3.61-13.81,28.12,28.12,0,0,1,9.38-9.28,43.5,43.5,0,0,1,12.89-5.15,62.25,62.25,0,0,1,14.12-1.65,51.78,51.78,0,0,1,14.94,2.06,34.25,34.25,0,0,1,12.17,6.39,31.61,31.61,0,0,1,8.35,10.72,38.63,38.63,0,0,1,3.5,15.05h-13A24.49,24.49,0,0,0,408.79,516.28Z"/><path d="M457.44,454.74v59.17h.41a31.13,31.13,0,0,1,13.2-15.57,38.81,38.81,0,0,1,20.82-5.87q11.13,0,18.66,2.88a29.52,29.52,0,0,1,12.05,8.15,30.3,30.3,0,0,1,6.4,12.88,73,73,0,0,1,1.85,17.11v68.45h-13V535.55a61.93,61.93,0,0,0-1.23-12.68,27,27,0,0,0-4.33-10.2,21,21,0,0,0-8.35-6.8,30.69,30.69,0,0,0-13.09-2.48,33,33,0,0,0-13.92,2.79,30.23,30.23,0,0,0-10.31,7.62A35.32,35.32,0,0,0,460,525.35a46.83,46.83,0,0,0-2.58,14.53v62.06h-13V454.74Z"/><polygon points="340.87 146.31 340.87 116.19 287 116.19 287 83.14 253.92 83.14 253.92 116.19 200.05 116.19 200.05 156.08 283.56 156.08 215.27 250.07 200.05 269.41 200.05 299.52 253.92 299.52 253.92 332.48 257.89 332.48 257.89 332.61 283.03 332.61 283.03 332.48 287 332.48 287 299.52 340.87 299.52 340.87 259.64 257.36 259.64 325.65 165.65 340.87 146.31"/></svg>