<svg id="Layer_1" data-name="Layer 1" xmlns="http://www.w3.org/2000/svg" viewBox="0 0 538.33 612"><defs><style>.cls-1{fill:#fff;}</style></defs><title>headerArtboard 7</title><path class="cls-1" d="M275.05,198.35a88.22,88.22,0,1,1,88.19-88.25,88.31,88.31,0,0,1-88.19,88.25m0-150.41a62.18,62.18,0,1,0,62.16,62.16,62.19,62.19,0,0,0-62.16-62.16"/><path class="cls-1" d="M144.92,389.19a88.23,88.23,0,1,1,88.25-88.26,88.32,88.32,0,0,1-88.25,88.26m0-150.4a62.18,62.18,0,1,0,62.2,62.14,62.18,62.18,0,0,0-62.2-62.14"/><path class="cls-1" d="M405.14,389.19a88.23,88.23,0,1,1,88.19-88.26,88.32,88.32,0,0,1-88.19,88.26m0-150.4a62.18,62.18,0,1,0,62.15,62.14,62.19,62.19,0,0,0-62.15-62.14"/><polygon class="cls-1" points="383.14 341.09 364.7 322.64 288.07 399.26 288.07 144.8 262.04 144.8 262.04 399.24 180 317.21 161.55 335.66 262.04 436.14 262.04 480.81 288.07 480.81 288.07 436.16 383.14 341.09"/><path class="cls-1" d="M288.88,547.79a11.53,11.53,0,0,0-1.17-4.82,10.14,10.14,0,0,0-2.86-3.44,12.62,12.62,0,0,0-4.31-2.08,20.51,20.51,0,0,0-5.46-.69,19.79,19.79,0,0,0-3.89.42,12.07,12.07,0,0,0-3.85,1.48,8.8,8.8,0,0,0-2.93,2.83,8.06,8.06,0,0,0-1.14,4.43,6.68,6.68,0,0,0,1.26,4.22,9.26,9.26,0,0,0,3.32,2.62,21.22,21.22,0,0,0,4.7,1.6q2.65.6,5.36,1.14t5.4,1.3a18.57,18.57,0,0,1,4.7,2.05,10.12,10.12,0,0,1,3.35,3.38,9.88,9.88,0,0,1,1.26,5.21,10.47,10.47,0,0,1-1.44,5.67,12.38,12.38,0,0,1-3.65,3.73,15.06,15.06,0,0,1-4.88,2.08,22.61,22.61,0,0,1-5.16.64,29.88,29.88,0,0,1-7.11-.82,15.86,15.86,0,0,1-5.79-2.65,12.75,12.75,0,0,1-3.88-4.73,15.34,15.34,0,0,1-1.36-7.05H262a11.94,11.94,0,0,0,1,6,10.7,10.7,0,0,0,3.34,4,13.84,13.84,0,0,0,5,2.26,26.19,26.19,0,0,0,6.09.69,19.42,19.42,0,0,0,4.13-.48,12.57,12.57,0,0,0,4-1.63,9.79,9.79,0,0,0,3.07-3,8.28,8.28,0,0,0,1.24-4.7A7.23,7.23,0,0,0,288.7,563a9.21,9.21,0,0,0-3.34-2.77,21.3,21.3,0,0,0-4.7-1.69c-1.75-.42-3.55-.82-5.4-1.18s-3.59-.78-5.36-1.26a18.39,18.39,0,0,1-4.7-2,10,10,0,0,1-3.32-3.2,9.13,9.13,0,0,1-1.27-5,10.22,10.22,0,0,1,1.3-5.27,10.49,10.49,0,0,1,3.38-3.56,14.94,14.94,0,0,1,4.67-2,21.54,21.54,0,0,1,5.12-.63,25.3,25.3,0,0,1,6.3.75,15,15,0,0,1,5.12,2.35A11.72,11.72,0,0,1,290,541.7a14.68,14.68,0,0,1,1.51,6.09Z"/><path class="cls-1" d="M320.16,572.38H320a9.22,9.22,0,0,1-1.57,2.62,10.7,10.7,0,0,1-2.5,2.2,12.12,12.12,0,0,1-3.34,1.51,14.79,14.79,0,0,1-4.1.54q-4.95,0-7.66-2.14t-2.71-6.6a7.76,7.76,0,0,1,3.83-7.14,12,12,0,0,1,3.68-1.42,36,36,0,0,1,3.88-.6l3.56-.3a21.16,21.16,0,0,0,3.89-.57,5.05,5.05,0,0,0,2.14-1.09,3.07,3.07,0,0,0,.9-1.78,16.9,16.9,0,0,0,.18-2.71,5.74,5.74,0,0,0-.48-2.35,5.28,5.28,0,0,0-1.51-1.93,7.39,7.39,0,0,0-2.65-1.32,13.81,13.81,0,0,0-4-.49,10.48,10.48,0,0,0-6.72,2.05,8.12,8.12,0,0,0-2.8,6.21h-2.29q.24-5.12,3.28-7.68c2-1.71,4.92-2.56,8.65-2.56s6.46.73,8.17,2.19a7.23,7.23,0,0,1,2.56,5.76v18c0,.45,0,.89,0,1.33a4.57,4.57,0,0,0,.21,1.21,1.75,1.75,0,0,0,.61.87,1.9,1.9,0,0,0,1.2.33,11,11,0,0,0,1.69-.18v1.93a7.26,7.26,0,0,1-1.87.24,5.54,5.54,0,0,1-2.2-.36,2.83,2.83,0,0,1-1.23-1,3.42,3.42,0,0,1-.58-1.41,9.93,9.93,0,0,1-.15-1.78Zm0-11.45a4.39,4.39,0,0,1-2.56,1.39,32.11,32.11,0,0,1-3.83.54l-3.86.36c-1.12.12-2.25.29-3.37.51a9.75,9.75,0,0,0-3,1.12,6.09,6.09,0,0,0-2.2,2.14,6.51,6.51,0,0,0-.85,3.52,6,6,0,0,0,2.17,5.1,9.67,9.67,0,0,0,6,1.65,11.8,11.8,0,0,0,6.21-1.41,11,11,0,0,0,3.49-3.26,9.86,9.86,0,0,0,1.54-3.55,15.34,15.34,0,0,0,.33-2.32Z"/><path class="cls-1" d="M334,554.66h.18a11.82,11.82,0,0,1,1.2-2.53,10.63,10.63,0,0,1,2.23-2.56,11.88,11.88,0,0,1,3.35-2,12,12,0,0,1,4.49-.78,13.6,13.6,0,0,1,6.18,1.32,12.58,12.58,0,0,1,4.34,3.56,15.41,15.41,0,0,1,2.56,5.18,22.6,22.6,0,0,1,.84,6.21,23.76,23.76,0,0,1-.84,6.51,14.29,14.29,0,0,1-2.57,5.09,11.88,11.88,0,0,1-4.35,3.35,14.81,14.81,0,0,1-6.2,1.2,13.91,13.91,0,0,1-6.88-1.68,9.84,9.84,0,0,1-4.41-5.49H334v17.54h-2.24V547.55H334Zm11.42,22.6a11.23,11.23,0,0,0,5.22-1.14,10.34,10.34,0,0,0,3.63-3.08,13.41,13.41,0,0,0,2.12-4.49,21.38,21.38,0,0,0,0-10.66,14.52,14.52,0,0,0-2.06-4.59,10.53,10.53,0,0,0-3.6-3.25,12.08,12.08,0,0,0-10.6,0,10.26,10.26,0,0,0-3.54,3.19,13.62,13.62,0,0,0-2,4.55,23.37,23.37,0,0,0-.61,5.34,25.69,25.69,0,0,0,.55,5.33,13,13,0,0,0,1.84,4.52,9.45,9.45,0,0,0,3.51,3.14A11.56,11.56,0,0,0,345.39,577.26Z"/><path class="cls-1" d="M368.92,535.49v43h-2.29v-43Z"/><path class="cls-1" d="M377.79,541.7v-6.21h2.29v6.21Zm0,36.83v-31h2.29v31Z"/><path class="cls-1" d="M388.64,547.55h2.29v6.63h.12a10,10,0,0,1,1.71-3.11,11.75,11.75,0,0,1,2.6-2.32,11.41,11.41,0,0,1,3.22-1.44,13.4,13.4,0,0,1,3.56-.48,14.13,14.13,0,0,1,4.61.66,8.89,8.89,0,0,1,3.1,1.75,8.19,8.19,0,0,1,1.9,2.44,11.77,11.77,0,0,1,1,2.74,16.21,16.21,0,0,1,.36,2.68c0,.87.06,1.62.06,2.26v19.17h-2.29V558.94c0-.76-.06-1.73-.18-2.89a8.87,8.87,0,0,0-1.06-3.35A7.68,7.68,0,0,0,407,550a9.05,9.05,0,0,0-4.91-1.15,10.93,10.93,0,0,0-4.7,1,10.14,10.14,0,0,0-3.5,2.68,11.87,11.87,0,0,0-2.2,4.1,17.31,17.31,0,0,0-.75,5.21v16.76h-2.29Z"/><path class="cls-1" d="M446.86,547.55V576.9a21.07,21.07,0,0,1-.6,5,11.16,11.16,0,0,1-2.08,4.31,10.16,10.16,0,0,1-4.05,3,16.75,16.75,0,0,1-6.56,1.11,20.15,20.15,0,0,1-4.63-.51,11.11,11.11,0,0,1-3.79-1.63,8.21,8.21,0,0,1-2.61-3,10.52,10.52,0,0,1-1.11-4.55h2.29a8.37,8.37,0,0,0,1,3.5,7.48,7.48,0,0,0,2.2,2.38,9.29,9.29,0,0,0,3,1.35,15,15,0,0,0,3.62.43,13,13,0,0,0,5.33-1,9.2,9.2,0,0,0,3.41-2.5,9.08,9.08,0,0,0,1.78-3.5,15.55,15.55,0,0,0,.51-3.94v-7.12h-.17a12.45,12.45,0,0,1-4.42,5.25,12.26,12.26,0,0,1-6.77,1.81,13.8,13.8,0,0,1-5.92-1.18A11.32,11.32,0,0,1,423.2,573a13.82,13.82,0,0,1-2.47-4.85,21.44,21.44,0,0,1-.81-6,19.42,19.42,0,0,1,.87-5.84,14.51,14.51,0,0,1,2.56-4.85,12.42,12.42,0,0,1,4.19-3.32,13.64,13.64,0,0,1,12.54.63,10.38,10.38,0,0,1,4.43,5.31h.12v-6.45Zm-13.56,1.26a10,10,0,0,0-4.91,1.15,10.41,10.41,0,0,0-3.44,3,13.85,13.85,0,0,0-2.05,4.25,17.38,17.38,0,0,0-.69,4.85,18.91,18.91,0,0,0,.69,5.16,12.28,12.28,0,0,0,2.11,4.25,10.36,10.36,0,0,0,3.5,2.86,10.46,10.46,0,0,0,4.79,1.06,10.68,10.68,0,0,0,4.94-1.09,10.3,10.3,0,0,0,3.53-2.95,13,13,0,0,0,2.11-4.25,18.61,18.61,0,0,0,0-10,12.73,12.73,0,0,0-2.11-4.25,10.44,10.44,0,0,0-3.53-2.92A10.68,10.68,0,0,0,433.3,548.81Z"/><polygon class="cls-1" points="132.39 533.72 132.39 537.37 103.86 573.55 133 573.55 133 577.07 99.25 577.07 99.25 573.42 127.78 537.24 101.19 537.24 101.19 533.72 132.39 533.72"/><path class="cls-1" d="M156,550.05a8.4,8.4,0,0,0-6-2,9.72,9.72,0,0,0-4.78,1.15,10.38,10.38,0,0,0-3.44,3,14,14,0,0,0-2.07,4.28,17.4,17.4,0,0,0,0,9.77,14.06,14.06,0,0,0,2.07,4.28,10.61,10.61,0,0,0,3.44,3,9.82,9.82,0,0,0,4.78,1.15,8.21,8.21,0,0,0,3.34-.68,8.76,8.76,0,0,0,2.8-1.85,10.08,10.08,0,0,0,2-2.81,10.54,10.54,0,0,0,1-3.58H163a14.47,14.47,0,0,1-4.19,8.88,12.24,12.24,0,0,1-8.75,3.19,14.79,14.79,0,0,1-6.33-1.31,13.55,13.55,0,0,1-4.66-3.54,15.88,15.88,0,0,1-2.84-5.26,21.36,21.36,0,0,1,0-12.79,15.68,15.68,0,0,1,2.84-5.26,14.06,14.06,0,0,1,4.66-3.59,14.36,14.36,0,0,1,6.33-1.33,13.64,13.64,0,0,1,8.54,2.67c2.33,1.78,3.7,4.47,4.15,8.07H158.9a10.58,10.58,0,0,0-2.9-5.52"/><path class="cls-1" d="M168.5,550.61a8.55,8.55,0,0,1,2.64-3.28,10.74,10.74,0,0,1,3.92-1.88,18.71,18.71,0,0,1,5-.61,22.94,22.94,0,0,1,4.11.38,10.41,10.41,0,0,1,3.71,1.49,8,8,0,0,1,2.67,3.07,11.17,11.17,0,0,1,1,5.13v16.63a2,2,0,0,0,2.25,2.3,3.19,3.19,0,0,0,1.22-.23v3.22l-1.19.17a11.27,11.27,0,0,1-1.29.06,5.63,5.63,0,0,1-2.34-.4,3,3,0,0,1-1.36-1.12,3.9,3.9,0,0,1-.64-1.73,12.44,12.44,0,0,1-.17-2.2h-.12a25.36,25.36,0,0,1-2.09,2.69,10.15,10.15,0,0,1-2.37,2,10.8,10.8,0,0,1-3,1.2,17.26,17.26,0,0,1-8.08-.08,9.35,9.35,0,0,1-3.33-1.64,7.67,7.67,0,0,1-2.25-2.86,9.43,9.43,0,0,1-.82-4.1,8.16,8.16,0,0,1,1.46-5.12,9.09,9.09,0,0,1,3.84-2.82,21.85,21.85,0,0,1,5.41-1.37q3-.39,6.1-.76c.81-.09,1.51-.18,2.12-.3a3.64,3.64,0,0,0,1.52-.64,2.91,2.91,0,0,0,.94-1.24,5.45,5.45,0,0,0,.33-2.08,6.91,6.91,0,0,0-.63-3.16,4.88,4.88,0,0,0-1.77-2,7.25,7.25,0,0,0-2.6-1,20,20,0,0,0-3.19-.26,9.68,9.68,0,0,0-5.95,1.73c-1.53,1.15-2.35,3-2.42,5.56h-3.83a12.7,12.7,0,0,1,1.16-4.73m19.12,9.33a2.2,2.2,0,0,1-1.4,1,14.42,14.42,0,0,1-1.83.42c-1.61.29-3.29.53-5,.77a25.85,25.85,0,0,0-4.71,1,9.27,9.27,0,0,0-3.49,1.9,4.57,4.57,0,0,0-1.36,3.54,5.49,5.49,0,0,0,.57,2.59,5.84,5.84,0,0,0,1.54,1.94,6.34,6.34,0,0,0,2.25,1.24,8.09,8.09,0,0,0,2.62.44,13,13,0,0,0,4.18-.67,10.25,10.25,0,0,0,3.49-1.94,9.29,9.29,0,0,0,3.24-7.24v-5Z"/><path class="cls-1" d="M216.63,551.84a6.27,6.27,0,0,0-1.79-2.16,7.61,7.61,0,0,0-2.58-1.23,11.63,11.63,0,0,0-3.11-.4,13.63,13.63,0,0,0-2.58.27,8.11,8.11,0,0,0-2.39.91,5.22,5.22,0,0,0-1.76,1.67,4.65,4.65,0,0,0-.66,2.55,3.63,3.63,0,0,0,.63,2.16,5.58,5.58,0,0,0,1.61,1.48,10.61,10.61,0,0,0,2.12,1c.78.26,1.48.47,2.13.63l5.1,1.16a15.67,15.67,0,0,1,3.25.87,10.77,10.77,0,0,1,2.85,1.68,8,8,0,0,1,2,2.54,7.65,7.65,0,0,1,.79,3.58,7.83,7.83,0,0,1-1.16,4.34,9.39,9.39,0,0,1-2.93,2.92,12.18,12.18,0,0,1-4.05,1.6,20.45,20.45,0,0,1-4.43.49,14.39,14.39,0,0,1-8.95-2.6c-2.29-1.76-3.59-4.54-3.91-8.39h3.83a7.58,7.58,0,0,0,2.81,5.87,10.36,10.36,0,0,0,6.41,2,13.85,13.85,0,0,0,2.88-.31,9.68,9.68,0,0,0,2.77-1,7,7,0,0,0,2.09-1.87,5.05,5.05,0,0,0,.25-5.09,5.34,5.34,0,0,0-1.56-1.58,9.43,9.43,0,0,0-2.21-1.06c-.84-.28-1.68-.53-2.52-.73l-4.92-1.1a25.9,25.9,0,0,1-3.45-1.11,11.25,11.25,0,0,1-2.77-1.58,6.89,6.89,0,0,1-1.85-2.3,8.62,8.62,0,0,1,.4-7.45,8.25,8.25,0,0,1,2.76-2.72,12.86,12.86,0,0,1,3.79-1.52,18,18,0,0,1,4.15-.49,15.26,15.26,0,0,1,4.41.61,9.92,9.92,0,0,1,3.58,1.89,9.06,9.06,0,0,1,2.45,3.16,10.93,10.93,0,0,1,1,4.41h-3.81a7.58,7.58,0,0,0-.73-3.06"/><path class="cls-1" d="M231,533.72v17.43h.13a9.1,9.1,0,0,1,3.88-4.6,11.5,11.5,0,0,1,6.13-1.71,15.35,15.35,0,0,1,5.49.84,8.69,8.69,0,0,1,3.55,2.4,9,9,0,0,1,1.89,3.79,21.58,21.58,0,0,1,.55,5v20.15h-3.83V557.52a18.21,18.21,0,0,0-.37-3.73,8.18,8.18,0,0,0-1.27-3,6.28,6.28,0,0,0-2.45-2,9.06,9.06,0,0,0-3.87-.73,9.75,9.75,0,0,0-4.1.82,8.61,8.61,0,0,0-3,2.25,10.09,10.09,0,0,0-1.94,3.39,13.49,13.49,0,0,0-.77,4.28v18.28h-3.83V533.72Z"/></svg>