<svg enable-background="new 0 0 1921.5 456" viewBox="0 0 1921.5 456" xmlns="http://www.w3.org/2000/svg"><path d="m205.9 177.9c-42.4 0-76.9-34.5-76.9-77 0-42.4 34.5-76.9 76.9-76.9s76.9 34.5 76.9 76.9-34.5 77-76.9 77m0-131.2c-29.9 0-54.2 24.3-54.2 54.2s24.3 54.2 54.2 54.2 54.2-24.3 54.2-54.2-24.3-54.2-54.2-54.2" fill="#76bc43"/><path d="m92.4 344.3c-42.4 0-76.9-34.5-76.9-77 0-42.4 34.5-76.9 76.9-76.9s77 34.5 77 76.9-34.5 77-77 77m0-131.2c-29.9 0-54.2 24.3-54.2 54.2s24.3 54.3 54.2 54.3 54.2-24.3 54.2-54.3c.1-29.9-24.3-54.2-54.2-54.2" fill="#76bc43"/><path d="m319.3 344.3c-42.4 0-76.9-34.5-76.9-77 0-42.4 34.5-76.9 76.9-76.9s76.9 34.5 76.9 76.9-34.4 77-76.9 77m0-131.2c-29.9 0-54.2 24.3-54.2 54.2s24.3 54.3 54.2 54.3 54.2-24.3 54.2-54.3c0-29.9-24.2-54.2-54.2-54.2" fill="#76bc43"/><g fill="#0a1c2b"><path d="m300.2 302.3-16.1-16.1-66.8 66.8v-221.8h-22.7v221.8l-71.6-71.5-16.1 16.1 87.7 87.6v38.9h22.7v-38.9z"/><path d="m1241 235.4c-.3-7.6-1.9-14.2-4.8-19.9-2.9-5.6-6.8-10.3-11.8-14.2-5-3.8-10.9-6.7-17.8-8.6s-14.4-2.9-22.5-2.9c-5 0-10.3.6-16 1.7-5.7 1.2-11 3.2-15.9 6.1s-8.9 6.8-12 11.7-4.7 11-4.7 18.3c0 7.1 1.7 12.9 5.2 17.4s8 8.1 13.7 10.8c5.6 2.7 12.1 4.9 19.4 6.6s14.7 3.2 22.1 4.7c7.6 1.5 15 3.3 22.2 5.3 7.2 2.1 13.7 4.9 19.4 8.4 5.7 3.6 10.3 8.2 13.8 13.9s5.2 12.9 5.2 21.5c0 9.3-2 17.1-6 23.4s-9 11.4-15 15.4-12.8 6.8-20.1 8.6c-7.4 1.7-14.4 2.6-21.2 2.6-10.4 0-20.2-1.1-29.3-3.4-9.1-2.2-17.1-5.9-23.8-10.9-6.8-5-12.1-11.6-16-19.5s-5.8-17.6-5.6-29.1h10.9c-.5 9.8.9 18 4.2 24.7s7.9 12.2 13.8 16.5 12.8 7.4 20.7 9.3 16.3 2.9 25.1 2.9c5.3 0 11-.7 17-2s11.6-3.6 16.6-6.7c5.1-3.1 9.3-7.3 12.7-12.4s5.1-11.6 5.1-19.4c0-7.5-1.7-13.5-5.2-18.3-3.5-4.7-8.1-8.5-13.8-11.4s-12.2-5.2-19.4-7c-7.2-1.7-14.6-3.4-22.2-4.8-7.5-1.5-14.8-3.2-22.1-5.2s-13.7-4.7-19.4-8.1c-5.6-3.4-10.2-7.8-13.7-13.2s-5.2-12.3-5.2-20.7 1.8-15.7 5.3-21.7c3.6-6 8.2-10.9 13.9-14.7s12.1-6.5 19.3-8.2c7.1-1.7 14.2-2.6 21.1-2.6 9.3 0 17.9 1 26 3.1 8 2.1 15.1 5.3 21.1 9.7s10.9 10.1 14.5 17c3.6 7 5.7 15.3 6.2 25.1h-11z"/><path d="m1365.9 336.7h-.5c-1.5 3.8-3.6 7.4-6.5 10.8-2.8 3.4-6.3 6.4-10.3 9.1-4.1 2.7-8.7 4.7-13.8 6.2s-10.8 2.2-16.9 2.2c-13.6 0-24.1-2.9-31.5-8.8-7.5-5.9-11.2-14.9-11.2-27.2 0-7.5 1.5-13.5 4.5-18.3 3-4.7 6.7-8.4 11.3-11.2 4.6-2.7 9.6-4.7 15.2-5.8 5.5-1.2 10.9-2 16-2.5l14.7-1.2c6.8-.5 12.1-1.3 16-2.4s6.8-2.6 8.8-4.5 3.2-4.3 3.7-7.3.7-6.7.7-11.2c0-3.5-.7-6.7-2-9.7s-3.4-5.6-6.2-7.9-6.5-4.1-10.9-5.5c-4.5-1.3-9.9-2-16.4-2-11.4 0-20.7 2.8-27.7 8.4s-10.9 14.2-11.6 25.6h-9.4c.7-14.1 5.2-24.6 13.5-31.7 8.4-7 20.2-10.6 35.6-10.6s26.6 3 33.7 9.1c7 6 10.6 14 10.6 23.7v74.3c0 1.8 0 3.6.1 5.5.1 1.8.4 3.5.9 5s1.3 2.7 2.5 3.6 2.8 1.4 5 1.4c1.7 0 4-.2 7-.7v7.9c-2.5.7-5.1 1-7.7 1-3.8 0-6.8-.5-9.1-1.5-2.2-1-3.9-2.3-5.1-4s-1.9-3.6-2.4-5.8c-.4-2.2-.6-4.7-.6-7.3zm0-47.2c-2.3 2.8-5.8 4.7-10.6 5.7s-10 1.7-15.8 2.2l-15.9 1.5c-4.6.5-9.3 1.2-13.9 2.1s-8.8 2.4-12.5 4.6-6.8 5.1-9.1 8.8-3.5 8.6-3.5 14.5c0 9.4 3 16.4 8.9 21 6 4.6 14.2 6.8 24.6 6.8 10.8 0 19.3-1.9 25.6-5.8s11.1-8.4 14.4-13.4c3.3-5.1 5.4-9.9 6.3-14.7.9-4.7 1.4-7.9 1.4-9.6v-23.7z"/><path d="m1417.8 263.7h.7c1-3.1 2.6-6.6 5-10.4 2.3-3.8 5.4-7.3 9.2-10.6 3.8-3.2 8.4-5.9 13.8-8.1 5.4-2.1 11.6-3.2 18.5-3.2 9.8 0 18.3 1.8 25.5 5.5 7.2 3.6 13.2 8.5 17.9 14.7 4.7 6.1 8.2 13.3 10.6 21.4 2.3 8.1 3.5 16.6 3.5 25.6 0 9.8-1.2 18.7-3.5 26.8s-5.9 15.1-10.6 21-10.7 10.5-17.9 13.8-15.7 5-25.5 5c-10.6 0-20.1-2.3-28.4-7-8.3-4.6-14.4-12.2-18.2-22.6h-.5v72.3h-9.2v-173.5h9.2v29.3zm47.1 93.1c8.3 0 15.5-1.6 21.5-4.7 6.1-3.1 11-7.4 14.9-12.7s6.8-11.5 8.7-18.5 2.9-14.5 2.9-22.5c0-7.3-.9-14.4-2.7-21.5-1.8-7-4.7-13.3-8.5-18.9-3.8-5.5-8.8-10-14.8-13.4-6.1-3.4-13.4-5.1-22-5.1-8.5 0-15.7 1.7-21.7 5s-10.8 7.7-14.6 13.2c-3.7 5.5-6.4 11.7-8.1 18.8-1.7 7-2.5 14.4-2.5 22s.7 14.9 2.2 22c1.5 7 4 13.3 7.6 18.6 3.6 5.4 8.4 9.7 14.4 12.9 6.2 3.2 13.7 4.8 22.7 4.8z"/><path d="m1558.9 184.7v177.4h-9.4v-177.4z"/><path d="m1595.4 210.3v-25.6h9.4v25.6zm0 151.8v-127.7h9.4v127.7z"/><path d="m1640.1 234.4h9.4v27.3h.5c1.7-4.8 4-9.1 7.1-12.8s6.6-6.9 10.7-9.6c4.1-2.6 8.5-4.6 13.3-6 4.8-1.3 9.7-2 14.7-2 7.5 0 13.8.9 19 2.7s9.5 4.2 12.8 7.2 5.9 6.3 7.8 10.1c1.9 3.7 3.3 7.5 4.1 11.3s1.3 7.5 1.5 11.1.2 6.7.2 9.3v79h-9.4v-80.7c0-3.1-.2-7.1-.7-11.9s-1.9-9.4-4.3-13.8-6-8.2-10.9-11.3-11.6-4.7-20.2-4.7c-7.3 0-13.7 1.3-19.4 4-5.6 2.7-10.4 6.3-14.4 11.1-4 4.7-7 10.4-9.1 16.9s-3.1 13.7-3.1 21.5v69.1h-9.4v-127.8z"/><path d="m1874.1 234.4v121c0 7.1-.8 14-2.5 20.7s-4.5 12.6-8.6 17.8c-4 5.1-9.6 9.2-16.7 12.3s-16.1 4.6-27 4.6c-6.8 0-13.1-.7-19.1-2.1-5.9-1.4-11.2-3.6-15.6-6.7-4.5-3.1-8.1-7.1-10.8-12.2s-4.3-11.3-4.6-18.8h9.4c.5 5.6 1.9 10.4 4.2 14.4s5.3 7.2 9.1 9.8c3.7 2.6 7.9 4.4 12.5 5.6s9.6 1.7 14.9 1.7c8.8 0 16.1-1.3 22-4s10.6-6.1 14-10.3c3.5-4.2 5.9-9 7.3-14.4s2.1-10.8 2.1-16.3v-29.3h-.7c-4.5 9.4-10.5 16.6-18.2 21.6s-17 7.5-27.9 7.5c-9.4 0-17.6-1.6-24.4-4.8-6.9-3.2-12.6-7.7-17.1-13.4s-7.9-12.4-10.2-20c-2.2-7.6-3.3-15.9-3.3-24.8 0-8.4 1.2-16.5 3.6-24.1s5.9-14.3 10.6-20c4.6-5.7 10.4-10.3 17.3-13.7s14.8-5.1 23.7-5.1c10.1 0 19.4 2.6 27.9 7.7s14.6 12.4 18.3 21.9h.5v-26.6zm-55.9 5.2c-7.8 0-14.5 1.6-20.2 4.7s-10.4 7.3-14.2 12.4c-3.7 5.1-6.5 11-8.4 17.5s-2.9 13.2-2.9 20c0 7.5 1 14.5 2.9 21.2s4.8 12.5 8.7 17.5 8.7 8.9 14.4 11.8 12.3 4.3 19.8 4.3c7.8 0 14.6-1.5 20.4-4.5s10.6-7 14.5-12.2c3.9-5.1 6.8-11 8.7-17.5s2.9-13.5 2.9-20.7c0-7.1-1-14-2.9-20.6s-4.8-12.5-8.7-17.5-8.7-9.1-14.5-12c-5.9-2.9-12.7-4.4-20.5-4.4z"/><path d="m596 177.4v15l-117.6 149.1h120.1v14.5h-139v-15l117.5-149.1h-109.5v-14.5z"/><path d="m693.3 244.7c-5.8-5.5-14-8.3-24.6-8.3-7.5 0-14.1 1.6-19.7 4.7-5.7 3.1-10.4 7.3-14.2 12.5-3.7 5.1-6.6 11-8.5 17.6s-2.9 13.3-2.9 20.1c0 6.9 1 13.6 2.9 20.2s4.8 12.5 8.5 17.6c3.8 5.2 8.5 9.3 14.2 12.5 5.6 3.1 12.2 4.7 19.7 4.7 4.8 0 9.4-.9 13.8-2.8 4.3-1.8 8.2-4.4 11.5-7.6 3.4-3.2 6.1-7.1 8.3-11.6s3.5-9.4 4-14.8h15.8c-2.2 15.6-8 27.9-17.3 36.6-9.3 8.8-21.4 13.2-36.1 13.2-9.8 0-18.5-1.9-26.1-5.4-7.6-3.6-14-8.5-19.2-14.6-5.1-6.2-9-13.4-11.7-21.7s-4-17-4-26.4c0-9.3 1.3-18.1 4-26.3 2.7-8.3 6.6-15.5 11.7-21.7 5.2-6.2 11.6-11.1 19.2-14.8s16.3-5.5 26.1-5.5c13.9 0 25.6 3.7 35.2 11s15.3 18.4 17.1 33.3h-15.8c-2.1-9.4-6.1-17-11.9-22.5"/><path d="m744.8 247c2.6-5.6 6.3-10 10.9-13.5 4.5-3.5 10-6.1 16.1-7.7 6.1-1.7 13-2.5 20.5-2.5 5.6 0 11.3.6 17 1.6 5.7 1.1 10.8 3.1 15.3 6.1s8.2 7.2 11 12.6 4.2 12.5 4.2 21.1v68.6c0 6.3 3.1 9.4 9.3 9.4 1.8 0 3.5-.3 5-.9v13.2c-1.8.3-3.5.5-4.9.7s-3.1.3-5.3.3c-4.1 0-7.2-.6-9.6-1.6-2.4-1.1-4.3-2.6-5.6-4.6-1.4-2-2.2-4.3-2.6-7.1-.5-2.7-.7-5.8-.7-9.1h-.5c-2.8 4.1-5.7 7.8-8.6 11.1-2.9 3.2-6.1 6-9.7 8.2s-7.6 3.8-12.2 4.9c-4.6 1.2-10.1 1.8-16.4 1.8-6 0-11.6-.7-16.9-2.1s-9.9-3.7-13.7-6.8c-4-3.1-7.1-7-9.3-11.8-2.3-4.7-3.4-10.4-3.4-16.9 0-9 2.1-16 6-21.1 4-5.1 9.2-9 15.8-11.7s14-4.5 22.3-5.6 16.6-2.1 25.1-3.1c3.4-.4 6.2-.7 8.8-1.2 2.5-.5 4.6-1.3 6.2-2.6 1.6-1.2 3-2.9 3.9-5.1s1.4-5 1.4-8.6c0-5.3-.9-9.6-2.6-13.1s-4.1-6.2-7.3-8.2c-3-2-6.7-3.4-10.7-4.1-4.1-.7-8.5-1.1-13.2-1.1-10 0-18.2 2.4-24.5 7.1s-9.7 12.4-10 22.9h-15.8c.5-7.6 2.1-14.1 4.7-19.5m78.9 38.4c-1 1.9-2.9 3.2-5.8 4-2.8.8-5.4 1.4-7.5 1.8-6.7 1.2-13.6 2.2-20.6 3.1-7.1.9-13.6 2.3-19.4 4.1s-10.6 4.4-14.4 7.8c-3.8 3.5-5.6 8.3-5.6 14.6 0 4.1.8 7.6 2.4 10.7 1.5 3.1 3.7 5.8 6.3 8 2.7 2.3 5.8 4 9.3 5.1 3.5 1.2 7.1 1.8 10.8 1.8 6 0 11.7-.9 17.2-2.8 5.5-1.8 10.3-4.5 14.4-8s7.3-7.8 9.7-12.7c2.4-5 3.7-10.7 3.7-17.1v-20.5h-.5z"/><path d="m943.2 252c-1.8-3.6-4.3-6.5-7.4-8.9-3.1-2.3-6.6-4-10.6-5.1s-8.3-1.6-12.8-1.6c-3.5 0-7 .4-10.6 1.1s-6.9 2-9.9 3.8-5.5 4-7.3 6.9c-1.8 2.8-2.7 6.3-2.7 10.5 0 3.5.9 6.4 2.6 8.9 1.7 2.4 3.9 4.5 6.6 6.1s5.6 3 8.8 4.1 6.1 2 8.8 2.6l21 4.7c4.5.7 9 1.9 13.4 3.6 4.4 1.8 8.3 4.1 11.8 6.9 3.4 2.8 6.2 6.3 8.4 10.5s3.3 9.1 3.3 14.8c0 7-1.6 13-4.8 17.9-3.1 4.9-7.2 8.9-12.1 12-5 3.1-10.5 5.3-16.7 6.6-6.1 1.3-12.3 2-18.3 2-15.2 0-27.4-3.6-36.9-10.7-9.4-7.2-14.8-18.7-16.1-34.6h15.8c.6 10.7 4.5 18.7 11.6 24.2 7.1 5.4 15.9 8.1 26.4 8.1 3.8 0 7.8-.4 11.9-1.2s7.9-2.3 11.4-4.2c3.5-2 6.3-4.6 8.6-7.7 2.3-3 3.4-6.9 3.4-11.4 0-3.8-.8-7-2.4-9.6s-3.8-4.7-6.4-6.5c-2.7-1.8-5.7-3.2-9.1-4.4-3.5-1.1-6.9-2.2-10.4-3l-20.3-4.5c-5.2-1.3-9.9-2.8-14.2-4.6s-8.1-3.9-11.4-6.5c-3.2-2.6-5.8-5.8-7.6-9.5-1.9-3.8-2.7-8.4-2.7-13.9 0-6.5 1.4-12.1 4.4-16.8 2.8-4.6 6.7-8.4 11.3-11.2s9.9-5 15.6-6.3c5.8-1.3 11.5-2 17.1-2 6.5 0 12.5.8 18.2 2.5 5.6 1.7 10.5 4.2 14.8 7.8 4.2 3.5 7.6 7.8 10.1 13 2.5 5.1 3.9 11.2 4.2 18.2h-15.7c-.3-4.8-1.3-8.9-3.1-12.6"/><path d="m1002.2 177.4v71.8h.5c2.9-7.8 8.3-14.1 16-18.9 7.7-4.7 16.1-7.1 25.3-7.1 9 0 16.6 1.1 22.6 3.5s10.9 5.6 14.6 9.9c3.7 4.2 6.2 9.4 7.8 15.6 1.5 6.1 2.3 13.1 2.3 20.8v83h-15.8v-80.6c0-5.5-.5-10.6-1.5-15.4-1-4.7-2.8-8.9-5.3-12.4s-5.9-6.3-10.1-8.3c-4.3-2-9.6-3-15.9-3s-11.9 1.1-16.9 3.4c-4.9 2.3-9.1 5.3-12.5 9.3-3.5 3.9-6.1 8.6-8 14-2 5.5-3 11.3-3.1 17.6v75.4h-15.8v-178.6z"/></g></svg>